<svg id="svg3476" xmlns="http://www.w3.org/2000/svg" viewBox="0 0 362.7 512"><g id="layer1" transform="translate(-193.633 -276.362)"><g id="g3013" transform="translate(119 276.362)"><path id="polygon2989" fill="#264DE4" d="M437.4 100.6l-33.1 370.2L255.8 512l-148.2-41.1-33-370.3z"/><path id="polygon2991" fill="#2965F1" d="M376 447.2l28.3-316.3H256v349.6z"/><path id="polygon2993" fill="#EBEBEB" d="M150.3 268.2l4.1 45.4H256v-45.4z"/><path id="polygon2995" fill="#EBEBEB" d="M256 176.3H142.1l4.2 45.4H256z"/><path id="polygon2997" fill="#EBEBEB" d="M256 433.4v-47.2h-.2l-50.6-13.7-3.2-36.2h-45.6l6.4 71.3 93 25.9z"/><path id="path2999" d="M160 0h55v23h-32v23h32v23h-55V0z"/><path id="path3001" d="M226 0h55v20h-32v4h32v46h-55V49h32v-4h-32V0z"/><path id="path3003" d="M292 0h55v20h-32v4h32v46h-55V49h32v-4h-32V0z"/><path id="polygon3005" fill="#FFF" d="M311.8 313.6l-5.3 58.9-50.7 13.7v47.2l93.1-25.8.7-7.6 10.7-119.6 1.1-12.2 8.2-91.9H255.8v45.4h64l-4.1 46.5h-59.9v45.4z"/></g></g></svg>