<svg id="Capa_1" xmlns="http://www.w3.org/2000/svg" viewBox="0 0 512 512"><g fill="#FFF"><path d="M310.6 380.2c-13.7-9.2-130.7-88.9-162.2-144.6l-1.7-3.1-3.6-.1c-27.2-1.1-48.3 14.6-57.3 22.7-3.7-3.7-7.5-7.6-11.3-11.5l-4.6-4.7-4.5 4.7c-17.8 18.5-25.7 35.7-23.4 51.2 1.8 12.6 10.4 23.5 24.9 31.7 2.6 1.5 32.7 22 65.5 48.1-5.7 5.8-26.2 19.1-33.7 24.4-8.4 5.9-43.3 37.6-43.3 37.6l22.5 5.3 7.8 15.2s10.7-26.2 22.5-39.2 32.3-23.3 32.3-23.3-11.1 15.8-19.1 31.2c-7.9 15.4-10 42-10 42l13.8-4.4 9.5 20.7s2.5-29.3 8.4-48.3c4.7-15.4 16.3-30 20.6-35.2 41.5 36.6 84.9 80.7 93.6 89.6 5.2 6 12 10.4 20.8 12.4 3.2.7 6.4 1 9.5 1 18 0 35-11.2 46-30.8 12.8-22.8 16.4-57.9-5.8-80.9-6.2-6.2-12-9.8-17.2-11.7zm-176.1-20.1c-30-23.6-57.5-42.4-61.4-44.7-11.1-6.3-17.3-13.8-18.6-22.5-1.5-10.2 3.8-22.2 15.6-35.7 29.4 30.1 54.5 53.9 75.8 72.9-9.7 15.7-11.4 24.2-11.4 30zm18.6-40.5c-16.9-15.1-36.3-33.3-58.4-55.4 7.5-6.6 24-18.6 44.4-19.1 10.7 17.5 28.4 36.7 48.3 55.3-10.3 1-23.3 5.6-34.3 19.2zm13 66.5c1.1-8.1 3.6-19.3 9.3-30.9 37.4 30.4 58.6 41.6 67.9 45.5-1.4 10.7-3.9 35.4.4 57.9-20.2-19.8-49.7-48.3-77.6-72.5zm156.4 80.8c-7.9 14.1-23 27.7-41.7 23.6-32.1-7.1-28.4-69.4-24.3-92.8l1-5.9-5.9-1.4c-.3-.1-20.2-5.7-69.5-45.9 9.3-10.8 24.1-15.6 35.4-17.7 27.8 23.1 55.6 43.1 72.1 54.7-.5.3-1 .5-1.4.8-19.1 10.8-27.1 42.2-22.9 57.2 4.9 17.7 16.7 29 29.1 28.8 5.3-.2 18.2-3.2 22.9-26.8l.7-3.7-2.8-2.4c-17.8-15.4-27.5-24.4-32.2-29 3-5.7 6.8-10.7 11.5-13.4 7.1-4 15.2-1.4 24.1 7.8 17.7 18.5 14.4 47.2 3.9 66.1zm-18.4-24.5c-2.2 8-5.9 12.9-10.1 13h-.2c-5.3 0-12.7-6.7-16.2-19.5-1.1-4.1-.8-10.1.7-16.4 5.2 4.9 13.4 12.4 25.8 22.9zM100 144.5l-20.1 64.3s82 8 150.4 29.3c68.3 21.4 140.3 61.5 140.3 61.5l20.4-65.4s-61.3-61.8-134.3-84.6c-73-22.8-156.7-5.1-156.7-5.1z"/><path d="M512 235.1L488.1 210l2.3-7.6s21-38.7-32-31.6c-2.8.5-4.4 1.4-5.3 2.5L295.5 8.1 0 73.3l81.3 72.6 4.4-14s93.3-19.8 174.7 5.6c81.4 25.4 149.8 94.3 149.8 94.3l-7.6 24.4 61-11.8c-10.2 32.5-21.9 70-25.5 81.6l-17.4-5.4-12.6 40.4 28.1-8.8 20.7 24 12.6-40.4-18.8-5.9 27.6-88.4 33.7-6.4zm-35-9c-2.1 6.7-9.3 10.5-16 8.4-6.7-2.1-10.5-9.3-8.4-16 2.1-6.7 9.3-10.5 16-8.4 6.7 2 10.5 9.2 8.4 16zm-11.9-40.2c6.7-2 18-4 15 5.6-.3.9-1.1 3.7-2.4 7.6l-12.6-13.2z"/></g></svg>