<svg id="Layer_1" xmlns="http://www.w3.org/2000/svg" viewBox="0 0 512 477.9"><g fill="#FFF"><path d="M360.5 426.9c-4.6-1.2-9.2 1.6-10.3 6.2l-8.5 34.1c-1.2 4.6 1.6 9.2 6.2 10.4.7.2 1.4.3 2.1.3 3.8 0 7.3-2.6 8.3-6.5l8.5-34.1c1-4.6-1.8-9.2-6.3-10.4zM256 256c1.1 0 2.2-.2 3.3-.6l93.9-38.8c4.4-1.8 6.4-6.8 4.6-11.1-1.8-4.4-6.8-6.4-11.2-4.6L256 238.2 17.1 139.4v-2.8c0-4.7-3.8-8.5-8.5-8.5S0 131.8 0 136.5v8.5c0 3.5 2.1 6.6 5.3 7.9l247.5 102.4c1 .5 2.1.7 3.2.7zm101.5 87.4c-2.1-4.2-7.2-6-11.4-3.9-16.2 8-43.3 17.3-81.6 18.6v-76.6c0-4.7-3.8-8.5-8.5-8.5s-8.5 3.8-8.5 8.5V358c-106-3.4-140.2-67.6-145.1-78.3v-58c0-4.7-3.8-8.5-8.5-8.5s-8.5 3.8-8.5 8.5v59.7c0 1.1.2 2.2.6 3.2 1.5 3.7 37.8 90.7 170.1 90.7 46.2 0 78.6-11.2 97.6-20.6 4.2-1.9 5.9-7.1 3.8-11.3zm26.5 91.8c-4.7 0-8.5 3.8-8.5 8.5v25.6c0 4.7 3.8 8.5 8.5 8.5s8.5-3.8 8.5-8.5v-25.6c0-4.7-3.8-8.5-8.5-8.5z"/><path d="M503.5 128c-4.7 0-8.5 3.8-8.5 8.5v2.8l-102.4 42.1V166l114.2-47.3c3.2-1.3 5.3-4.4 5.3-7.9s-2.1-6.6-5.3-7.9L259.3.6c-2.1-.9-4.4-.9-6.5 0L5.3 103c-3.2 1.3-5.3 4.4-5.3 7.9s2.1 6.6 5.3 7.9l247.5 102.4c1 .4 2.1.6 3.3.6s2.2-.2 3.3-.6l89.5-37c4.4-1.8 6.4-6.8 4.6-11.1-1.8-4.4-6.8-6.4-11.1-4.6L256 204.1 30.8 110.9 256 17.8 481.2 111l-98 40.5-93.8-35c.5-1.8.8-3.6.8-5.5 0-14.4-15-25.6-34.1-25.6S222 96.6 222 111s15 25.6 34.1 25.6c8.5 0 16.2-2.3 22.1-6.1l97.4 36.4V377c-9.9 3.5-17.1 12.9-17.1 24 0 14.1 11.5 25.6 25.6 25.6s25.6-11.5 25.6-25.6c0-11.1-7.2-20.5-17.1-24v-48.4c24.5-18.5 33.3-43.1 33.7-44.2.3-.9.5-1.8.5-2.8v-59.7c0-4.7-3.8-8.5-8.5-8.5s-8.5 3.8-8.5 8.5V280c-1.5 3.6-6.6 14.8-17.1 25.8V200l114.2-47c3.2-1.3 5.3-4.4 5.3-7.9v-8.5c-.2-4.8-4-8.6-8.7-8.6zM256 119.5c-10.4 0-17.1-5.1-17.1-8.5 0-3.5 6.6-8.5 17.1-8.5 10.4 0 17.1 5.1 17.1 8.5 0 3.4-6.7 8.5-17.1 8.5zm128 290.1c-4.7 0-8.5-3.8-8.5-8.5s3.8-8.5 8.5-8.5 8.5 3.8 8.5 8.5-3.8 8.5-8.5 8.5zm33.9 23.5c-1.1-4.6-5.8-7.4-10.3-6.2-4.6 1.1-7.4 5.8-6.2 10.4l8.5 34.1c1 3.9 4.4 6.5 8.3 6.5.7 0 1.4-.1 2.1-.3 4.6-1.1 7.4-5.8 6.2-10.4l-8.6-34.1z"/></g></svg>