<svg xmlns="http://www.w3.org/2000/svg" id="Capa_1" viewBox="0 0 364.16 364.16" width="512" height="512"><path d="M308.16 63.6H56c-41.28 0-56 28.88-56 56v124.96c0 27.04 14.72 56 56 56h252.16c27.04 0 56-14.72 56-56V119.6c-.08-41.52-28.96-56-56-56zM56 75.52l252.16.16a50.401 50.401 0 0 1 27.68 8l-153.76 99.6-36.4-24a5.919 5.919 0 0 0-2.24-1.28L28.16 83.52a45.922 45.922 0 0 1 27.84-8zM12.08 244.56h.08V119.6a50.722 50.722 0 0 1 8-27.2l112 72.64-107.76 112a47.279 47.279 0 0 1-12.32-32.48zm295.36 43.84l-251.36.08A50.404 50.404 0 0 1 34 284l108.08-112.32 36.72 24h.4a6 6 0 0 0 2.56.64 6 6 0 0 0 2.56-.64h.4l36.96-24 108 112a53.513 53.513 0 0 1-22.24 4.72zm32.96-11.84l-107.76-112 112-72.56a46.24 46.24 0 0 1 7.44 27.28v125.28a42.718 42.718 0 0 1-11.68 32z" fill="#FFF"/></svg>