<svg xmlns="http://www.w3.org/2000/svg" id="Layer_1" viewBox="0 0 511.999 511.999" width="512" height="512"><g fill="#FFF"><path d="M466.467 86.576h-13.699c0-77.128-107.328-77.208-107.328 0H166.56c0-77.128-107.328-77.208-107.328 0h-13.7C20.426 86.576 0 107.002 0 132.109v185.046c0 25.107 20.426 45.533 45.533 45.533h13.699v101.096c0 10.777 8.737 19.514 19.514 19.514h68.299c10.777 0 19.514-8.737 19.514-19.514V362.688h178.88v101.096c0 10.777 8.737 19.514 19.514 19.514h68.299c10.777 0 19.514-8.737 19.514-19.514V362.688h13.699c25.107 0 45.533-20.426 45.533-45.533V132.109c.002-25.107-20.425-45.533-45.531-45.533zm-52.728 0h-29.271c-.001-25.317 29.271-25.662 29.271 0zm-286.208 0H98.26c0-25.317 29.271-25.662 29.271 0zm0 357.694H98.26v-81.582h29.271v81.582zm286.208 0h-29.271v-81.582h29.271v81.582zm59.233-127.115a6.512 6.512 0 0 1-6.505 6.505H45.533a6.512 6.512 0 0 1-6.505-6.505V132.109a6.512 6.512 0 0 1 6.505-6.505h420.934a6.512 6.512 0 0 1 6.505 6.505v185.046z"/><path d="M120.652 192.517l-12.528 42.282-6.511-27.858c-.997-4.49-11.365-4.493-12.363 0l-6.511 27.858-12.528-42.282c-1.445-5.052-13.979-1.291-12.281 3.791l16.402 50.276c1.838 5.854 15.54 5.569 16.813 0l4.287-19.534 4.285 19.534c1.255 5.491 14.779 5.935 16.815 0l16.401-50.276c1.679-5.101-10.842-8.831-12.281-3.791zm58.691 8.818c5.093 0 5.258-11.209 0-11.209h-29.341c-2.804 0-5.606 1.319-5.606 3.956v52.337c0 2.637 2.804 3.956 5.606 3.956h29.341c5.255 0 5.096-11.209 0-11.209h-22.089v-14.011h12.363c5.24 0 5.083-9.891 0-9.891h-12.363v-13.929h22.089zm47.721 37.831h-18.791V194c0-2.72-3.213-3.874-6.429-3.874-3.213 0-6.428 1.154-6.428 3.874v52.419c0 2.637 2.804 3.956 5.606 3.956h26.042c4.946 0 4.946-11.209 0-11.209zm34.211-37.83c7.006 0 7.251 5.274 7.336 7.417.164 2.967 2.967 3.874 6.429 3.874 4.367 0 6.428-1.154 6.428-6.099 0-20.607-40.468-24.734-40.468 3.049v21.842c0 27.724 40.468 24.001 40.468 2.226 0-4.945-2.061-6.099-6.511-6.099-3.297 0-6.1.825-6.347 3.874-.246 3.215-.66 8.241-7.253 8.241-4.78 0-7.5-2.637-7.5-8.241v-21.841c0-5.606 2.72-8.243 7.418-8.243zm52.836-11.21c-11.375 0-20.195 5.275-20.195 19.452v21.842c0 14.176 8.819 19.45 20.195 19.452 11.373 0 20.275-5.275 20.275-19.452v-21.842c0-14.177-8.902-19.452-20.275-19.452zm7.415 41.293c0 5.686-2.801 8.241-7.417 8.241s-7.336-2.555-7.336-8.241v-21.842c0-5.688 2.72-8.243 7.336-8.243s7.417 2.555 7.417 8.243v21.842zm71.051-41.292c-4.617 0-6.593.493-9.973 6.428l-8.489 14.836-8.49-14.836c-3.379-5.934-5.357-6.428-9.972-6.428-3.215 0-6.429 1.73-6.429 6.428v49.865c0 5.275 12.859 5.275 12.859 0v-31.733l7.829 14.342c1.73 3.32 6.483 3.116 8.323 0l7.911-13.517v30.908c0 5.275 12.859 5.275 12.859 0v-49.865c0-4.697-3.132-6.428-6.428-6.428zm56.875 11.208c5.094 0 5.256-11.209 0-11.209h-29.341c-2.804 0-5.606 1.319-5.606 3.956v52.337c0 2.637 2.804 3.956 5.606 3.956h29.341c5.255 0 5.096-11.209 0-11.209h-22.089v-14.011h12.363c5.24 0 5.083-9.891 0-9.891h-12.363v-13.929h22.089z"/></g></svg>