<svg xmlns="http://www.w3.org/2000/svg" viewBox="0 0 458 78"><path fill-rule="evenodd" clip-rule="evenodd" fill="#FFF" d="M41.7 31.8c-.9-.3-2.1-.6-3.5-1-1.4-.3-2.8-.7-4.3-1.1-1.8-.5-3.5-1.1-5.1-1.7-1.6-.6-2.9-1.2-3.7-1.9-.5-.4-.9-.8-1.3-1.3s-.7-1-.8-1.5c-.2-.2-.3-.5-.3-.7 0-.2-.1-.5-.1-.7 0-1.5.8-3 2.3-4.4 1.5-1.4 3.2-2.1 5-2.4h.9c2.7 0 5.2.6 7.5 1.7s4.5 2.5 6.6 4.1l6.4-14.3c-2.3-1.5-4.9-2.7-7.6-3.8C41 1.7 38.2.9 35.4.5 34.3.3 33.3.2 32.2.1c-1-.1-2.1-.2-3.1-.2C25 0 20.9.9 17 2.7c-3.9 1.8-7.1 4.7-9.6 8.8-.9 1.2-1.5 2.6-2.1 4.2-.5 1.5-.9 3.1-1.2 4.6-.1.7-.2 1.3-.2 1.9 0 .6-.1 1.2-.1 1.9v.9c0 .3 0 .6.1.9.1.9.2 1.8.4 2.7.2.9.4 1.7.6 2.4 1.2 3.9 3.5 6.8 6.9 8.9 3.3 2.1 6.9 3.5 10.7 4.5.1 0 .2 0 .2.1.1 0 .2.1.2.1.7.2 1.4.3 2.2.5.8.2 1.6.4 2.4.8 2.1.8 4 1.9 5.9 3.3 1.8 1.4 2.7 3.2 2.7 5.3 0 .4 0 .8-.1 1.3l-.3 1.5c-.1.2-.2.3-.2.5-.1.2-.2.3-.2.5-.6 1-1.5 1.9-2.6 2.6-1.1.7-2.3 1.2-3.5 1.4-.3.1-.6.1-1 .2-.3 0-.7.1-1 .1-.1 0-.2 0-.3-.1-.1 0-.2-.1-.3-.1-.1 0-.2 0-.3-.1-.1 0-.2-.1-.3-.1-3.4-.2-6.4-1.2-9.1-3.2-2.6-2-5-4.1-7.1-6.4l-.2-.2-.2-.2L.2 66.8c3.5 3.2 7.5 5.7 12 7.6 4.5 1.9 9.1 2.9 13.7 3.1h1.3c1.1 0 2.2-.1 3.4-.2s2.3-.3 3.5-.5c1.4-.3 2.8-.7 4.2-1.1 1.4-.4 2.7-.9 4.1-1.6 3.6-1.9 6.4-4.7 8.5-8.4 2.1-3.6 3.4-7.5 3.9-11.5 0-.4 0-.8.1-1.3 0-.5.1-.9.1-1.4V51c-.1-4-1.2-7.8-3.4-11.4-2.3-3.6-5.6-6.2-9.9-7.8zm27.6 44.1h45.4V59.3H89.2V46.7h24V30.9h-24V18h25.6V1.9H69.3v74zm121.8-55.1c-2.4-5-5.8-8.9-10.1-12-3.4-2.5-7.1-4.2-11.2-5.1-4.1-.9-8.2-1.5-12.4-1.7-1.2-.1-2.3-.1-3.5-.1h-25.1v74h23.9c1.2 0 2.4 0 3.7-.1 4.3-.2 8.6-.8 12.9-1.7 4.3-.9 8.2-2.6 11.8-5.1 4.5-3.3 7.9-7.4 10.3-12.5 2.4-5.1 3.7-10.4 3.9-15.9v-2.9c0-.5 0-.9-.1-1.4-.4-5.4-1.7-10.5-4.1-15.5zm-16.2 18.1c0 3.3-.6 6.5-1.8 9.6-1.2 3.1-3 5.5-5.5 7.3-1.5 1.1-3.3 1.9-5.2 2.4-1.9.5-3.9.9-5.9 1-.8.1-1.6.1-2.4.2-.9 0-1.7.1-2.4.1-.2 0-.5 0-.7-.1-.2 0-.5-.1-.8-.1-.2 0-.5 0-.8-.1-.3 0-.5-.1-.8-.1V18.5h7.5c2.1.1 4.1.3 6.1.8s3.8 1.4 5.4 2.7c2.2 1.6 3.9 3.8 5.1 6.6 1.2 2.7 1.9 5.6 2.1 8.5.1.3.1.6.1.9v.9zm92.4-32.1c-2.6-1.6-5.2-2.9-8.1-3.9-2.8-1-5.7-1.7-8.5-2.1-.9-.1-1.9-.2-2.8-.2-1-.1-1.9-.1-2.8-.1-6.9 0-13.5 1.7-19.9 5.2-6.3 3.5-11.3 8.5-14.9 15.1-1 1.9-1.9 3.8-2.6 5.9-.7 2.1-1.2 4.1-1.6 6.1-.2 1.1-.4 2.1-.5 3.1-.1 1-.1 2-.1 3 0 6.8 1.9 13.4 5.6 19.7 3.7 6.3 8.8 11.2 15.3 14.6 2.4 1.2 4.9 2.2 7.5 2.9 2.6.7 5.2 1.2 7.8 1.4.5 0 1.1 0 1.6.1.5 0 1 .1 1.6.1 7.6 0 14.8-2.1 21.7-6.2 6.9-4.1 12-10 15.2-17.5.6-1.5 1.1-3.1 1.6-4.7.4-1.6.7-3.2.9-4.8.2-.8.3-1.6.3-2.4 0-.8.1-1.6.1-2.4 0-6.4-1.5-12.6-4.5-18.5-3.2-6.1-7.5-10.9-12.9-14.4zm-3 33.9c0 .5-.1 1.1-.2 1.6-.1.9-.2 1.7-.4 2.6-.2.9-.4 1.7-.6 2.4-1.5 4.1-3.9 7.4-7.1 9.8-3.3 2.4-7 3.7-11.1 3.7-.5 0-.9 0-1.4-.1-.5 0-.9-.1-1.4-.2l-1.5-.3c-.5-.1-.9-.3-1.4-.4-4-1.2-7.2-3.6-9.5-7.3-2.3-3.7-3.5-7.6-3.8-11.7-.1-.3-.1-.6-.1-.9V39c0-.5 0-1.1.1-1.6 0-.5.1-1 .2-1.6.2-.8.3-1.5.5-2.3.2-.7.3-1.5.6-2.1 0-.2 0-.3.1-.5 0-.2.1-.3.2-.5 1.3-4.1 3.6-7.4 7-9.9 3.3-2.5 7-3.7 10.9-3.7.8 0 1.5.1 2.3.2.8.1 1.5.3 2.3.4.8.2 1.5.5 2.3.8.8.3 1.5.7 2.3 1 2.9 1.7 5.1 4.1 6.7 7.2 1.6 3.1 2.6 6.3 3 9.6 0 .5 0 .9.1 1.4 0 .5.1.9.1 1.4-.2.8-.2 1.3-.2 1.9zm87.5-2.5c0 1.7 0 3.4.1 5l.3 4.8c.1.9.2 1.7.3 2.4l.3 2.4c-.5-.9-.9-1.9-1.4-2.9-.5-1-.9-2-1.4-3-.6-1.2-1.3-2.5-1.9-3.7-.7-1.2-1.3-2.3-2-3.4l-27.9-38h-19.5v74h19.5V39.4c0-2.5-.1-5-.3-7.4-.2-2.5-.5-4.9-.9-7.3l1.2 2.7c.4 1 .9 2 1.3 3 .6 1.4 1.3 2.7 2 4 .7 1.3 1.4 2.4 2.2 3.3l28.1 38.2h19.4v-74h-19.4v36.3zm79.7-36.3h-25.2l-25.4 74h20l3.8-13.4h28.6l3.7 13.4h20.2l-25.7-74zm-22.6 46.3l7.5-24.5.9-3.3c.3-1.1.5-2.2.8-3.4.1-.2.1-.3.1-.4 0-.1 0-.3.1-.4.1-.5.2-.9.3-1.3l.3-1.2c.1.4.2.8.2 1.2.1.4.2.9.3 1.3.2 1.2.5 2.5.9 3.8.3 1.3.7 2.5 1.1 3.7l7.5 24.5h-20z"/></svg>