<svg id="Layer_1" xmlns="http://www.w3.org/2000/svg" viewBox="0 0 25.5 25.5" enable-background="new 0 0 25.5 25.5" preserveAspectRatio="xMidYMid slice"><defs><filter id="Adobe_OpacityMaskFilter" filterUnits="userSpaceOnUse" x="0" y="0" width="25.5" height="25.5"><feColorMatrix values="1 0 0 0 0 0 1 0 0 0 0 0 1 0 0 0 0 0 1 0"/></filter></defs><mask maskUnits="userSpaceOnUse" x="0" y="0" width="25.5" height="25.5" id="SVGID_2_"><g filter="url(#Adobe_OpacityMaskFilter)"><linearGradient id="SVGID_1_" gradientUnits="userSpaceOnUse" x1="-830.326" y1="-132.333" x2="-803.926" y2="-132.333" gradientTransform="matrix(0 -1 -1 0 -119.383 -804.201)"><stop offset=".191"/><stop offset=".241" stop-color="#1f1f1f"/><stop offset=".35" stop-color="#6d6d6d"/><stop offset=".511" stop-color="#e9e9e9"/><stop offset=".538" stop-color="#fff"/><stop offset=".55" stop-color="#f0f0f0"/><stop offset=".608" stop-color="#a8a8a8"/><stop offset=".662" stop-color="#6c6c6c"/><stop offset=".712" stop-color="#3d3d3d"/><stop offset=".756" stop-color="#1c1c1c"/><stop offset=".792" stop-color="#070707"/><stop offset=".816"/></linearGradient><path fill="url(#SVGID_1_)" d="M-.2-.5h26.3v26.4H-.2z"/></g></mask><g opacity=".3" fill="#595959" mask="url(#SVGID_2_)"><path d="M21 8.6l-3.8-.8 3.8.8-3.7-2.8-.1 2 .1-2zm-3.7-2.8l-.1 2zM21 8.6L18.2 8zm-3.7-2.8l1.9 1.4zm.6 3.6l-.9-.1zm-.5-1.2l.5 1.2zm-.2-.4l.4.8zm.6 1.6l-.9-.2zm.1.1l-1.2 4.8zm-1-.3l.9.2h.1l-.9-.1zm-.2 5.1l.1-1.2zm0 0l.1-2.2zM20 24.8l.3-1.1zm1.6.7v-.1zm-1-16.6l.4-.3z"/><path d="M17.2 7.8l3.2 1.3.6-.5-3.8-.8zm.1 0l.9.2 2.8.6-.6.5-3.1-1.3zm3.1 1.3l-1.2.2z"/><path d="M17.9 9.4l2.5-.3-3.2-1.3.4.8.3.8-.5-1.2-.2-.4 3.2 1.3zm-.7-1.6zM1 3.9l1.4-.3zm1.4-.3zm-2.1.5h.1zm1.3-.7l.8.2zM.4 4l.6-.7zM0 2.5l.2.2zm.4 1.6l-.1-.3zm.6-.8L.4 4v.1L0 3l.4 1zm.1 0L0 2.5zm22.4 9.8l-1.2-.7zm.3 1.9l-.3-1.9zm0 .1V15zm-1.5-2.7l1.5 2.6zm.5.3l-.5-.3 1.5 2.6-1.5-2.6zm-1.4-1.9l.9 1.6-1.6-1.1 1.6 1.1zm-3.5-1.3l4.4 2.9zm2.5-.3l1.1 1.8zm-2.5.2z"/><path d="M17.9 9.4l2.5-.3-1.2.2-1.3.1zm-6.4 0L15 7.5zm0 0L15 7.5zm3.4-1.9l-1.4-.9zM.6 18.8L0 19zm0 0L0 19zm-.5-.4l.5.4zm7.2-6.5l.2.2zm.2.2l.3-.6zm.2-.6l-.1.1.1-.1zm-.1.1l-.3.3.2.2-.2-.2zm.2-.1zM8 9.3l.3-4.8zm.1-4.6l.2-.2-.1 2 .1-2zM6.4 5.9l.8 1.7-.8-1.7zm0 0l1.8-1.3zm0 0l.9 2zm10.7 17.7l.4-.5zm1.1-1.6l2.1 1.7zm2.2 1.7zm-3.3 0h3.2zm.5-.8l-.5.7zM13.4 6.5h-.1zm-1.4 0l.3-.4zm.3-.4h.1zm1 .4l-1-.4zm-1.3 0zm-.5 3zm0-.3v.2zm1.8-2.7l-1.8 2.9.4-2.1-.4 2.1 1.8-2.9H12h1.3zm7.8 2.2l.8.4zm-.7.4h1.5zm.4 0h-.4zm-.4 0l.7-.4zm0 0l.4-.2zm1.5 0zm-1.5 0zm0 0zm0 0l.6-.5-.4.3-.2.2.4-.2.3-.2H21h.1l-.7.4zM2.1 12.4zm-1.9.5l-.2-.1zm0 0l1.8-.5zm1.9-.5L0 12.3zm-2 .5l-.1-.1zm.1 0l.5-.1zm0 0H.1L0 13l.1-.1-.1-.1zm0 0l-.2.4zm0 0z"/><path d="M.1 12.9h.1-.1L0 13zM8 9.3zm-1.5 2.5l1.2-.3.2-1.7-.2 1.7zm-.1 0L8 9.3zM8 9.3l-1.5 2.3zm-1.5 2.5l.4-.1zM8 9.3l-2.5 1.8zm-1.6 2.5zm.1 0h-.1l-.9-.7.9.7L8 9.3l-1.5 2.3zm-1-.7l.6.5-.6-.5zm1 .7H7h-.5zm1.3-.3zm-1.4.3z"/><path d="M7.7 11.5l-1.3.3.9.1.2-.2.2-.2zm-1.2.3l.5-.1.8-.2-.2.2-.2.2-.9-.1zm1 .3l-.6-.2zm0 0z"/><path d="M7.3 11.9l-.3-.1h-.5l.5.1-.6-.1h.9v.1l.2.2zm-.9-.1zm15 7.2zm2.3.8l.5-1zm-2.3-.8l2.8-.2-.4.8.4-.8zm2.8-.3l-.2.1.2-.1zm-23.6.1l-.3.5zm.1 0zm-.1 0L0 19zm2-15.6l-.2.4zm-.5 0l.6-.1zm.6-.1l-1.6.2zm-1.6.2l1.3.3-.8-.2-.5-.1zm-.1 0zm20 5.3zm0 0l-.3-.6.3.6zm-2.2-4l-.4.3zm-1.5 1.2l1.5-1.2.9 1.6-.9-1.6-1.5 1.2 1.9 1.4L21 8.6zm1.5-1.2zm-1.5 1.2zm.8-1.3l-.6 1 .6-1zm0 0l.1.1z"/><path d="M17.3 5.8l.2-.3-.1.3 1-.9.4-.3zM2.4 15.5l.1.6-.5-.7.5.7zm-.3-3.1l-1.4.4-.5.1 1.8-.5zm.4 3.7l-.1-1 .1 1zM.2 12.9l2.3 3.2zm0 0H.1zm2.3 3.2l-1.2-.6zm0 0z"/><path d="M.2 12.9L2 15.4l.5.7-2.3-3.2-.2.4.1-.4zm19.2 2l4.4.1zm0 0zm1.9.1l-1.9-.1zm1-2.6l1.5 2.6zm0 0l-2.9 2.5zm-2.9 2.5L18.1 10zm-1.5-5.5zm4.4 3l-4.4-2.9v-.1l2.8 1.9 1.6 1.1-2.9 2.5zm-2.9 2.5z"/><path d="M17.9 9.5l-1.2 4.8 1.2-4.9v.1l.2.5 1.3 4.9-1.9-.4 1.9.4zm.5 5.2l1 .2zM7.5 12.1l-.3.2zm-1.1-.3l-1.2 1.6zm.6.1l.5.2-2.8 2 2.8-2-.6-.2-.5-.1-1.2 1.5 1.2-1.5zm-2.4 2.2zm0 0l.2-.6z"/><path d="M6.4 11.8l-1.2 1.5-.5.8.5-.7 1.2-1.6-.3-.2-.6-.5zm-1.8 2.3l-2.1 2zm1.5 2.7l-3.6-.7zm-4-4.4l.3 2.7.1 1 2.1-2-2.1 2-.1-.6zM4 13.7l-1.9-1.3zm-1.9-1.3zm7.8 11.9zm-.5.1l-2.4.5 1 .6-1-.6zm-2.4.5l1 .6zm18.5-.8l-.1-.2zm-1.3-2l.6.2zm0 0l1 .3zm1.3 2l-.8-1.3zM6.1 2.8l.1.8-.1-.8zm2.2 1.7L6.5 3.1l1.8 1.4zM6.1 2.8zm2.2 1.7l-.2.2-1.7 1.2-.3-3 .3 3 1.8-1.3.1-.1zm7.3-.8l.4.5-.4-.5zm1.7 2.1l-1.4-1.7 1.4 1.7zm-1.7-2.1l2 .7zm2.5.9l-.6.9-.2.3.2-.3.6-1v.1zm0 0zm-2.5-.9l2 .7.5.1zm.2-2.1l-.2 1.8zm0 0zm-.2 2.1l.2-2.1.6.8-.6-.8zM8 9.3l-.8-1.7-.8-1.7.9 2L8 9.3zM6.4 8.2l-.8-.6zM8 9.3zM5.6 7.6l.3.3zm.6-1.3l-.6 1.3zm-.7 4.8V9.3zm0 0l.1-2.3-.1 2.3L8 9.3 5.9 7.9l-.3-.3.8.6L8 9.3l-2.5 1.8zm0 0L3.8 8.9z"/><path d="M5.6 7.6v1.2l-.1 2.3V9.3zM3.8 8.9l.8-.6zm0 0l1.1-.8zm1.7 2.2zM13 23.9l-.1-.8zm1.7-3.4l-.8 1.7zm-1.6 3.4l-.5-2.7zm.3-3.9l-1.1-.3zm1 .3l-2.1-.6zM13.1 24v-.1zm-2.5-3.5l1.3-.6zm2.4 3.4l-1.8-2.5 1.8 2.5zm-.6-.9l-1.8-2.5zm.5.1l-.6-3.4.3 1.5.5 2.7H13zM2.9 5.4l-.5-.2zm-.5-1.8v1.5-1.5L2.8 5zm0 0zm0 1.6zm.5.2l-.5-1.8zm-.5-1.8L1 3.9l-.6.2V4zm-2 .5l.7.4-.7-.4z"/><path d="M2.4 3.6v1.6L.8 4.3l1.6.9zm0 1.6zM22.7 12l.8 1.1zm.8 1.1l.7-1.7zm.3-.7l-.3.7zm-1.1-.4l1.5-.6zm1.5-.6l-.8.3.8-.3zm-1.9 1l.1-.1-.1.1 1.2.7-.8-1.1.8 1.1-.7-.4zm0 0z"/><path d="M22.4 12.3l.3-.3-2.3-2.9 1 1.7.9 1.5h.1zm.3-.3l-.4.4-.8-1.4-1.1-1.8 2.3 2.8zm0 0l-.8-2.9zm0 0z"/><path d="M22.7 12l-2.3-2.9h1.5-1.5l2.3 2.9-.3-1zM6.4 5.9l-.2-2.3-.1-.8L4.9 5l1.2-2.2v.1zm0 0zm9.4-4.3l.6-.3-.6.3zm1.9-.9l.3 2.7-.3-2.7zm-1.9.9l.1-.1-.1.1zm2.3 2.9L17.7.7l.4 3.8zm0 .1z"/><path d="M18.1 4.5l-1.7-2.1-.6-.8 2.3 2.9zM11 5.6l-1-.4 1 .4zM8 9.3l1.7-2zm0 0l.2-2.8.1-2 .2.1-.2-.1L8 9.3l3-3.7zm8.9-.1L13 12.4zm-1.7 1.4L13 12.4zm-2.1 1.8l3.6 1.9zm3.8-3.1v-.1.1-.1.1l-.1 3.8-.1 1.2.1-2.2zm-1.7 4.3L13 12.4zM15 7.5zm1.8 1.6L15 7.5zM13 12.4zm1-2.5l-1 2.5zm2.9-.7z"/><path d="M13 12.4l2-4.9-2 4.9 3.9-3.2L15 7.5l1.9 1.7v.1l-1.7 1.3zm0 0l.5.4-.5-.4zm3 2.1l.7-.1zm.7-.2l-3.6-1.9 2.9 2.1-3-2.1 2.2 1.2 1.5.7zm-1 .3l.2-.1-2.4-1.7-.5-.4 3 2.1zm-1.9.2l.4-.1zm2.2-.2v-.1zm-1-7.1zm-2 4.9l-.2-.4z"/><path d="M15 7.5l-2 4.9 1-2.5 1-2.4-3.5 1.9.2.4-.2-.4L15 7.5zm9 6zm.2-2.1zm0-.1v.1zm-.7 1.8l.3-.7.4-1-.7 1.7.5.4zm0 0zm.3 1.9l.1-.8-.1.8zm0 0v.1-.1z"/><path d="M23.8 15l-.3-1.9.5.4-.5-.4.3 1.9.2-1.2-.2 1.2zM.7 18.8l2.5 1.1zm3.8 1.7l-1.3.4 1.3-.4zm.1 0zM0 21.9l.4-1.7zm0 0zm.6-3.1L0 21.9v-.1.1l.4-1.7.2-1.4-.3.5-.3.4v-.1zM0 21.9v-.1zM20.9 5.1l1.6.5zm1.6 0l1.2-.1zm-1.5 0l1.8.6zm-.1 0L23 5zm2.8 0h-.1zm-4.9-.5zM21 6.2l-.1-1.1zm-.1-1.1l-.8-.2zm0 0l-.6-.2zm.1 3.5zm0 0l-1.3-2.4-.9-1.6L20.7 8l.3.6-.1-3.5.1 3.5zm-3-8l-.3.1zm-.3-.1L18 0zm0 .2L18 0zm0 0l.2-.7zm0 0V.5L18 0zM.4 0L.1.2zM0 .3L.4 0zm1.5.3V.1v.5zm0 0V0zM0 .3L.4 0 .1.2zm1.5.3h-.1L0 .8zM.8 7.3l1-.9zm2.1-1.9zm-.5-.2L1.2 6.7l1.2-1.5zm.5.2l-.5-.2zm-2.2 2zM.4 4.1l.1 1zm0 0l.4.2 1.6.9L.8 7.3l-.1.1.5-.7 1.2-1.5-1.3-.7-.7-.4.2 2.2-.2-2.2zm.3 3.3l-.2.3zm0 0l-.2.3.2-.3zM0 7l.2.1z"/><path d="M.7 7.4L0 7.1l.7.2zm16.5.4l-.7.2zm-.7.2l.7-1.7zm0 0zm.7-.2l-.6.2.6-.2.1-2zm0 0zm.1-2z"/><path d="M16.9 9.2l.3-1.4-.6.2.3 1.2zM16.5 8l.7-.2-.3 1.4-.4-1.2zm.4 1.2v.1zM16.5 8l.4 1.2zm-5.4-2.4l-.3-.2.3.2zm-2.6-1l-.2-.1 1.7.7 1 .4-.7-.7.7.7zm.1-1.5l-.3 1.4zm-.3 1.4zm.3-1.4h-.2zm0 0l-.3 1.4-2.2-1.7.4.3 1.8 1.4.3-1.4zm-2.5-.3h.4zm1.8-1.3L6.1 2.8zm.2.4l-.2-.4z"/><path d="M8.6 3.1h-.2l-2.3-.3h.4l2.1.3zM25 2.3zm.1 0l.4-.2zm0 0l.4-.2zm0 0l.4.3zm-.1 0zm.1 0l.4-.7zm0 0l.4-.7-.4.7.4-.2zm-.1 0l.2-2.3zm.1 0l.4-.7zM.8 8.5l-.8.3zM.7 7.4l-.2.3-.5.6.5-.6zm3.1 14.4l-1 1.5zm.7-1.2l-.5.8zm.1-.1zM0 21.9l3.2-1 1.3-.4h.1L0 21.9l2.8 1.4L0 21.9zm1.3 1.6l.8-.1-.8.1zm0 0L0 21.9zm1.5-.2zM0 21.9z"/><path d="M2.8 23.3l-.7.1.7-.1-2.7-1.4H0zm22.3-21l.2.6-.2-.6.4.3z"/><path d="M25.1 2.3l.2.6.2.4v.1zm.4 1.8l-.9.5zm-1.5.8l-.3.1zm1-2.6l-.4.9zm-4.6 19.9l.3-.3zm.5-.4zm-1-.8zm0 .1V21zm.9.7l-.2.2zm-.4.4l-2.2-.2zm0 0l-1.4-.1zm-2.2-.2l2.2 1.7h-.1zm0 0zm1.7-1l-1.2.7 1.2-.7zm-1.7 1l2.2.2-.5-1.2-.5.3.5-.3v.1l.5 1.1h-.1.1l-1.4-.1-.8-.1zm-5.9-2.3l1.8-1.2zm2.7-1.9l-2.5 1.8 2.5-1.8zm-.2 2l-.1.6zm-.1.6l.2-1.9zm-2.4-.7l1.1.3 1.3.4-.3-.1zm2.7-1.9zm-2.7 1.9l-.4-1 .4 1zm0 0zm0 0l.2-.1 2.5-1.8-3.4.2.1.2-.1-.2 3.4-.2-.9.7zm7.3-3.5l-.2-1.2zm0 .1l3-.9zm4.2-1.3zm-4.2 1.3zm4.2-1.3l-4.4-.1.1.6-.1-.6 1.9.1h2.5zm-4.2 1.3l-2.1.4zm.6 2.9l-1.1-1.1zm-.5-2.5l-.1-.4zm.5 2.5l-2.7-2.5zm0 .1v-.1zm-.6-3l.2.9zM11.1 5.7zm1-3.2zm-1.8 2.4L8.6 3.1l2.2 2.3.3.2.8-2.4-.8 2.4H11zM8.6 3.1zm14.6 17.5zm-.6-.1l-.7-.1zm.6.1L21.4 19l1.8 1.6zM21.4 19zm-1.2.2zm1.7 1.2zm-.5-1.4l-1.1.2zm-1.2.2l1.7 1.2-1.7-1.1z"/><path d="M21.4 19l.5 1.4-.5-1.4-1.2.2.4.3-.4-.3 1.2-.2zm-1.5 2l.1-.6z"/><path d="M21.9 20.4l-1.7-1.2v.1l-.3 1.7.3-1.8.4.3 1.3.9zm-4.4-3.7l-.8-.2.8.2zm-.8-2.3l-1 1.9zm0 0l.4 1.3zm-1 1.9zm1.8.4l-1-.2zm-1.8-.4l1-1.9.4 1.2-.4-1.2zm1-2zm-.8.3v.4-.4z"/><path d="M15.7 16.3l1-1.9-.7.1v.1-.1l.7-.2v.1zm1-2zm-2.9.4v.1zm0 .1l1.9 1.5z"/><path d="M15.7 16.3l-.4-.3.4.3.2-1.3v-.4l-1.7.1-.4.1v-.1l1.9-.1.3-.1v.1l-.3 1.7zm-9 4.8zm0 0l-.1-.5zm-1.9-1.7l.3.2zm1.5 1.4l.4.3zm-.2-4zm-1.3 2.5v.1zm1 1.9l-.5-.8.5.8zm.9-.1l-.4.1zm-.1 0l-.8.1-.6-1.1.6 1.1zm.1 0l-.4-.3-1.5-1.4.3.2zm-1.9-1.7v-.1.1zm-2.3-3.3l3.6.7-1.3 2.6v-.1l1.3-2.5-3.6-.7zm2.1 4.1v.3z"/><path d="M4.8 19.4l-.2 1.1 1.2.7-.6-1.2-.4-.6zm.5 1l.4.9-1.2-.7.2-1.1.6.9zm-.5-1z"/><path d="M4 19.3l-3.3-.5 3.9 1.7h-.1l-1.3-.6-2.5-1.1zm.8.1l-2-.3 2 .3zm-4.2-.6zm4 1.7v-.3l.2-.8zm.2-1.1zm-2.3-3.3zM.6 18.8z"/><path d="M2.5 16.1L.7 18.8l3.3.5.8.1-.1-.1-2.2-3.2zM.7 18.8l1.8-2.7 2.3 3.3-2-.3-2.1-.3zm22.5 1.8l.5.9zm.4.9l-1.7-.8zm-.4-.9l-1.3.1zm-1.3.1zm1.8.8l-.4-.1.4.1zm-.4-.9h-.1zm-1.4-.2zm1.3.2l-1.3.1 1.3-.1-1.3-.2.7.1.6.1zm-3.3.4l1-.2-1 .2zm2-.3L20 21l1.9-.3v-.3l-2 .6 2-.6v.3z"/><path d="M20.8 21.8l-.9-.8h.1l1.9-.3-1 .1-1 .2.9.8zm1.1-1.1zm-1.1 1.1l.9-1zm.1-.1l1-1zm-7.6 2.4l1.4-3.6-.8 1.7-.8 1.7 1.6-3.5-1.4 3.7-.2-.1zm-.1-.1l-.1-.1zM1.9 2.1l.5.6zm0 0l1.8.5zm0 0l.4.5-.4-.5.4.1zm1.8.5l-.6.3.6-.3zM1.5.6l.1.2-.1-.2zm2.2 2z"/><path d="M2.3 2.2l-.4-.1-.2-.7.2.7 1.8.5zM1.5.7L1.9 2zm0-.1zm1.2 2.5zm-.8-1l-.4.5.4-.5zM1 3.3z"/><path d="M1.1 3.3l1.6-.2-.3-.4-.5-.6.4.5.4.5-.6.1-1 .1zm18.5 13l-1-.5 1 .5v-.1zm-.6-1l-.4.5z"/><path d="M19.4 15v-.1l-.7.8.7-.8.1.6.1.8v-.1zm0-.1zm-.8 1l-1.1.8zm1 .4l-2.1.4.7-.5-.7.5 2.1-.4-1-.4v-.1l1 .5zm-2.1.4zm-.6-2.1l1.7 1.3zm1.7 1.3zm-1.9-1.6z"/><path d="M18.7 15.7l-.1.1v.1-.1l.4-.5.4-.4-1-.2-1.7-.3.2.1-.2-.2.8.2 1.9.4z"/><path d="M18.6 15.9l-.4.3-.7.5 1.1-.8-1.7-1.3-.2-.2.4 1.3.4 1-.4-1.1-.4-1.2v-.1l.2.2 1.7 1.3v.1zm-5.6 8l-.1.5zm.3.2zm-.2.2l-.2.2zm-.3.2zm.3-.6v.1l.2.1-.1-.1-.1-.1zM4.5 6.4l.8.9zm0 0l.4.5zM6.3 6l-1.8.4zm-.7 1.6zm.8-1.7l-.8 1.7.6-1.3.2-.4zm-1.9.5h-.1zm-.3-.1zm2.2-.4l-1.9.5L6.3 6l-2.1.3.2.1-.2-.1zm-2.6 3z"/><path d="M5.3 7.3l-.8-.9-.7 2.5 1.1-.7.7-.5-.3-.4zm-.8-.9l.4.4.7.7-1 .7-.8.7.7-2.5zm0 0zm-.3-.1l-.1.3zm0 0L3.9 8l.3-1.7z"/><path d="M4.4 6.4h.1l-.7 2.5v-.1l.7-2.4h-.1l-.2-.1zm8.5 18.1l.2-.2.2-.2-.4.4.4 1zm0 0h-.1zm0 0l.4 1zM24.6 8l-.7.3.7-.3zm-1.1.4l-1.6.7zm1.2-.4zm-.1 0l-.7 2.5zm-1 2.3l-1.7-1.2zm.3.2l.3.8v.1z"/><path d="M22.7 12l.7-.3.8-.3-.2-.6.2.6zm0 0zm-.8-2.9zm.8 2.9l1.2-1.5-2-1.4.5 1.9.3 1zm-.8-2.9l1.7 1.2.3.2-1.2 1.5-.8-2.9zm-19.5.3L0 11.7zm0 0zm-.3 3H2l-2-.1zm.3-3L.9 8.5zm0 0L0 9.1zm0 0zM.8 8.5l.7.3-.7-.3-.8.3zm1.6.9L0 11.7l2.4-2.3L0 9.2v-.1zm9.2 6.8l.3-.9-.3.9zm-.1 0zm2.3-1.5l-.8-2.3zm-2.2 1.5l1.5-1-1.5 1zm1.4-3.8zM2.8 25.1l-1-.1zm0 0l.1.4zm.1 0v.4zM1.8 25zm1 .1h-.4.4zm-.8-.4l-.2.3.6.1h.4v-1.8 1.8l-1-.1zm.8-1.4zm0 0l-1 1.7zm-1.5.2l.2.6zm.5 1.5zm-.5-1.5l.8-.1.7-.1-.7.1-.8.1.3.8-.3-.8z"/><path d="M2.8 23.3L2 24.7l-.2.3zm6.1-7.9l2.6.8zm4.1-3zm0 0l-1.1 2.9-.3.9h-.1l1.5-3.8zm-4.1 3l1.9 1.8zm0 0l2.6.8-2.6-.8 1.7 1.7-1.7-1.7zm0 0l-.3-.1.3.1zm-4.3-1.3zm4.3 1.3l-2-.6zm-4.2-1.3l2.8-2 .8 1.9-.8-1.9-.3.2-2.5 1.8zm1.4 2.7l2.8-1.4-.3-.1-4-1.2 1.5 2.7zm0 0l-1.5-2.7 2.3.7 1.9.6-2.7 1.4zm2.8-1.4zm6.9-13.8l-2.9 1.1zm-2.9 1.1l2.7 1v-.3l.2-1.8-.2 2.1-2.7-1 2.9-1.1zm-.1 0zm.5 3.8l1.8-2.2zm0 0zm2.3-2.8zm0 0l-2.7-1 .4 3.8-.4-3.8zM12.3 6l.4-2.2zm.5-3.3h.1z"/><path d="M13.3 6.5l-.9-.4h-.1l1 .4-.4-3.8-.6 3.3.6-3.3zM12 6l.3.1zm.8-3.3l-1.7 2.9zm-.5 3.4zm.6-3.4h-.1z"/><path d="M12.3 6v.1l-1.2-.5 1.2.4.4-2.2.1-1.1-.3.6.4-.6zm.3-3.4l.2.1z"/><path d="M12.1 2.5l-1 3.1 1.7-2.9h.1l-.4.6-1.4 2.3.8-2.4.2-.7zm-1 3.2H11h.1zm1.7-3l-.3-.1zm4.9-2l-.6-.7zm0-.2v.2l-.2-.2.2.2.2-.7zm-1.9 1.1l.3-1.6zm1.9-.9l-1.8.8-.1.1.3-1.5-.3 1.5.6-.3zm-1.9.9z"/><path d="M17.7.7l-.6-.7.4.5zm-1.9.9L14.6.2zm0 0zm0 0L14.9.5l.9 1.1.3-1.6v.1zM4.9 0L4 1.9zM1.5.6L3.2 0zm2.2 2zM1.5.6zm2.2 2L1.6.8 1.5.6l2.2 2zM1.5.6V0v.6L3.2 0h.1zM1.9 2l-.3-.1zm-.4-.1l-.4 1.4zM1 3.3h.1zm.9-1.2zm0 0l-.8 1.2.4-.7.4-.5-.4-.2-.3.9.3-.9zm-.3-.2h-.1zm-.1 0L0 2.2z"/><path d="M1.5 1.9l-.3.9-.1.5H1l-.8-.6-.2-.2 1.1.8.4-1.4-1.5.4zm.1 0h-.1zm-.1 0L0 1.6z"/><path d="M1.5 1.9L.2 1.7l1.3.2-1.5.4v-.1zm2.2.7L4.9 0 4 1.9zm21.6 17.7l.2-1.4zm.1.7l-.1-.7zm-.1-.7l.2 1.2-.2-1.2zm0 0l.2-.1zm-1.1-1.6l1.3-1.1zm1.3-1.2l-.3.3zm-1.3 1.3l.5.6zm1.1 1.5v-.1.1-.1l.2-1.3zm-1.1 1.8l1.1-1.8.1.7.1.7v.1-.3l-.2-1.2-1.1 1.8 1 .3.3.1-.7-.2zm1.1-1.8v-.1.1zm-1.1 1.8zm1.1-1.8v-.1.1z"/><path d="M24.2 22.1l1-1.8-1.5 1.2 1.6-1.2-1.1 1.8zm-1-1.5zm1-1.9zm-1 1.9l2-.3z"/><path d="M25.3 20.3h-.1l-.5-.9-.5-.6-.5 1-.5.8.6-1 .4-.8 1.1 1.4v.1zm0 0zm-1.6 1.2z"/><path d="M25.3 20.3l-2 .4.4.9 1.6-1.3zm-.1 0l-1.6 1.2-.4-.9 2-.3zM7 24.9l-.1-1zm2.9-.6l-3.2-1.6zm-.6-.3l.6.3-.5.1-2.4.5 2.9-.6zm-2.6-2.4v1.1zm-.9-.3l.9 1.4zm0-.1l.8-.1h.1l-.4.1zM20.9 5.1l-.7-2.9.7 2.9zM20.4 3l.5 2.1zm-1.6 1.6l1.3.3.8.2-.6-.2zm0 0l1.3-2.7zm1.4-2.7L20 0zM17.7.7l1.2.6zm2.5 1.2L20 0zM17.7.7l.4.2-.4-.2 2-.7-1.7.6zm0 0zm2.4 1.2l-.6.8.6-.8z"/><path d="M18.8 4.6h-.7v-.1l.1.1h.6l1.3-2.7h.1zm-.7-.1z"/><path d="M20.2 1.9l-2.1-1-.4-.2.3 2.7.1 1.2 2.1-2.7zM17.7.7l1.2.6 1.3.6-.6.8-1.4 1.8-.5-3.8zM2.8 23.3h.3zm1.8-2.8l-1.5 2.8 1.4-2.7-.5.8-1.2 1.9 1-1.5.8-1.3zm-1.8 2.8zm.3 0zm.4.1l-.4-.1zm-.6 1.7v-.4.4zm.2-1.8l-.2 1.8zm1.2.3l-.7.8.7-.8zm0 .1l-1.4 1.4zm-1.5 1.4z"/><path d="M2.8 23.3h.3-.3l.1 1.8.2-1.8-.2 1.4v.4h-.1zM25.5 25l-.6.5zm-1.4.5v-.7zm.1-3.3v-.1l1.2 1.8.1.2-.8-1.3zm0-.1zm-.1 3.4v-1.3zm1.4-.5l-.6.5zm0-7.7l-1.8.3zm-.9.2l-1.3.2zm-.4 1.2l1-.9.3-.3v.1zm0 .1zm1.3-1.8l-1.4-1.6zm-1.7-2l-.5 2.6zm-.5 2.7v-.1l.5-2.6v.1l-.5 2.5h.4l1.8-.3-.9.2zm-.1-.1l-1.3-.5zm-3.6-1.3zm3.7 1.3l-2-.7 2 .7.5-2.6-1.2.4-3 .9 4.2-1.3-.5 2.6zM0 25.2l1.4-.1zm1.8-.2l.2.5zm-.5-1.5zm.5 1.5l-.3-.9-.2-.6.3.8.2.7-.4.1-1.4.1zM0 21.9v.1zm0 0zm1.3 1.6L0 21.9h.1l1.2 1.6L0 24.6zM0 21.9v.1zm5.2 3.3l1.8-.3zm0-.1l1-1.6-1 1.6zm0 .1l1.1-1.9zm1.5-2.5l.3 2.2-.1-1zm-1.5 2.5l.2.3zm1.8-.3zm-1.8.3l1.8-.3-1.8.3.2.3zm0 0v.3zm0-.1v.1-.1z"/><path d="M5.2 25.2l.2.3-.2-.3.1.3zm0 0l-.4.3z"/><path d="M5.2 25.2l.1.3h-.1zm4.7-.9l.8 1.2zm0 0v.1l-.5 1.1zm-5.5-1.5l1.4-.1zm0-.1l.8-.8zm1.4-1.5l-1.4 1.5zm0 0l.9 1.5-.9-1.4zm0 0zm-1.5 2.4l.1-.6-.1.6zm0 0l.9-.3-.9.3v-.1zm.1-.8v-.1h2.3-.9zm.2-2.3l-.2 2.3zm0 0z"/><path d="M5.8 21.2v.1l-.6.6-.8.8v.1-.1l.1-1.5-.1 1.5 1.4-1.5-1.2-.7z"/><path d="M4.6 20.5l-.1.7-.1 1.5-.5.2.5-.1.2-2.3-1.5 2.8zm-1.5 2.8l.4-.2zm0 0zm1.3-.5z"/><path d="M3.1 23.3l1.2.4v-.2l.1-.7-.5.2-.8.3zm1.2.3l-.8-.2-.4-.1.4-.2.9-.3v.2l-.1.6zm12.3-4.9zm0 0l-.7-2zm.9-2l-.8-.2-1-.2.8.2 1 .2-.8 1.9zm0 0zm-.9 2l-.5-.3z"/><path d="M15.3 17.2l-.3.6 1.6.9-.7-2-.2-.4.9 2.4-1.6-.9zm.4-.9l-.7 1.5zm0 0zm1 2.4z"/><path d="M14.7 20.4l.1-.6.2-2 1.6.9-1.2 1.1 1.2-1.1-.5-.3-1.1-.6-.1.7-.2 1.9zm1.9-1.7l-1.9 1.7 1.9-1.7zM6.9.8L6.3.4l1-.4-1 .4zm1 .7L8.8 0zM6.3.4zm0 0l.9.7-.9-.7zm0 0l.2-.4z"/><path d="M6.3.4V.3v.1l1-.4zm0 0v.2zm0 0l-.1 1.4.1-1.4zm1.6 1.1L6.1 2.8l1.8-1.3-.7-.4-.9-.7.6.4 1 .7z"/><path d="M6.3.4l.2-.4-.2.3zM4.7 2.3h.1-.1zm0 0L6.2.4zm1.4.5zM6.3.4v.2l-.2 2.2.1-1L6.3.4 6 .7zm0 0zm0 0L6.2 0zm0 0zM4.7 2.3z"/><path d="M6.3.4L6 .7 4.7 2.3 5.1 0l-.4 2.3L6.2.4h.1L5.9 0zm14.5 22zm.1-.6l-.1.6zm-.1.6l-.2-.1.2.1zm-.1-.5l.1-.1v.3-.3l-.2.2-.2.2zm-.3.3h-.1zm0 1.5v-1.5l.2.1.2.1-.4-.2v1.5zm.4-1.3l-.1.4.1-.4zm4.7-13.2l-.4-.5zm0 .7l-.2.1zM24.6 8l-.7 2.5zm-.7 2.5zm0 0l.3.9-.2-.6-.1-.3 1.4-.5.2-.1v.1zM13 23.9l-1.5-1.4zm-2.6-3.1l.2-.2zm0 .1l.2-.3zm2.6 3l-1.8-2.5-.6-.8v-.1l1.8 2.5.6.9h.1l-.7-.5z"/><path d="M10.6 20.5l-2.3.4 2.3-.4zm-.5.8l-1.3-.1 1.3.1zm-3.4-.2l1.4-.2zm0 0l3.4.2zm3.9-.5l-.2.3-.2.4.2-.5zm-.4.7l-.1 1.3.1-1.3zm0 0l-.2 1.5.2-1.5zM9.3 24l-2.6-1.3 2.6-1.1-2.6 1.1 3.2 1.6zm.9-2.7z"/><path d="M6.7 22.7v-1.6l2.1.1 1.3.1h.1l-.9.3-2.6 1.1 3.4-1.4-3.4-.2v1.6zm3.5-1.4zM21.9 9.1zm0 0l2-.8.7-.3-2.7.1 2.7-.1-1.1.4-1.6.7zm1.4-3.3zm-1.4 2.3l1.4-2.3zm0 0L21 5.2zm-1-3h.1l1.8.6.5.1-.8-.2zm0 0z"/><path d="M21.8 8.1h.1l-.8.6zm.1 0l-.6.5zm-.8.6z"/><path d="M21.9 9.1l-.8-.4.8.4v-1 1z"/><path d="M21.1 8.7l.2-.1.6-.5-.9.5.1.1zm.8-.6l-.7.6-.2-.1.9-.5zm-.9.5zm-.1-3.5v3.5l.9-.5-.9-3zm0 0l1 3-.9.5V6.2l-.1-1.1zm-9 1.3l.1.1zm-.2-.1zm.1 0l.2.2zm.5-.2V6zm-.3.4l.3-.4zm.3-.4l-.3.1zm-1.2-.4l.5.5zm1.2.4l-.5.2.2-.1.3-.1L12 6l-.9-.3.6.6-.6-.7zM11 5.6h.1zm1 .9l-.1.8-.4 2.1v-.2l.5-2.7-.1-.1-.1-.1zm-.3-.2l-.2 3.1zM8 9.3l1.3.1zm0 0z"/><path d="M11.8 6.3l-.3 3.1.2-3.1-1.5 1.2zm0 0h-.1.1z"/><path d="M11.1 5.6L8 9.3l2.2-1.8 1.5-1.2-.6-.7zM8 9.3l1.7-2L11 5.7l.5.5.1.1-3.6 3zm-6.6-8zm0 0l.4.6zm0 0l.1.5.4.2-.5-.7zm0 0l.5.7-.3-.1-.2-.6zm.5.8zm-.4-.2l-.1-.6zm0-1.2l-.1.6z"/><path d="M1.5.6l.2.8.2.7-.5-.8.4.6.1.1L1.5.7l-.1.5.1-.6zm0 0zM0 1.6l1.4-.3-1.4.3zm0 0h.2l1.3.2-.1-.5-1.4.3zm1.4-.3l.1.6L0 1.6l1.4-.3z"/><path d="M1.4.6L0 1.6l1.4-.3V.6zm0 .7L0 1.6l1.4-1v.7zm20.2 17zm2.6.5zm0-.1l-.9-1-1.2.4 1.2-.4.9 1zm-.9-1.1zM21.4 19l.2-.7-.2.7zm2.8-.2l-2.8.2 2.6-.2.2-.1-2.6-.4 2.6.4v.1zm-4.6-2.5v-.1.1z"/><path d="M22.1 18.1l-.5.2 1.6-.7-1.3-.5-2.3-.8 1.7.6 2 .7v.1zm-1.9 1.1l.5-.3-.4.3 1.1-.2.2-.7-.2.7zm1.4-.9l-1.4.9zm0 0z"/><path d="M21.6 18.3l-2-2 .2 1 .4 2 .5-.3.9-.7zm-2-2l2 2-1.4.9-.5-2.5-.1-.4zm-19 2.5l-.3-2.7zm0 0zm1.9-2.7zM.7 18.8l-.3-1.6.2 1.6 1.9-2.7zm-.6-3l.2.3zm.2.3l-.3-.5zm2.2 0H.3h2.2l-1.2-.6-1.3-.6zm-2.2 0l-.3.5z"/><path d="M.6 18.8l-.3-2.7.1 1.1.3 1.6H.6l-.5-.4-.1-.1zm-.3-2.7zm0 0zm0 0H0h.3l-.3-.5.1.2z"/><path d="M.3 16.1l-.3.5.3-.5H0zm3.5-7.3v.1l-1.6-.3 1.6.3.1-.9.3-1.7-.7.8.7-.8-.1.3zm.4-2.5l-2 2.3zm-1.3-.9l-.7 3.2zm-.7 3.2z"/><path d="M2.9 5.4l-.7 3.2 1.3-1.5.7-.8-1.3-.9zm0 0l1.2.9-2 2.3.8-3.2zm1.3.9zm-.4 2.6z"/><path d="M2.2 8.6l.2.8 1.4-.5-1.6-.3zm0 0l1.6.2-1.4.6-.2-.8zm0 0l.1.4zm0 0l-.6-.5z"/><path d="M1.8 6.4l1.1-1-.7 3.2-.2-.1.2.1.7-3.2-2.2 2 .1-.1zM.9 8.5h.5zm-.1 0z"/><path d="M.9 8.5l1.5.9-.1-.4-.1-.4-1-.1 1 .1.2.8-.9-.6-.7-.3zm1.3.1z"/><path d="M.7 7.4L2 8.5l.2.1-1-.1H.8L.7 7.4l.2 1.1h.5l.8.1-.6-.5-.9-.7zm24.8.5zm0 0zm0 0h-.1zm-.7.1h-.1zm.7-.1V8zm-.8.1h.2-.2l.4.7.4.5zm.8 4.3l-.7-.5zm-1.3-.9zm0 0l1.3-1.2-1.3 1.2 1.3.9zm-.4 3.7V15l1.7 1.9v.1l-1.4-1.6zm0-.1z"/><path d="M24 13.5l.2-2.1 1.3.9-.7-.5-.6-.4-.2 2.1 1.5-.4z"/><path d="M23.8 15l.2-1.2v-.3l1.5-.4-1.5.4-.1.7-.1.8 1.7-1.5v.1zm.1-8.9l-1.7 1.7 1.7-1.7zm.7 1.9L24 6.1zm0 0l-2.7.1 2.7-.1zm-2.7.1zm2.8-.1zm-1-2.9l.2 1zm-.4.7l.3.2zm0 0l.4-.8v.1h-.1l-.3.7zm-1.4 2.3l2-2-.7-.3-1.3 2.3zM23.6 6l.4.1-1.7 1.7-.3.3 1.3-2.3.3.2zM4.7 24.8l1.1-1.2zm2-2.1l-2 2.1zm-.5.8l.5-.8-.4.6-1.1 1.9v-.1zm-1 1.7L5 25zm0 0zm1.5-2.5l.1-.1-.1.1zm-2.4 1l.4 1.1zm0-.1zm2.4-.9l-2.4.9.9-.3 1.5-.6-.9.9-1.1 1.2zm-2 2.1l-.5.7z"/><path d="M5.2 25.2L5 25l-.3-.2.5.3v.1l-.3.3h-.1zm-2.3-.1l1.1-.2zm-.1 0zm.1 0l.7-.7.7-.8.4 1.2-1.2.2 1.2-.2-.4-1.1-1.4 1.4h-.1zm1.8-.3z"/><path d="M2.8 25.1h.1l.6-.1 1.2-.2-.5.7.5-.7-.7.1-1.1.2v.4zM.7 7.4l-.7-2zM0 5.3v.1zm.4-1.2l.2 2.2.1 1.1v-.1L.5 5.1l-.1-1L0 4zm0 0zm.3 3.3z"/><path d="M.7 7.3v.1-.1L0 7l.2.1.5.3-.7-2v-.1.1zM.4 4.1L0 4l.4.1-.1-.3L0 3zm25.1 3.8zm0 0v.2zM12.2 24.6l.3.9zm0 0l.3.9zm0 0h.3zm.6-.1h.1l.1 1zm-.6.1zm-.7.9l.4-.6zm.7-.9l.3.9zm-.1 0zm1-.7z"/><path d="M12.2 24.6l.7-.1.2-.5-.9.6zm.8-.7l-.2.5v.1l-.3.1-.4.1.9-.8z"/><path d="M10.2 21.3l2.2 2.1.7.5-.9.7-2-3.2 2 3.2.8-.7-1.5-1.4-1.3-1.2zm-.1 0h.1z"/><path d="M9.9 24.3l2.3.3-.7.9.4-.6.2-.3-2.2-.3.8 1.2-.8-1.1zm0 0zm2.3.3z"/><path d="M9.9 24.3l2.3.3-1.9-3.2-.1-.1-.2 1.5-.1 1.5zm.2-1.7l.1-1.3 2 3.3-2.2-.3.1-1.7zm6.8 2.4l.3.5zm0 0l.2.5zm3.4-1.3h.1l-.6 1.8.2-.7zm.1 0zm-3.3-.1zm-.1.1l-.1 1.2z"/><path d="M16.9 25v-.1l3.4-1.2h-3.2v-.1l3.2.1h.1L16.9 25zm-.1.5l.1-.3zm.1-.5l.3.5h-.1zm0 0v.2l-.1.3zm0-.1zm0 .1l-.3.5zm0-.1v.1zm0 .1l-3.5-.9zm0 0l-.6.5zm-3.6-.9l1 .2-1-.2.4 1.4zm0 0zm3.6.9zm-.3-1.3z"/><path d="M17.1 23.6H17h.1l.5-.7.6-.8V22l-.7 1.1-.4.5zm-1.5-1.5l1 1.6zm-.9-1.7z"/><path d="M18.2 22v.1l-1.6 1.6-1.2-2.1 1.2 2.1zm-3.5-1.6l2.2 1zm2.2 4.6z"/><path d="M16.6 23.7l.4-.1h.1v.1l-.2 1.2v.1l-.3-1.3.3 1.2.1-1.2h-.4zm-3.3.4l3.2-.4zm0 0z"/><path d="M13.3 24.1l1 .2 2.6.6-.3-1.2-3.3.4zm.1 0l3.2-.4.3 1.2-3.5-.8zm3.2-.4zm-1.9-3.3z"/><path d="M13.3 24.1l3.2-.4-1.2-2.2-.6-1.1-1.4 3.7zm3.3-.4l-3.2.4 1.4-3.7.9 1.6.9 1.7zm8.1-17.9l.8-1.3zm0 0h.8zm0 .1l.8-.1zm.8 2l-.8-2zm0 0zm0 0zm-.8-2v-.1h.8zm-1-.9l1 .9zm0 0l1 .8-1-.8.9-.4.9-.5v.1l-1.5.7z"/><path d="M24.7 5.8v.1-.1l.8-1.3zM24.6 8zm.1 0h.1l.7-.1-.8-2 .8 2h-.1l-.5.1h-.2zm0-2.2zM24.6 8L24 6.1h-.1.2-.1l.6 1.9.1-2.1V8h-.1zm-.7-1.9zm.8-.3zm-1-.8z"/><path d="M24.7 5.9l-1-.9.3 1h.1l.6-.1zm0 0l-.7.2-.3-1 1 .8zm-21.1-3l2.5-.1zm1.1-.6l-1.1.6zm-1.1.6h.9zm2.5-.1zm0 0l-1.4-.5-.7.4.7-.4h.1l1.3.5zm-1.4-.5zm-1.2.6zm.7 3.4l-.2-1zm0 0zm1.9-3.5L4.9 5l-.7 1.3 1.9-3.5-2.5.1h.9l1.6-.1zm-2.4-.2l-.1.2.1-.2z"/><path d="M4.8 2.3l-1.1.3-.1.3.4-.2.8-.4zm-1.1.3l1-.3-1.1.6.1-.3zm0 0zm-.2.3zm-.1.7l.1-.7zm-.5 1.8z"/><path d="M3.6 2.9l.6 3.4-1.3-.9 1.3.9-.2-1-.5-2.4h.1zm-.9.2h-.1.1z"/><path d="M3.6 2.9h-.2.1l.1-.1.1-.2-1 .5.4-.2.6-.3zm-.1 0l-1.1.7z"/><path d="M2.9 5.4l.6-2.5-1.1.7.4 1.4.1.4zm.6-2.5l-.1.7-.5 1.8-.5-1.8 1.1-.7zm-1.1.7zm1.1-.7h.1z"/><path d="M3.6 2.9h-.2l-.7.2v.1l-.3.4 1.2-.7zm-1.2.7l.3-.5.8-.2-1.1.7zm19 18.9l1.1 1.5zm.1 0l2.2-.3zm2.2 3l-.9-1.2zm.5-3.4v.1l-.1 2.6v.7-1.3zm0 0zm-2.8.4zm2.3-1zm-2.3 1l1.3-.5-1.2.5 2.2-.3.5-.1-.5-.6.5.6zm0 0zm.7 3l-.5-2.1zm0 0l-.2-.9zm-.7-3l1.4 1.8.9 1.2-1.2-1.5zm.5-1.8l-.5 1.8zm0 0z"/><path d="M21.4 22.5l1.2-.5 1-.4-1.7-.8-.5 1.7zm1.9-1.1l.3.1-2.2 1 .4-1.8 1.5.7zm-1.9 1.1l.2.9.5 2.1-.2-.9zm-1 1.2l1.2 1.8v-.1zm0 0l.3-.4zm0 0zm.4-1.9zm.6.7z"/><path d="M21.3 22.3l.1.2.5-1.8-1 1v.1h-.1l.9-1 .2-.1-.5 1.8zm-.5.1l.6.1z"/><path d="M20.8 22.4l.6.1-.1-.2-.4-.5v.3l-.1.3zm0 0v-.6l.6.7-.6-.1zm.6.1z"/><path d="M20.4 23.7l1.1-1.2-.6-.1-.5 1.3zm0 0l.3-.8.2-.4.6.1-.7.8-.4.3zm-1.9-3.9l.3-.1zm1.7-.6l-1 .4zm-.3 1.8l.1-.6.2-1.2zm0 0zm.3-1.8zm-2.7-2.5zm0 0z"/><path d="M18.5 19.8l.7-.2 1-.4-2.7-2.5 1.6 1.4 1.1 1.1-1.4.5-.3.1zm0 0v.2z"/><path d="M19.9 21l-.5.3-1.2.7.5-.3 1.2-.7-1.4-1.2zm-1.7 1zm.3-2.2l-1.8.3zm-3.8.6z"/><path d="M18.3 19.8l-3.6.6 3.5 1.6.3-2v-.2l-.3 2.2-1.3-.6-2.2-1zm.2 0zm-1.9-1.1l.9.5zm0 0l.1-.1.8-1.9 1 3.1-1-3.1-.8 2 .8.5-.9-.5zm1.9 1.1z"/><path d="M14.7 20.4l3.6-.6h.2l-1-.6-.8-.5-1.2 1.1-.8.6zm3.8-.6l-1.8.3-2 .3 1.9-1.7.8.5 1.1.6zM9.4 1.4l.6.2-.6-.2zM11.1 0l.7 1.7zM9.4 1.3v.1l.3.1-.3-.1zm2.7 1.2zm-3.5.6zm3.5-.6l-3.5.6 3.5-.6-2.1-.9-.6-.2.3.1 2.4 1zM9.4 1.4V1z"/><path d="M9.4 1.4l.9-1.4-.9 1.3zm-1.5.1L8.8 0zm0 0l1.5-.1zm0 0zm1.5-.1z"/><path d="M9.4 1.4L8 1.5l1.4-.1V1l-.1-1z"/><path d="M9.4 1.4L8 1.5h-.1L8.6 3l.8-1.6zm0 0l-.8 1.7-.5-1.2-.2-.4 1.5-.1zm2.9 18.3h-.9.9zm-1.3 0h.7-.7zm0 0l-.4.8zm1.3 0zm-1.7.9zm.2-.4l-.2.3 1.3-.6.4-.2-1.7.8v.1-.1zm2.4-4.5zm0 0l1.3.3zm.7.9l-.7-.9zm1.1 1.2l-1.8-2.1zm.7-1.5zm-.7 1.5zm0 0l.7-1.5-1.1-.2 1.1.2-.4.9-.3.6zm-1.8-2.1l.3-.5zm.6-.9l-.3.5.3-.5zm0-.1z"/><path d="M14.5 16l1.2.3-1.9-1.5 1.5 1.2.4.3-1.1-.2-1.4-.4zm-2.9 2l.6-.9-.6.9z"/><path d="M15 17.8l-1-1.2-.8-.9-1.6 2.3 3.4-.2zm-1.8-2.1l1.8 2.1-3.4.2 1.6-2.3zm-1.6.5l.8-.2-.8.2zm0 0l2.2-1.4v-.1.1l-.3.4-.3.5.3-.4.3-.5-.7.4-1.5 1 .8-.3-.9.3zm-.1 0zm1.7-.5zM11.6 18z"/><path d="M11.5 16.2V18l1.6-2.2-.8.2-.8.2zm.7.9l-.6.9v-1.8l.8-.2.8-.2-1 1.3zm-8.8-6.3l1 2.6zm2.1.3zm0 0l-.8 3h-.1l.2-.6.7-2.4-2.1-.3.7 1.7-.7-1.7zm-.9 3z"/><path d="M3.6 9.9l-.2.9 2.1.3-1.7-2.2 1.7 2.2-2.1-.3zm.2-1l-.3 1.3zm0 0zm-1.7 3.5l1.3-1.6zm0 0zm2 .1l.5 1.6h.1-.1l-2.5-1.7L4 13.7l.6.4-.2-.7-1-2.6zm-1.7-3l1 1.3z"/><path d="M3.8 8.9l-.2 1-.2.9.1-.6.3-1.3-1.4.5.3.4-.3-.4zm-1.4.5zm1 1.4z"/><path d="M2.4 9.4l-.3 3 1.3-1.5-.7-1-.3-.5zm1 1.4l-1.3 1.5.3-3v.1l1 1.4zm9.6 1.6l-2.9-.6zm0 0zm-1.3-2.6l1.3 2.6-2.2-.4 2.2.4-.2-.4-1.3-2.5-3.2 2 3.2-2.1zm-.2-.4zm-3.2 2.1l.4 2.9-.4-2.9zm.6 3.9z"/><path d="M8.9 15.4l4.1-3-2.9-.6-1.8-.3 2.5.5 2.2.4-4.1 3zm-.9-6l.3 2.1zm3.5 0l-3.2 2.1 3.2-2.1H9.3L8 9.3l.3 1.7L8 9.3zM8 9.3zm.9 6.1z"/><path d="M7.5 12.1l1.4 3.3-.2-1-.4-2.9-.7.5.7-.5.6 3.9-.6-1.4zm0 0zm.8-.6h-.5z"/><path d="M8.3 11v.5L8 9.4l-.2 2.1h-.1l.2-1.7.1-.5zm0 .5zm0 0h-.6l-.3.6.2-.1.7-.5zm0 0l-.8.6.3-.6h.5zm4 8.2l-.4-1-.3-.7-.2.2.2-.2.1.2.6 1.5-1.4-.8zm0 0zm-.7-1.7z"/><path d="M12.3 19.7H11h1.3l-1.4-.8zm-3.4-4.3zm2 3.5l-.9-1.7.9 1.7zm-2-3.5l.5.9zm2 3.5l.7-.9-.8-.8-1.9-1.8 1.7 1.7 1 .9-.2.2-.5.7zm0-.1v.1zm-.3 1.8z"/><path d="M10.9 18.9l.1.8-.2.5-.2.3.4-.8-.1-.8zm-2.6 1.3l-1.6.9zm-1.6.9z"/><path d="M6.7 21.1l1.4-.2 2.5-.3v-.1l.3-1.6-4.2 2.2zm4.2-2.2l-.3 1.7-2.2.3-1.6.2 4.1-2.2zm0 0zm0 0l-2.7-1.2zm-4.8-2.1zm4.8 2.1z"/><path d="M8.9 15.4l-2.8 1.4 4.8 2.1-.9-1.7-1.1-1.8zm-2.8 1.4l2.8-1.4.5.9 1.5 2.6-4.8-2.1z"/><path d="M6.1 16.8l.6 4.3 4.2-2.2-4.8-2.1zm.6 4.3l-.1-.5-.5-3.8 2.1.9 2.6 1.2-2.5 1.3-1.6.9zm8.5-13.6l2.1-1.7zm0 0l.6.3zm2.1-1.7l-.1.5-.7 1.7-.4-.2.4.2.8-2.2-2.1 1.7zm0 0zm-2.1 1.7zm.4-3.8l-.2 2.1.2-2.1z"/><path d="M17.3 5.8l-2.1 1.7.2-1.6-.2 1.6 2.1-1.7L16 4.2l-.4-.5.3.4 1.4 1.7zm-1.7-2.1z"/><path d="M15.2 7.5l1.7 1.7-.4-1.2-.5-.2-.8-.3zm0 0l.6.2.7.3.4 1.2-1.7-1.7z"/><path d="M16.9 9.2L15 7.5l1.8 1.6-1.6-1.6zm-1.3-5.5l-.2 2.2-.2 1.6.2-1.7.2-2.1-2.3 2.8 1.8-2.2.5-.6zm-.4 3.8l-.7-.3zm0 0z"/><path d="M13.3 6.5l1.7 1h.2l-1.9-1zm.2.1l1.1.6.6.4H15l-.1-.1-1.4-.9zM14 .9l.2-.9zm1.8.7zM14 .9l.2-.9zm1.8.7l-.9-.4.9.4L14.6.2l-.1-.2.4.5z"/><path d="M15.8 1.6l-2.9 1.1L14 .9l-1.1 1.8 2.9-1.1L14 .9l.9.3.9.4zm-3 1.1h.1zM14 .9L12.2 0zm0 0L12.2 0l1.8.9.2-.9zm0 0zm-1.9 1.6zM14 .9zm0 0l-1.9 1.6z"/><path d="M14 .9l-1.1 1.8h-.1l-.2-.1-.5-.1.4.1.3.1h.1L14 .9l-.5.4z"/><path d="M14 .9l-.5.4-1.4 1.2-.3-.8-.7-1.7 1 2.5L14 .9 12.2 0zM24.1.1l-.6 1zm-.6 1l.8-1.1zm1.6 1.2l-1.4-1 1.3 1 .2-2.3zm0 0zm-1.6-1.2l-.1-.3zm0 0L23.3 0zm0 0l.6-1 .1-.1h.1zm.2 4V5v.1z"/><path d="M23.7 5l-.2-2.7.2 2.7.9-1.8.4-.9-1.5-1.2.2.2 1.4 1L23.7 5zm-2.8.1zm2.6-4z"/><path d="M23.7 5l-1.2.1h-1.6l2-3.1-2 3.1L23 5h.7l-.2-3.9v1.2l.2 2.7zm-.2-3.9zm0 0L20.4 0l3.1 1.1-.1-.3-.2-.8h.1zm-.1 0l-3.2.8zm-3.3.8zm3.4-.8z"/><path d="M23.5 1.1l-.6.9-2 3.1-.5-2.1-.2-1.1 1.3-.3-1.3.3v.3l.7 2.9 2.6-4z"/><path d="M23.5 1.1l-2 .5-1.3.3L20 0l.2 1.9 3.2-.8L20.3 0h.1zM7 24.9l1 .6-1-.6v.6zm0 0zm0 0v.6-.6l-.5.6zM16.4 8c0 .1.1.2.2.2s.2-.1.2-.2-.1-.2-.2-.2c-.2.1-.2.1-.2.2z"/><path d="M20 1.9c0 .1.1.1.2.1s.2-.1.2-.2-.1-.2-.2-.2c-.1.1-.2.2-.2.3zm-4.4-.3c0 .1.1.2.2.2s.2-.1.2-.2-.1-.2-.2-.2-.2.1-.2.2zm6.1 18.8c0 .1.1.2.2.2s.2-.1.2-.2-.1-.2-.2-.2-.2.1-.2.2zm-8.8 3.4c0 .1.1.2.2.2s.2-.1.2-.2-.1-.2-.2-.2c-.2 0-.2.1-.2.2zm-6.3-2.7c0 .1.1.2.2.2s.2-.1.2-.2-.1-.2-.2-.2-.2.1-.2.2zm-1.9-1.7c0 .1.1.2.2.2s.2-.1.2-.2-.1-.2-.2-.2c-.2 0-.2.1-.2.2zm14.8-3.2c0 .1.1.2.2.2s.2-.1.2-.2-.1-.2-.2-.2c-.2.1-.2.2-.2.2zm-7.9-9.9c0 .1.1.2.2.2s.2-.1.2-.2-.1-.2-.2-.2-.2.1-.2.2zM8.2 4.5c0 .1.1.2.2.2s.2-.1.2-.2-.1-.2-.2-.2c-.2 0-.2.1-.2.2zm14.3 7.4c0 .1.1.2.2.2s.2-.1.2-.2-.1-.2-.2-.2l-.2.2zm-7 4.4c0 .1.1.2.2.2s.2-.1.2-.2-.1-.2-.2-.2c-.1.1-.2.1-.2.2zm-2.7-3.9c0 .1.1.2.2.2s.2-.1.2-.2-.1-.2-.2-.2-.2.1-.2.2zM6 16.8c0 .1.1.2.2.2s.2-.1.2-.2-.1-.2-.2-.2c-.2 0-.2.1-.2.2zM23.6 5.1c0 .1.1.2.2.2s.2-.1.2-.2-.1-.2-.2-.2c-.2 0-.2.1-.2.2zm0 10c0 .1.1.2.2.2s.2-.1.2-.2-.1-.1-.2-.1c-.1-.1-.2 0-.2.1zM6.3 11.8c0 .1.1.2.2.2s.2-.1.2-.2-.1-.2-.2-.2-.2.1-.2.2zm6.9-5.3c0 .1.1.2.2.2s.2-.1.2-.2-.1-.2-.2-.2-.2.1-.2.2zm8.5 1.6c0 .1.1.2.2.2s.2-.1.2-.2-.1-.2-.2-.2-.2.1-.2.2zM.8 3.3c0 .1.1.2.2.2s.2-.1.2-.2-.1-.2-.2-.2-.2.1-.2.2zm3.2 3c0 .1.1.2.2.2s.2-.1.2-.2-.1-.2-.2-.2-.2.1-.2.2zm20 5.1c0 .1.1.2.2.2s.2-.1.2-.2-.1-.2-.2-.2-.2.1-.2.2zM7.8 9.3c0 .1.1.2.2.2s.2-.1.2-.2c.1-.1 0-.3-.2-.3-.1 0-.2.2-.2.3zm-5.9 3.1c0 .1.1.2.2.2s.2-.1.2-.2-.1-.2-.2-.2-.2.1-.2.2zm3.4-1.3c0 .1.1.2.2.2s.2-.1.2-.2-.1-.2-.2-.2c-.1-.1-.2 0-.2.2zm4.4 13.2c0 .1.1.2.2.2s.2-.1.2-.2-.1-.2-.2-.2-.2.1-.2.2zm-7.1-1c0 .1.1.2.2.2s.2-.1.2-.2-.1-.2-.2-.2-.2.1-.2.2zM17.9 4.5c0 .1.1.2.2.2s.2-.1.2-.2-.1-.2-.2-.2-.2.1-.2.2zm2.3 4.7c0 .1.1.2.2.2s.2-.1.2-.2-.1-.2-.2-.2-.2.1-.2.2zM3.5 2.6c0 .1.1.2.2.2s.2-.1.2-.2-.1-.3-.2-.3-.2.1-.2.3zM17.4.7c0 .1.1.2.2.2s.2-.1.2-.2-.1-.2-.2-.2c-.1-.1-.2 0-.2.2zM2.2 16.1c0 .1.1.2.2.2s.2-.1.2-.2-.1-.2-.2-.2c0-.1-.2 0-.2.2zm15.5-6.6c0 .1.1.2.2.2s.2-.1.2-.2-.1-.2-.2-.2-.2.1-.2.2zm-10-8c0 .1.1.2.2.2s.1-.1.1-.2 0-.1-.1-.1-.2 0-.2.1zm12 19.5c0 .1.1.2.2.2s.2-.1.2-.2-.1-.2-.2-.2-.2.1-.2.2zm-5.2-.6c0 .1.1.2.2.2s.2-.1.2-.2-.1-.2-.2-.2-.2.1-.2.2zm-4.6.9c0 .1.1.2.2.2s.2-.1.2-.2-.1-.2-.2-.2-.2.1-.2.2zm-5.6-.7c0 .1.1.2.2.2s.2-.1.2-.2-.1-.2-.2-.2-.2.1-.2.2zm7-4.4c0 .1.1.2.2.2s.2-.1.2-.2-.1-.2-.2-.2c-.1-.1-.2 0-.2.2zm11.8 1.5c0 .1.1.2.2.2s.2-.1.2-.2-.1-.2-.2-.2-.2.1-.2.2zM20.7 5c0 .1.1.2.2.2s.2-.1.2-.2-.1-.2-.2-.2c-.1-.1-.2 0-.2.2zM1.2.6c0 .1.1.2.2.2s.2-.1.2-.2-.1-.2-.2-.2-.2.1-.2.2zM24 22.1c0 .1.1.2.2.2s.2-.1.2-.2-.1-.2-.2-.2c-.1-.1-.2.1-.2.2zM15.4 3.7c0 .1.1.1.1.1.1 0 .1-.1.1-.1 0-.1-.1-.1-.1-.1 0-.1-.1 0-.1.1zM9.2 1.4c0 .1.1.1.1.1.1 0 .1-.1.1-.1 0-.1-.1-.1-.1-.1 0-.1-.1 0-.1.1zm2.2 8c0 .1.1.1.1.1.1 0 .1-.1.1-.1 0-.1-.1-.1-.1-.1-.1 0-.1.1-.1.1zm5.1 4.9c0 .1.1.2.2.2s.2-.1.2-.2-.1-.2-.2-.2-.2.1-.2.2zM24.4 8c0 .1.1.2.2.2s.2-.1.2-.2-.1-.2-.2-.2-.2.1-.2.2zm-.7-1.9c0 .1.1.2.2.2s.2-.1.2-.2-.1-.2-.2-.2-.2.1-.2.2zm-9 1.4c0 .1.1.2.2.2s.2-.1.2-.2-.1-.2-.2-.2-.2.1-.2.2zm-2.1-4.8c0 .1.1.2.2.2s.2-.1.2-.2-.1-.2-.2-.2-.2.1-.2.2zm11 7.8c0 .1.1.2.2.2s.2-.1.2-.2-.1-.2-.2-.2-.2.1-.2.2zm-2.2 7.9c0 .1.1.2.2.2s.2-.1.2-.2-.1-.2-.2-.2c-.1-.1-.2 0-.2.2zm1.8-17.3c0 .1.1.2.2.2s.2-.1.2-.2-.1-.2-.2-.2c-.1-.1-.2 0-.2.2zM6.1.4c0 .1.1.2.2.2s.2-.1.2-.2-.1-.2-.2-.2-.2.1-.2.2zM8.4 3c0 .1.1.2.2.2s.2-.1.2-.2-.1-.2-.2-.2c-.1-.1-.2 0-.2.2zm2.3 15.9c0 .1.1.2.2.2s.2-.1.2-.2-.1-.2-.2-.2c-.1-.1-.2 0-.2.2zm-4.2 3.8c0 .1.1.2.2.2s.2-.1.2-.2-.1-.2-.2-.2c-.1-.1-.2 0-.2.2zM5.4 7.6c0 .1.1.2.2.2s.2-.1.2-.2-.1-.2-.2-.2-.2.1-.2.2zm-1 6.5c0 .1.1.2.2.2s.2-.1.2-.2-.1-.2-.2-.2-.2.1-.2.2zm-4 4.7c0 .1.1.2.2.2s.2-.1.2-.2-.1-.2-.2-.2-.2.1-.2.2zm19.7 4.9c0 .1.1.2.2.2s.2-.1.2-.2-.1-.2-.2-.2-.2.1-.2.2zM2.2 9.4c0 .1.1.2.2.2s.2-.1.2-.2-.1-.2-.2-.2-.2.1-.2.2zm4-3.5c0 .1.1.2.2.2s.2-.1.2-.2-.1-.2-.2-.2l-.2.2zm-3.4-.6c0 .1.1.2.2.2s.2-.1.2-.2-.1-.2-.2-.2c-.2 0-.2.1-.2.2zm16.5 9.6c0 .1.1.2.2.2s.2-.1.2-.2-.1-.2-.2-.2-.2.1-.2.2zm3.8 5.7c0 .1.1.2.2.2s.2-.1.2-.2-.1-.2-.2-.2c-.2.1-.2.1-.2.2zm-5.7-3.9c0 .1.1.2.2.2s.2-.1.2-.2-.1-.2-.2-.2-.2.1-.2.2zm-.6-7.5c0 .1.1.2.2.2s.2-.1.2-.2-.1-.2-.2-.2c-.2.1-.2.2-.2.2zm-8 6.2c0 .1.1.2.2.2s.2-.1.2-.2-.1-.2-.2-.2c-.2.1-.2.1-.2.2zM18 22c0 .1.1.2.2.2s.2-.1.2-.2-.1-.2-.2-.2c-.1.1-.2.1-.2.2zm3.3.4c0 .1.1.2.2.2s.2-.1.2-.2-.1-.2-.2-.2c-.1.1-.2.1-.2.2zm-4.9 1.3c0 .1.1.2.2.2s.2-.1.2-.2-.1-.2-.2-.2-.2.1-.2.2zM5.9 2.8c0 .1.1.2.2.2s.2-.1.2-.2-.1-.2-.2-.2c-.1.1-.2.1-.2.2z"/></g><defs><filter id="Adobe_OpacityMaskFilter_1_" filterUnits="userSpaceOnUse" x="0" y="0" width="25.5" height="25.5"><feColorMatrix values="1 0 0 0 0 0 1 0 0 0 0 0 1 0 0 0 0 0 1 0"/></filter></defs><mask maskUnits="userSpaceOnUse" x="0" y="0" width="25.5" height="25.5" id="SVGID_3_"><g filter="url(#Adobe_OpacityMaskFilter_1_)"><linearGradient id="SVGID_4_" gradientUnits="userSpaceOnUse" x1="-830.326" y1="668.466" x2="-803.926" y2="668.466" gradientTransform="rotate(-90 -730.059 -74.143)"><stop offset=".191"/><stop offset=".241" stop-color="#1f1f1f"/><stop offset=".35" stop-color="#6d6d6d"/><stop offset=".511" stop-color="#e9e9e9"/><stop offset=".538" stop-color="#fff"/><stop offset=".55" stop-color="#f0f0f0"/><stop offset=".608" stop-color="#a8a8a8"/><stop offset=".662" stop-color="#6c6c6c"/><stop offset=".712" stop-color="#3d3d3d"/><stop offset=".756" stop-color="#1c1c1c"/><stop offset=".792" stop-color="#070707"/><stop offset=".816"/></linearGradient><path fill="url(#SVGID_4_)" d="M-.6-.5h26.3v26.4H-.6z"/></g></mask><g mask="url(#SVGID_3_)" fill="#595959"><path d="M16.9 21l.8-3.8-.8 3.8 2.8-3.7-2-.1 2 .1zm2.8-3.7l-2-.1zM16.9 21l.6-2.8zm2.8-3.7l-1.4 1.9zm-3.6.6l.1-.9zm1.2-.5l-1.2.5zm.4-.2l-.8.4zm-1.6.6l.2-.9zm-.1.1l-4.8-1.2zm.3-1l-.2.9v.1l.1-.9zm-5.1-.2l1.2.1zm0 0l2.2.1zM.7 20l1.1.3zM0 21.6h.1zm16.6-1l.3.4z"/><path d="M17.7 17.2l-1.3 3.2.5.6.8-3.8zm0 .1l-.2.9-.6 2.8-.5-.6 1.3-3.1zm-1.3 3.1l-.2-1.2z"/><path d="M16.1 17.9l.3 2.5 1.3-3.2-.8.4-.8.3 1.2-.5.4-.2-1.3 3.2zm1.6-.7zM21.6 1l.3 1.4zm.3 1.4zM21.4.3zm.7 1.3l-.2.8zM21.4.4l.8.6zM23 0l-.2.2zm-1.6.4l.3-.1zm.8.6l-.8-.6 1.1-.4-1.1.4zm0 .1L23 0zm-9.8 22.4l.7-1.2zm-1.9.3l1.9-.3zm-.1 0h.1zm2.7-1.5l-2.6 1.5zm-.3.5l.3-.5-2.6 1.5 2.6-1.5zm1.9-1.4l-1.6.9 1.1-1.6-1.1 1.6zm1.3-3.5l-2.9 4.4zm.3 2.5l-1.8 1.1zm-.2-2.5z"/><path d="M16.1 17.9l.3 2.5-.2-1.2-.1-1.3zm0-6.4L18 15zm0 0L18 15zm1.9 3.4l.9-1.4zM6.7.6L6.5 0zm0 0L6.5 0zm.4-.5l-.4.5zm6.5 7.2l-.2.2zm-.2.2l.6.3zm.6.2l-.1-.1.1.1zm-.1-.1l-.3-.3-.2.2.2-.2zm.1.2zm2.2.2l4.8.3zm4.6.1l.2.2-2-.1 2 .1zm-1.2-1.7l-1.7.8 1.7-.8zm0 0l1.3 1.8zm0 0l-2 .9zM1.9 17.1l.5.4zm1.6 1.1l-1.7 2.1zm-1.7 2.2zm0-3.3v3.2zm.8.5l-.7-.5zM19 13.4v-.1zm0-1.4l.4.3zm.4.3v.1zm-.4 1l.4-1zm0-1.3zm-3-.5zm.3 0h-.1zm2.7 1.8l-2.9-1.8 2.1.4-2.1-.4 2.9 1.8V12v1.3zm-2.2 7.8l-.4.8zm-.4-.7v1.5zm0 .4v-.4zm0-.4l.4.7zm0 0l.2.4zm0 1.5zm0-1.5zm0 0zm0 0l.5.6-.3-.4-.2-.2.2.4.2.3V21v.1l-.4-.7zM13.1 2.1zM12.6.2l.1-.2zm0 0l.5 1.8zm.5 1.9l.1-2.1zm-.5-2l.1-.1zm0 .1l.1.5zm0 0V.1l-.1-.1.1.1.1-.1zm0 0l-.4-.2zm0 0z"/><path d="M12.6.1v.1-.1l-.1-.1zM16.2 8zm-2.5-1.5l.3 1.2 1.7.2-1.7-.2zm0-.1L16.2 8zM16.2 8l-2.3-1.5zm-2.5-1.5l.1.4zM16.2 8l-1.8-2.5zm-2.5-1.6zm0 .1v-.1l.7-.9-.7.9L16.2 8l-2.3-1.5zm.7-1l-.5.6.5-.6zm-.7 1V7v-.5zm.3 1.3zm-.3-1.4z"/><path d="M14 7.7l-.3-1.3-.1.9.2.2.2.2zm-.3-1.2l.1.5.2.7-.2-.2-.2-.2.1-.8zm-.3 1l.2-.6zm0 0z"/><path d="M13.6 7.3l.1-.3v-.5l-.1.5.1-.6v.9h-.1l-.2.2zm.1-.9zm-7.2 15zm-.8 2.3l1 .5zm.8-2.3l.2 2.8-.8-.4.8.4zm.3 2.8l-.1-.2.1.2zM6.7.6L6.2.3zm0 .1zm0-.1L6.5 0zm15.6 2l-.4-.2zm0-.5l.1.6zm.1.6l-.2-1.6zm-.2-1.6l-.3 1.3.2-.8.1-.5zm0-.1zm-5.3 20zm0 0l.6-.3-.6.3zm4-2.2l-.3-.4zm-1.2-1.5l1.2 1.5-1.6.9 1.6-.9-1.2-1.5-1.4 1.9-1.4 1.8zm1.2 1.5zm-1.2-1.5zm1.3.8l-1-.6 1 .6zm0 0l-.1.1z"/><path d="M19.7 17.3l.3.2-.3-.1.9 1 .3.4zM10 2.4l-.6.1.7-.5-.7.5zm3.1-.3L12.7.7l-.1-.5.5 1.8zm-3.7.4l1-.1-1 .1zM12.6.2L9.4 2.5zm0 0V.1zM9.4 2.5l.6-1.2zm0 0z"/><path d="M12.6.2L10.1 2l-.7.5L12.6.2l-.4-.2.4.1zm-2 19.2l-.1 4.4zm0 0zm-.1 1.9l.1-1.9zm2.6 1l-2.6 1.5zm0 0l-2.5-2.9zm-2.5-2.9l4.9-1.3zm5.5-1.5zm-3 4.4l2.9-4.4h.1l-1.9 2.8-1.1 1.6-2.5-2.9zm-2.5-2.9z"/><path d="M16 17.9l-4.8-1.2 4.9 1.2H16l-.5.2-4.9 1.3.4-1.9-.4 1.9zm-5.2.5l-.2 1zm2.6-10.9l-.2-.3zm.3-1.1l-1.6-1.2zm-.1.6l-.2.5-2-2.8 2 2.8.2-.6.1-.5-1.5-1.2 1.5 1.2zm-2.2-2.4zm0 0l.6.2z"/><path d="M13.7 6.4l-1.5-1.2-.8-.5.7.5 1.6 1.2.2-.3.5-.6zm-2.3-1.8l-2-2.1zM8.7 6.1l.7-3.6zm4.4-4l-2.7.3-1 .1 2 2.1-2-2.1.6-.1zM11.8 4l1.3-1.9zm1.3-1.9zM1.2 9.9zm-.1-.5L.6 7 0 8l.6-1zM.6 7L0 8zm.8 18.5l.2-.1zm2-1.3l-.2.6zm0 0l-.3 1zm-2 1.3l1.3-.8zM22.7 6.1l-.8.1.8-.1zM21 8.3l1.4-1.8L21 8.3zm1.7-2.2zM21 8.3l-.2-.2-1.2-1.7 3-.3-3 .3 1.3 1.8.1.1zm.8 7.3l-.5.4.5-.4zm-2.1 1.7l1.7-1.4-1.7 1.4zm2.1-1.7l-.7 2zm-.9 2.5l-.9-.6-.3-.2.3.2 1 .6h-.1zm0 0zm.9-2.5l-.7 2-.1.5zm2.1.2l-1.8-.2zm0 0zm-2.1-.2l2.1.2-.8.6.8-.6zM16.2 8l1.7-.8 1.7-.8-2 .9-1.4.7zm1.1-1.6l.6-.8zM16.2 8zm1.7-2.4l-.3.3zm1.3.6l-1.3-.6zm-4.8-.7h1.8zm0 0l2.3.1-2.3-.1L16.2 8l1.4-2.1.3-.3-.6.8L16.2 8l-1.8-2.5zm0 0l2.2-1.7z"/><path d="M17.9 5.6h-1.2l-2.3-.1h1.8zm-1.3-1.8l.6.8zm0 0l.8 1.1zm-2.2 1.7zM1.6 13l.8-.1zM5 14.7l-1.7-.8zm-3.4-1.6l2.7-.5zm3.9.3l.3-1.1zm-.3 1l.6-2.1zm-3.7-1.3h.1zM5 10.6l.6 1.3zM1.6 13l2.5-1.8L1.6 13zm.9-.6L5 10.6zm-.1.5l3.4-.6-1.5.3-2.7.5V13zm17.7-10l.2-.5zm1.8-.5h-1.5 1.5l-1.4.4zm0 0zm-1.6 0zm-.2.5l1.8-.5zm1.8-.5L21.6 1l-.2-.6zm-.5-2l-.4.7.4-.7z"/><path d="M21.9 2.4h-1.6l.9-1.6-.9 1.6zm-1.6 0zm-6.8 20.3l-1.1.8zm-1.1.8l1.7.7zm.7.3l-.7-.3zm.4-1.1l.6 1.5zm.6 1.5l-.3-.8.3.8zm-1-1.9l.1.1-.1-.1-.7 1.2 1.1-.8-1.1.8.4-.7zm0 0zm.1.1l.3.3 2.9-2.3-1.7 1-1.5.9v.1zm.3.3l-.4-.4 1.4-.8 1.8-1.1-2.8 2.3zm0 0l2.9-.8zm0 0z"/><path d="M13.5 22.7l2.9-2.3v1.5-1.5l-2.9 2.3 1-.3zm6.1-16.3l2.3-.2.8-.1-2.2-1.2 2.2 1.2h-.1zm0 0zm4.3 9.4l.3.6-.3-.6zm.9 1.9l-2.7.3 2.7-.3zm-.9-1.9l.1.1-.1-.1zM21 18.1l3.8-.4-3.8.4zm-.1 0zm.1 0l2.1-1.7.8-.6-2.9 2.3zM19.9 11l.4-1-.4 1zm-3.7-3l2 1.7zm0 0l2.8.2 2 .1-.1.2.1-.2-4.8-.3 3.6 3zm.1 8.9L13.1 13zm-1.4-1.7L13.1 13zm-1.8-2.1l-1.9 3.6zm3.1 3.8h.1-.1.1-.1l-3.8-.1-1.2-.1 2.2.1zm-4.3-1.7l1.2-2.2zM18 15zm-1.6 1.8L18 15zM13.1 13zm2.5 1l-2.5-1zm.7 2.9z"/><path d="M13.1 13l4.9 2-4.9-2 3.2 3.9L18 15l-1.7 1.9h-.1l-1.3-1.7zm0 0l-.4.5.4-.5zM11 16l.2.7zm.2.7l1.9-3.6L11 16l2.1-3-1.2 2.2-.7 1.5zm-.3-1l.1.2 1.7-2.4.4-.5-2.1 3v-.1zm-.2-1.9l.1.4zm.2 2.2h.1zm7.1-1zm-4.9-2l.4-.2z"/><path d="M18 15l-4.9-2 2.5 1 2.4 1-1.9-3.5-.4.2.4-.2L18 15zm-6 9zm2.1.2zm.1 0h-.1zm-1.8-.7l.7.3 1 .4-1.7-.7-.4.5zm0 0zm-1.9.3l.8.1-.8-.1zm0 0h-.1.1z"/><path d="M10.5 23.8l1.9-.3-.4.5.4-.5-1.9.3 1.2.2-1.2-.2zM6.7.7L5.6 3.2zM5 4.5l-.4-1.3.4 1.3zm0 .1zM3.6 0l1.7.4zm0 0zm3.1.6L3.6 0h.1-.1l1.7.4 1.4.2-.5-.3-.4-.3h.1zM3.6 0h.1zm16.8 20.9l-.5 1.6zm0 1.6l.1 1.2zm0-1.5l-.6 1.8zm0-.1l.1 2.1zm0 2.8v-.1zm.5-4.9zM19.3 21l1.1-.1zm1.1-.1l.2-.8zm0 0l.2-.6zm-3.5.1zm0 0l2.4-1.3 1.6-.9-3.4 1.9-.6.3 3.5-.1-3.5.1zm8-3l-.1-.3zm.1-.3l.5.3zm-.2 0l.7.3zm0 0l.7.2zm0 0h.2l.5.3zM25.5.4l-.2-.3zm-.3-.4l.3.4zm-.3 1.5h.5-.5zm0 0h.6zm.3-1.5l.3.4-.2-.3zm-.3 1.5v-.1L24.7 0zM18.2.8l.9 1zm1.9 2.1zm.2-.5l-1.5-1.2 1.5 1.2zm-.2.5l.2-.5zm-2-2.2zm3.3-.3l-1 .1zm0 0l-.2.4-.9 1.6L18.2.8l-.1-.1.7.5 1.5 1.2.7-1.3.4-.7-2.2.2 2.2-.2zm-3.3.3l-.3-.2zm0 0l-.3-.2.3.2zm.4-.7l-.1.2zm-.4.7l.3-.7-.2.7zm-.4 16.5l-.2-.7zm-.2-.7l1.7.7zm0 0zm.2.7l-.2-.6.2.6 2 .1zm0 0zm2 .1z"/><path d="M16.3 16.9l1.4.3-.2-.7-1.2.4zm1.2-.4l.2.7-1.4-.3 1.2-.4zm-1.2.4h-.1zm1.2-.4l-1.2.4zm2.4-5.4l.2-.3-.2.3zm1-2.6l.1-.2-.7 1.7-.4 1 .7-.7-.7.7h-.1zm1.5.1L21 8.3zM21 8.3zm1.4.3v-.2zm0 0L21 8.3l1.7-2.2-.3.4L21 8.3l1.4.3zm.3-2.5v.4zM24 7.9l-1.3-1.8zm-.4.2l.4-.2z"/><path d="M22.4 8.6v-.2l.3-2.3v.4l-.3 2.1zm.8 16.4zm0 .1l.2.4zm0 0l.2.4zm0 0l-.3.4zm0-.1zm0 .1l.7.4zm0 0l.7.4-.7-.4.2.4zm0-.1l2.3.2zm0 .1l.7.4zM17 .8l-.3-.8zm1.1-.1l-.3-.2-.6-.5.6.5zM3.7 3.8l-1.5-1zm1.2.7L4.1 4zm.1.1zM3.6 0l1 3.2.4 1.3v.1L3.6 0 2.2 2.8 3.6 0zM2 1.3l.1.8-.1-.8zm0 0L3.6 0zm.2 1.5zM3.6 0z"/><path d="M2.2 2.8l-.1-.7.1.7L3.6.1V0zm21 22.3l-.6.2.6-.2-.3.4z"/><path d="M23.2 25.1l-.6.2-.4.2h-.1zm-1.9.4l-.4-.9zm-.7-1.5l-.1-.3zm2.6 1l-.9-.4zM3.3 20.4l.3.3zm.4.5zm.8-1zm-.1 0h.1zm-.7.9l-.2-.2zm-.4-.4l.2-2.2zm0 0l.1-1.4zm.2-2.2l-1.7 2.2v-.1zm0 0zm1 1.7l-.7-1.2.7 1.2zm-1-1.7l-.2 2.2 1.2-.5-.3-.5.3.5h-.1l-1.1.5.1-1.4.1-.8zm2.3-5.9L7 14.1zM7.7 15l-1.8-2.5L7.7 15zm-2-.2l-.6-.1zm-.6-.1l1.9.2zm.7-2.4l-.3 1.1-.4 1.3.1-.3zM7.7 15zm-1.9-2.7l1-.4-1 .4zm0 0zm0 0l.1.2L7.7 15l-.2-3.4-.2.1.2-.1.2 3.4-.7-.9zm3.5 7.3l1.2-.2zm-.1 0l.9 3zm1.3 4.2zm-1.3-4.2zm1.3 4.2l.1-4.4-.6.1.6-.1-.1 1.9v2.5zm-1.3-4.2l-.4-2.1zm-2.9.6l1.1-1.1zm2.5-.5l.4-.1zm-2.5.5l2.5-2.7zm-.1 0h.1zm3-.6l-.9.2zm10.6-8.5zm3.2 1zm-2.4-1.8l1.8-1.7-2.3 2.2-.2.3 2.4.8-2.4-.8V11zm1.8-1.7zM4.9 23.2zm.1-.6l.1-.7zm-.1.6l1.6-1.8-1.6 1.8zm1.6-1.8zm-.2-1.2zm-1.2 1.7zm1.4-.5l-.2-1.1zm-.2-1.2l-1.2 1.7 1.1-1.7z"/><path d="M6.5 21.4l-1.4.5 1.4-.5-.2-1.2-.3.4.3-.4.2 1.2zm-2-1.5l.6.1z"/><path d="M5.1 21.9l1.2-1.7h-.1l-1.7-.3 1.8.3-.3.4-.9 1.3zm3.7-4.4l.2-.8-.2.8zm2.4-.8l-2-1zm-.1 0l-1.3.4zm-1.9-1zm-.4 1.8l.2-1zm.4-1.8l1.9 1-1.2.4 1.2-.4zm2 1zm-.3-.8h-.4.4z"/><path d="M9.2 15.7l2 1-.2-.7h-.1.1v-.1.1l.2.7h-.1zm2 1zm-.5-2.9zm0 0l-1.5 1.9z"/><path d="M9.2 15.7l.3-.4-.3.4 1.3.2h.4l-.1-1.7-.1-.4h.1l.1 1.9.1.2v.1h-.1l-1.7-.3zm-4.8-9zm0 0l.5-.1zm1.7-1.9l-.2.3zM4.7 6.3l-.3.4zm4-.2zM6.2 4.8h-.1zm-1.9 1l.8-.5-.8.5zm.1.9l-.1-.4zm0-.1l-.1-.8 1.1-.6-1.1.6zm0 .1l.3-.4 1.4-1.5-.2.3zm1.7-1.9zm3.3-2.3l-.7 3.6-2.6-1.3h.1l2.5 1.3.7-3.6zM5.3 4.6H5z"/><path d="M6.1 4.8L5 4.6l-.7 1.2 1.2-.6.6-.4zm-1 .5l-.8.5.7-1.2 1.1.2-1 .5zm1-.5zm.1-.8L6.7.7 5 4.6v-.1l.6-1.3L6.7.7zm-.1.8l.3-2-.3 2zM6.7.6z"/><path d="M5 4.6h.3l.8.2zm1.1.2zm3.3-2.3zM6.7.6zm2.7 1.9L6.7.7 6.2 4l-.1.8.1-.1 3.2-2.2zM6.7.7l2.7 1.8-3.3 2.3.3-2L6.7.7zM4.9 23.2l-.9.5zm-.9.4l.8-1.7zm.9-.4l-.1-1.3zm-.1-1.3zM4 23.7l.1-.4-.1.4zm.9-.4v-.1zm.2-1.4zm-.2 1.3l-.1-1.3.1 1.3.2-1.3-.1.7-.1.6zm-.4-3.3l.2 1-.2-1zm.3 2L4.5 20l.3 1.9h.3l-.6-2 .6 2h-.3z"/><path d="M3.7 20.8l.8-.9v.1l.3 1.9-.1-1-.2-1-.8.9zm1.1 1.1zm-1.1-1l1 .8zm.1 0l1 1zm-2.4-7.6L5 14.7l-1.7-.8-1.7-.8 3.5 1.6-3.7-1.4.1-.2zm.1-.1l.1-.1zM23.4 1.9l-.6.5zm0 0l-.5 1.8zm0 0l-.5.4.5-.4-.1.4zm-.5 1.8l-.3-.6.3.6zm2-2.2l-.2.1.2-.1zm-2 2.2z"/><path d="M23.3 2.3l.1-.4.8-.2-.8.2-.5 1.8zm1.5-.8l-1.3.4zm.1 0zm-2.5 1.2zm1-.8l-.5-.4.5.4zM22.2 1zm0 .1l.2 1.6.4-.3.6-.5-.5.4-.5.4-.1-.6-.1-1zm-13 18.5l.5-1-.5 1h.1zm1-.6l-.5-.4z"/><path d="M10.5 19.4h.1l-.8-.7.8.7-.6.1-.8.1h.1zm.1 0zm-1-.8l-.8-1.1zm-.4 1l-.4-2.1.5.7-.5-.7.4 2.1.4-1h.1l-.5 1zm-.4-2.1zm2.1-.6l-1.3 1.7zm-1.3 1.7zm1.6-1.9z"/><path d="M9.8 18.7l-.1-.1h-.1.1l.5.4.4.4.2-1 .3-1.7-.1.2.2-.2-.2.8-.4 1.9z"/><path d="M9.6 18.6l-.3-.4-.5-.7.8 1.1 1.3-1.7.2-.2-1.3.4-1 .4 1.1-.4 1.2-.4h.1l-.2.2-1.3 1.7h-.1zm-8-5.6l-.5-.1zm-.2.3zm-.2-.2l-.2-.2zm-.2-.3zm.6.3h-.1l-.1.2.1-.1.1-.1zm17.5-8.6l-.9.8zm0 0l-.5.4zm.4 1.8l-.4-1.8zm-1.6-.7zm1.7.8l-1.7-.8 1.3.6.4.2zm-.5-1.9v-.1zm.1-.3zm.4 2.2l-.5-1.9.4 1.8-.3-2.1-.1.2.1-.2zm-3-2.6zm1.6 1.5l.8-.8-2.4-.7.7 1.1.5.7.4-.3zm.9-.8l-.4.4-.7.7-.7-1-.5-.8 2.3.7zm0 0zm.1-.3l-.3-.1zm0 0l-1.7-.3 1.7.3z"/><path d="M19.1 4.4v.1l-2.5-.7h.1l2.4.7v-.1l.1-.2zM1 12.9l.2.2.2.2-.4-.4-1 .4zm0-.1zm0 .1l-1 .4zm16.5 11.7l-.3-.7.3.7zm-.4-1.1l-.7-1.6zm.4 1.2zm0-.1l-2.5-.7zm-2.3-1l1.2-1.7zm-.2.3l-.9.3zm-1.5-1.2l.3.7.3.8.6-.2-.6.2zm0 0zm2.9-.8zm-2.9.8l1.4 1.2 1.4-2-1.9.5-.9.3zm2.9-.8l-1.2 1.7-.2.3-1.5-1.2 2.9-.8zm-.3-19.5L13.8 0zm0 0zm-3-.3V2l.1-2zm3 .3L17 .9zm0 0l.3-2.4zm0 0zM17 .8l-.3.7.3-.7-.3-.8zm-.9 1.6L13.8 0l2.3 2.4.3-2.4zm-6.8 9.2l.9.3-.9-.3zm0-.1zm1.5 2.3l2.3-.8zm-1.5-2.2l1 1.5-1-1.5zm3.8 1.4zM.4 2.8l.1-1zm0 0l-.4.1zm0 .1H0zm.1-1.1zm-.1 1v-.4.4zM.8 2l-.3-.2-.1.6v.4h1.8H.4l.1-1zm1.4.8zm0 0l-1.7-1zM2 1.3l-.6.2zm-1.5.5zM2 1.3l.1.8.1.7-.1-.7-.1-.8-.8.3.8-.3z"/><path d="M2.2 2.8L.8 2l-.3-.2zm7.9 6.1l-.8 2.6zm3 4.1zm0 0l-2.9-1.1-.9-.3v-.1l3.8 1.5zm-3-4.1l-1.8 1.9zm0 0l-.8 2.6.8-2.6-1.7 1.7 1.7-1.7zm0 0l.1-.3-.1.3zm1.3-4.3zm-1.3 4.3l.6-2zm1.3-4.2l2 2.8-1.9.8 1.9-.8-.2-.3-1.8-2.5zM8.7 6.1l1.4 2.8.1-.3 1.2-4-2.7 1.5zm0 0l2.7-1.5-.7 2.3-.6 1.9-1.4-2.7zm1.4 2.8zm13.8 6.9l-1.1-2.9zm-1.1-2.9l-1 2.7h.3l1.8.2-2.1-.2 1-2.7 1.1 2.9zm0-.1zm-3.8.5l2.2 1.8zm0 0zm2.8 2.3zm0 0l1-2.7-3.8.4 3.8-.4zm-2.4-3.3l2.3.4zm3.4.5v.1z"/><path d="M19 13.3l.4-.9v-.1l-.4 1 3.8-.5-3.3-.5 3.3.6zm.5-1.3l-.1.3zm3.3.8l-2.9-1.7zm-3.4-.5zm3.4.6v-.1z"/><path d="M19.5 12.3h-.1l.5-1.2-.5 1.2 2.3.4 1.1.1-.6-.3.6.4zm3.4.3l-.1.2z"/><path d="M23 12.1l-3.1-1 2.9 1.7v.1l-.6-.4-2.3-1.4 2.4.8.7.2zm-3.2-1V11v.1zm3 1.7l.1-.3zm2 4.9l.7-.6zm.2 0h-.2l.2-.2-.2.2.7.2zm-1.1-1.9l1.6.3zm.9 1.9l-.8-1.8-.1-.1 1.5.3-1.5-.3.3.6zm-.9-1.9z"/><path d="M24.8 17.7l.7-.6-.5.4zm-.9-1.9l1.4-1.2zm0 0zm0 0l1.1-.9-1.1.9 1.6.3h-.1zm1.6-10.9L23.6 4zm-.6-3.4l.6 1.7zm-2 2.2zm2-2.2zm-2 2.2l1.8-2.1.2-.1-2 2.2zm2-2.2h.6-.6l.6 1.7v.1zm-1.4.4l.1-.3zm.1-.4l-1.4-.4zM22.2 1v.1zm1.2.9zm0 0l-1.2-.8.7.4.5.4.2-.4-.9-.3.9.3zm.2-.3v-.1zm0-.1L23.3 0z"/><path d="M23.6 1.5l-.9-.3-.5-.1V1l.6-.8.2-.2-.8 1.1 1.4.4-.3-1.5zm0 .1v-.1zm0-.1l.3-1.5z"/><path d="M23.6 1.5l.2-1.3-.2 1.3-.3-1.5zm-.7 2.2l2.6 1.2-1.9-.9zM5.2 25.3l1.4.2zm-.7.1l.7-.1zm.7-.1l-1.2.2 1.2-.2zm0 0l.1.2zm1.6-1.1l1.1 1.3zM8 25.5l-.3-.3zm-1.3-1.3l-.6.5zm-1.5 1.1h.1-.1.1l1.3.2zm-1.8-1.1l1.8 1.1-.7.1-.7.1h-.1.3l1.2-.2-1.8-1.1-.3 1-.1.3.2-.7zm1.8 1.1h.1-.1zm-1.8-1.1zm1.8 1.1h.1-.1z"/><path d="M3.4 24.2l1.8 1L4 23.7l1.2 1.6-1.8-1.1zm1.5-1zm1.9 1zm-1.9-1l.3 2z"/><path d="M5.2 25.3l.9-.6.6-.5-1-.5-.8-.5 1 .6.8.4-1.4 1.1h-.1zm0 0zM4 23.7z"/><path d="M5.2 25.3l-.4-2-.8.4 1.2 1.6zm0-.1L4 23.7l.9-.4.3 1.9zM.6 7l1-.1zm.6 2.9l1.6-3.2zm.3-.6l-.3.6-.1-.5L.6 7l.6 2.9zm2.4-2.6H2.8zm.4-.9l-1.5.9zm0 0l.1.8v.1l-.1-.4zm16.1 15.1l2.9-.7-2.9.7zm2.1-.5l-2.1.5zm-1.6-1.6l-.3 1.3-.2.8.2-.6zm0 0l2.7 1.3zm2.7 1.4l1.9-.2zm1.2-2.5l-.6 1.2zm-1.2 2.5l1.9-.2zm1.2-2.5l-.2.4.2-.4.7 2-.6-1.7zm0 0zm-1.2 2.4l-.8-.6.8.6z"/><path d="M20.9 18.8v-.7h.1l-.1.1v.6l2.7 1.3v.1zm.1-.7z"/><path d="M23.6 20.2l1-2.1.2-.4-2.7.3-1.1.1 2.6 2.1zm1.2-2.5l-.6 1.2-.6 1.3-.8-.7-1.8-1.4 3.8-.4zM2.2 2.8v.3zM5 4.6L2.2 3.1l2.7 1.4-.8-.5-1.9-1.2 1.5 1 1.3.8zM2.2 2.8zm0 .3zm-.1.4l.1-.4zM.4 2.9h.4-.4zm1.8.2L.4 2.9zm-.3 1.2l-.8-.7.8.7zm-.1 0L.4 2.9zM.4 2.8zm1.8 0v.3-.3l-1.8.1 1.8.2-1.4-.2H.4v-.1zM.5 25.5l-.5-.6zM0 24.1h.7zm3.3.1h.1l-1.8 1.2-.2.1 1.3-.8zm.1 0zM0 24.1h1.3zm.5 1.4l-.5-.6zm7.7 0l-.3-1.8zm-.2-.9l-.2-1.3zm-1.2-.4l.9 1 .3.3h-.1zm-.1 0zm1.8 1.3l1.6-1.4zm2-1.7l-2.6-.5zm-2.7-.5h.1l2.6.5h-.1l-2.5-.5v.4l.3 1.8-.2-.9zm.1-.1l.5-1.3zm1.3-3.6zm-1.3 3.7l.7-2-.7 2 2.6.5-.4-1.2-.9-3 1.3 4.2-2.6-.5zM.3 0l.1 1.4zm.2 1.8L0 2zM2 1.3zm-1.5.5l.9-.3.6-.2-.8.3-.7.2-.1-.4L.3 0zM3.6 0h-.1zm0 0zM2 1.3L3.6 0v.1L2 1.3.9 0zM3.6 0h-.1zM.3 5.2L.6 7zm.1 0l1.6 1-1.6-1zm-.1 0l1.9 1.1zm2.5 1.5L.6 7l1-.1zM.3 5.2l-.3.2zM.6 7zM.3 5.2L.6 7 .3 5.2l-.3.2zm0 0H0zm.1 0H.3h.1z"/><path d="M.3 5.2l-.3.2.3-.2-.3.1zm0 0L0 4.8z"/><path d="M.3 5.2l-.3.1v-.1zm.9 4.7l-1.2.8zm0 0h-.1L0 9.4zm1.5-5.5l.1 1.4zm.1 0l.8.8zm1.5 1.4L2.8 4.4zm0 0l-1.5.9zm0 0zM1.9 4.3l.6.1-.6-.1zm0 0l.3.9-.3-.9H2zm.8.1h.1v2.3-.9zm2.3.2l-2.3-.2zm0 0z"/><path d="M4.3 5.8l-.7-.6-.8-.8h-.1.1l1.5.1-1.5-.1 1.5 1.4.7-1.2z"/><path d="M5 4.6l-.7-.1-1.5-.1-.2-.5.1.5 2.3.2-2.8-1.5zM2.2 3.1l.2.4zm0 0zm.5 1.3z"/><path d="M2.2 3.1l-.3 1.2h.2l.7.1-.2-.5-.4-.8zm-.3 1.2l.2-.8.1-.4.2.4.3.9h-.2l-.6-.1zm4.9 12.3zm0 0l2-.7zm2 .9l.2-.8.2-1-.2.8-.2 1-1.9-.8zm0 0zm-2-.9l.3-.5z"/><path d="M8.3 15.3l-.6-.3-.9 1.6 2-.7.4-.2-2.4.9.9-1.6zm.9.4L7.7 15zm0 0zm-2.4 1z"/><path d="M5.1 14.7l.6.1 2 .2-.9 1.6-1.1-1.2 1.1 1.2.3-.5.6-1.1-.7-.1-1.9-.2zm1.7 1.9l-1.7-1.9 1.7 1.9zm17.9-9.7l.4-.6.4 1-.4-1zm-.7 1l1.5.9zm1.1-1.6zm0 0l-.7.9.7-.9zm0 0l.4.2zm0 0h.1-.1l.4 1zm0 0h-.2zm0 0l-1.4-.1 1.4.1zM24 7.9l-1.3-1.8L24 7.9l.4-.7.7-.9-.4.6-.7 1z"/><path d="M25.1 6.3l.4.2-.3-.2zm-1.9-1.6v.1-.1zm0 0l1.9 1.5zm-.5 1.4zm2.4.2h-.2l-2.2-.2 1 .1 1.4.1-.3-.3zm0 0zm0 0l.4-.1zm0 0zm-1.9-1.6z"/><path d="M25.1 6.3l-.3-.3-1.6-1.3 2.3.4-2.3-.4 1.9 1.5v.1l.4-.4zm-22 14.5zm.6.1l-.6-.1zm-.6-.1l.1-.2-.1.2zm.5-.1l.1.1h-.3.3l-.2-.2-.2-.2zm-.3-.3zm-1.5 0h1.5l-.1.2-.1.2.2-.4H1.8zm1.3.4l-.4-.1.4.1zm13.2 4.7l.5-.4zm-.7 0l-.1-.2zm1.9-.9l-2.5-.7zm-2.5-.7zm0 0l-.9.3.6-.2.3-.1.5 1.4.1.2h-.1zM1.6 13L3 11.5zm3.1-2.6l.2.2zm-.1 0l.3.2zm-3 2.6l2.5-1.8.8-.6H5l-2.5 1.8-.9.6v.1l.5-.7z"/><path d="M5 10.6l-.3-2.3.3 2.3zm-.8-.5l.1-1.3-.1 1.3zm.2-3.4l.2 1.4zm0 0l-.2 3.4zm.5 3.9l-.3-.2-.4-.2.5.2zm-.7-.4l-1.3-.1 1.3.1zm0 0L2.7 10l1.5.2zm-2.7-.9l1.3-2.6 1.1 2.6-1.1-2.6-1.6 3.2zm2.7.9z"/><path d="M2.8 6.7h1.6l-.1 2.1-.1 1.3v.1l-.3-.9-1.1-2.6 1.4 3.4.2-3.4H2.8zm1.4 3.5zm12.2 11.7zm0 0l.8 2 .3.7-.1-2.7.1 2.7-.4-1.1-.7-1.6zm3.3 1.4zm-2.3-1.4l2.3 1.4zm0 0l2.9-.9zm3-1v.1l-.6 1.8-.1.5.2-.8zm0 0zm-3 1l-.6-.8zm0 0l-.5-.6zm-.6-.8z"/><path d="M16.4 21.9l.4-.8-.4.8h1-1z"/><path d="M16.8 21.1l.1.2.5.6-.5-.9-.1.1zm.6.8l-.6-.7.1-.1.5.8zm-.5-.9z"/><path d="M20.4 20.9h-3.5l.5.9 3-.9zm0 0l-3 1-.5-.9h2.4l1.1-.1zm-1.3-9l-.1.1zm.1-.2zm0 .1l-.2.2zm.2.5h.1zM19 12l.4.3zm.4.3l-.1-.3zm.4-1.2l-.5.5zm-.4 1.2l-.2-.5.1.2.1.3.1-.3.3-.9-.6.6.7-.6zm.4-1.3h.1v.1zm-.8 1l-.8-.1-2.1-.4h.2l2.7.5.1-.1.1-.1zm.2-.3l-3.1-.2zm-3-3.7l-.1 1.3zm0 0z"/><path d="M19.2 11.8l-3-.3h-.1l3.1.2-1.2-1.5zm0 0v-.1.1z"/><path d="M19.9 11.1L16.2 8l1.8 2.2 1.2 1.5.7-.6zM16.2 8l2 1.7 1.6 1.3-.5.5-.1.1-3-3.6zm8-6.6zm0 0l-.6.4zm0 0l-.5.1-.2.4.7-.5zm0 0l-.7.5.2-.3.5-.2zm-.8.5zm.2-.4l.6-.1zm1.2 0l-.6-.1z"/><path d="M24.9 1.5l-.7.2-.8.2.8-.5-.6.4-.1.1 1.3-.4-.5-.1.6.1zm0 0zm-1-1.5l.3 1.4-.3-1.4zm0 0v.2l-.2 1.3.5-.1-.3-1.4zm.3 1.4l-.6.1.3-1.5.3 1.4z"/><path d="M24.9 1.4l-1-1.4.3 1.4h.7zm-.7 0L23.9 0l1 1.4h-.7zm-17 20.2zm-.5 2.6zm.1 0l1-.9-.4-1.2.4 1.2-1 .9zm1.1-.9zm-1.4-1.9l.7.2-.7-.2zm.2 2.8l-.2-2.8.2 2.6.1.2.4-2.6-.4 2.6h-.1zm2.5-4.6h.1-.1z"/><path d="M7.4 22.1l-.2-.5.7 1.6.5-1.3.8-2.3-.6 1.7-.7 2h-.1zm-1.1-1.9l.3.5-.3-.4.2 1.1.7.2-.7-.2zm.9 1.4l-.9-1.4zm0 0z"/><path d="M7.2 21.6l2-2-1 .2-2 .4.3.5.7.9zm2-2l-2 2-.9-1.4 2.5-.5.4-.1zM6.7.6L9.4.3zm0 0zm2.7 1.9zM6.7.7L8.3.4 6.7.6l2.7 1.9zm3-.6l-.3.2zm-.3.2l.5-.3zm0 2.2V.3v2.2l.6-1.2.6-1.3zm0-2.2L8.9 0z"/><path d="M6.7.6L9.4.3 8.3.4 6.7.7V.6l.4-.5.1-.1zM9.4.3zm0 0zm0 0V0v.3l.5-.3-.2.1zm0 0L8.9 0l.5.3V0zm7.3 3.5h-.1l.3-1.6-.3 1.6.9.1 1.7.3-.8-.7.8.7-.3-.1zm2.5.4l-2.3-2zm.9-1.3l-3.2-.7zm-3.2-.7z"/><path d="M20.1 2.9l-3.2-.7 1.5 1.3.8.7.9-1.3zm0 0l-.9 1.3-2.3-2 3.2.7zm-.9 1.3zm-2.6-.4zm.3-1.6l-.8.2.5 1.4.3-1.6zm0 0l-.2 1.6-.5-1.4.7-.2zm0 0l-.4.1zm0 0l.4-.6z"/><path d="M19.1 1.8l1 1.1-3.2-.7.1-.2-.1.2 3.2.7-2-2.2.1.1zM17 .9v.5zm0-.1zm0 .1l-.9 1.5.4-.1.4-.1.1-1-.1 1-.8.2.6-.9.3-.7zm-.1 1.3z"/><path d="M18.1.7L17 2l-.1.2.1-1V.8l1.1-.1-1.1.2v.5l-.1.8.4-.6.8-.9zm-.5 24.8zm0 0zm0 0v-.1zm-.1-.7v-.1zm.1.7h-.1zm-.1-.8v.2-.2l-.7.4-.5.4zm-4.3.8l.5-.7zm.9-1.3zm0 0l1.2 1.3-1.2-1.3-.9 1.3zm-3.7-.4h.1l-1.9 1.7h-.1l1.6-1.4zm.1 0z"/><path d="M12 24l2.1.2-.9 1.3.5-.7.4-.6L12 24l.4 1.5z"/><path d="M10.5 23.8l1.2.2h.3l.4 1.5L12 24l-.7-.1-.8-.1 1.5 1.7h-.1zm8.9.1l-1.7-1.7 1.7 1.7zm-1.9.7l1.9-.6zm0 0l-.1-2.7.1 2.7zm-.1-2.7zm.1 2.8zm2.9-1l-1 .2zm-.7-.4l-.2.3zm0 0l.8.4h-.1v-.1l-.7-.3zm-2.3-1.4l2 2 .3-.7-2.3-1.3zm2.1 1.7l-.1.4-1.7-1.7-.3-.3 2.3 1.3-.2.3zM.7 4.7l1.2 1.1zm2.1 2l-2.1-2zM2 6.2l.8.5-.6-.4L.3 5.2h.1zm-1.7-1L.5 5zm0 0zm2.5 1.5l.1.1-.1-.1zm-1-2.4l-1.1.4zm.1 0z"/><path d="M2.8 6.7l-.9-2.4.3.9.6 1.5-.9-.9L.7 4.7zm-2.1-2L0 4.2zm-.4.5L.5 5l.2-.3-.3.5H.3L0 4.9v-.1zm.1-2.3L.6 4zm0-.1z"/><path d="M.4 2.9l.7.7.8.7-1.2.4-.2-1.2.2 1.2 1.1-.4L.4 2.9v-.1zm.3 1.8z"/><path d="M.4 2.8v.1l.1.6.2 1.2-.7-.5.7.5L.6 4 .4 2.9H0zM18.1.7l2-.7zm2.1-.7h-.1zm1.2.4l-2.2.2-1.1.1h.1l2.2-.2 1-.1V.3l.1-.3zm0 0zm-3.3.3z"/><path d="M18.2.7h-.1.1l.3-.7-.1.2-.3.5 2-.7h.1-.1zm3.2-.3l.1-.4-.1.4.3-.1.8-.3zm-3.8 25.1zm0 0h-.2zM.9 12.2l-.9.3zm0 0l-.9.3zm0 0v.3zm.1.6v.1L0 13zm-.1-.6zm-.9-.7l.6.4zm.9.7l-.9.3zm0-.1zm.7 1zm-.7-.9l.1.6.5.2-.6-.8zm.7.8l-.5-.2H1l-.1-.3-.1-.4.8.9z"/><path d="M4.2 10.2l-2.1 2.2-.5.7-.7-.9 3.2-2-3.2 2 .7.8L3 11.5l1.2-1.3zm0-.1v.1z"/><path d="M1.2 9.9l-.3 2.3-.9-.7.6.4.3.2.3-2.2-1.2.8 1.1-.8zm0 0zm-.3 2.3z"/><path d="M1.2 9.9l-.3 2.3 3.2-1.9.1-.1-1.5-.2-1.5-.1zm1.7.2l1.3.1-3.3 2 .3-2.2 1.7.1zM.5 16.9l-.5.3zm0 0l-.5.2zm1.3 3.4v.1L0 19.8l.7.2zm0 .1zm.1-3.3V17zm-.1-.1l-1.2-.1z"/><path d="M.5 16.9h.1l1.2 3.4v-3.2h.1l-.1 3.2v.1L.5 16.9zm-.5-.1l.3.1zm.5.1l-.5.3v-.1zm0 0H.3l-.3-.1zm.1 0zm-.1 0l-.5-.3zm.1 0H.5zm0 0l.8-3.5zm-.1 0l-.5-.6zm.9-3.6l-.2 1 .2-1-1.4.4zm0 0zm-.9 3.6zm1.3-.3z"/><path d="M1.9 17.1V17v.1l.7.5.8.6h.1l-1.1-.7-.5-.4zm1.5-1.5l-1.6 1zm1.7-.9z"/><path d="M3.5 18.2h-.1l-1.6-1.6 2.1-1.2-2.1 1.2zm1.6-3.5l-1 2.2zM.5 16.9zm1.3-.3l.1.4v.1h-.1l-1.2-.2H.5l1.3-.3-1.2.3 1.2.1v-.4zm-.4-3.3l.4 3.2zm0 0z"/><path d="M1.4 13.3l-.2 1-.6 2.6 1.2-.3-.4-3.3zm0 .1l.4 3.2-1.2.3.8-3.5zm.4 3.2zm3.3-1.9z"/><path d="M1.4 13.3l.4 3.2L4 15.3l1.1-.6-3.7-1.4zm.4 3.3l-.4-3.2 3.7 1.4-1.6.9-1.7.9zm17.9 8.1l1.3.8zm0 0v.8zm-.1 0l.1.8zm-2 .8l2-.8zm0 0zm0 0zm2-.8h.1v.8zm.9-1l-.9 1z"/><path d="M20.5 23.7l-.8 1 .8-1 .4.9.4.9-.7-1.5zm-.8 1h-.1.1l1.3.8zm-2.2-.1z"/><path d="M17.5 24.7v.1l.1.7 2-.8-2 .8v-.1l-.1-.5v-.2zm2.2 0z"/><path d="M17.5 24.6l1.9-.6v.1-.1l-1.9.6 2.1.1h-2.1v-.1zm1.9-.7zm.2.8zm.9-1zm-.9 1l.8-1.1-1 .3v.1l.2.7zm0 0l-.2-.7 1-.3-.8 1zm3-21.1l.1 2.5zm.6 1.1l-.6-1.1zm-.6-1.1v.9zm.1 2.5zm0-.1l.5-1.3-.4-.7.4.7v.1l-.5 1.3zm.5-1.3zm-.6-1.2zm-3.4.7l1-.2zm0 0zm3.5 1.9l-2.2-1.2-1.3-.7 3.5 1.9-.1-2.5v-.1 1l.1 1.5v.1zm.2-2.4l-.2-.1.2.1z"/><path d="M23.2 4.8l-.3-1.1-.3-.2.2.5.4.8zm-.3-1.1l.3 1-.6-1.1.3.1zm0 0zm-.3-.2zm-.7-.1l.7.1zm-1.8-.5z"/><path d="M22.6 3.6l-3.4.6.9-1.3-.9 1.3 1-.2 2.4-.5zm-.2-.9z"/><path d="M22.6 3.6v-.2.1l.1.1.2.1-.5-1 .2.4.3.6zm0-.1l-.7-1.1z"/><path d="M20.1 2.9l2.5.6-.7-1.1-1.3.4-.5.1zm2.5.6l-.7-.2-1.8-.4 1.8-.5.7 1.1zm-.7-1.1zm.7 1.1z"/><path d="M22.6 3.5v-.2l-.1-.7h-.1l-.4-.2.6 1.1zm-.7-1.1l.5.3.2.8-.7-1.1zM3 21.4l-1.5 1.1zm0 .1l.3 2.2zm-3 2.2l1.2-.9zm3.4.5h-.1l-2.6-.1H0h1.3zm0 0zM3 21.4zm1 2.3zm-1-2.3l.5 1.3-.5-1.2.3 2.2.1.5.6-.5-.6.5zm0 0zm-3 .7l2.1-.5zm0 0l.9-.2zm3-.7l-1.8 1.4-1.2.9 1.5-1.2zm1.8.5L3 21.4zm0 0z"/><path d="M3 21.4l.5 1.2.4 1 .8-1.7-1.7-.5zm1.1 1.9l-.1.4-1-2.2 1.8.4-.7 1.4zM3 21.4l-.9.2-2.1.5.9-.2zm-1.2-1L0 21.6h.1zm0 0l.4.3zm0 0zm1.9.4zm-.7.6z"/><path d="M3.2 21.3l-.2.1 1.8.5-1-1h-.1l1 .8.1.2-1.8-.5zm-.1-.5l-.1.6z"/><path d="M3.1 20.8l-.1.6.2-.1.5-.4h-.3l-.3-.1zm0 0h.6l-.7.6.1-.6zm-.1.6zm-1.2-1l1.2 1 .1-.6-1.3-.4zm0 0l.8.3.4.2v.5l-.8-.7-.4-.3zm3.9-1.9l.1.3zm.6 1.7l-.4-1zm-1.8-.3l.6.1 1.2.2zm0 0zm1.8.3zm2.5-2.7zm0 0zm-3.1 1l.2.7.4 1 2.5-2.7-1.4 1.6-1.1 1.1-.5-1.4-.1-.3zm0 0h-.2zm-1.2 1.4l-.3-.5-.7-1.2.3.5.7 1.2 1.2-1.4zm-1-1.7zm2.2.3l-.3-1.8zm-.6-3.8z"/><path d="M5.7 18.3l-.6-3.6-1.6 3.5 2 .3h.2l-2.2-.3.6-1.3 1-2.2zm0 .2zm1.1-1.9l-.5.9z"/><path d="M6.8 16.6l.1.1 1.9.8-3.1 1 3.1-1-2-.8-.5.8.5-.9zm-1.1 1.9z"/><path d="M5.1 14.7l.6 3.6v.2l.6-1 .5-.8-1.1-1.2-.6-.8zm.6 3.8l-.3-1.8-.3-2 1.7 1.9-.5.8-.6 1.1zm18.4-9.1l-.2.6.2-.6zm1.4 1.7l-1.7.7zm-1.3-1.7h-.1l-.1.3.1-.3zM23 12.1zm-.6-3.5z"/><path d="M23 12.1l-.6-3.5.6 3.5.9-2.1.2-.6-.1.3-1 2.4zm1.1-2.7h.4zm0 0h.1l1.3.9-1.3-.9zM24 7.9l1.5.9zm0 0l.1 1.5zm0 0zm.1 1.5z"/><path d="M24.1 9.4L24 8l.1 1.4h.4l1-.1-1.3.1z"/><path d="M24.1 9.4L24 8v-.1l-1.5.7 1.6.8zm0 0l-1.7-.8 1.1-.5.5-.2.1 1.5zM5.8 12.3v-.9.9zm0-1.3v.7-.7zm0 0l-.8-.4zm0 1.3zm-.9-1.7zm.4.2l-.3-.2.6 1.3.2.4-.8-1.7h-.1.1zm4.5 2.4zm0 0l-.3 1.3zm-.9.8l.9-.8zm-1.2 1l2.1-1.8zm1.5.7zM7.7 15zm0 0l1.5.7.2-1.1-.2 1.1-.9-.4-.6-.3zm2.1-1.8l.5.3zm.9.6l-.5-.3.5.3zm.1 0z"/><path d="M9.5 14.5l-.3 1.2 1.5-1.9-1.2 1.5-.3.4.2-1.1.4-1.4zm-2-2.9l.9.6-.9-.6z"/><path d="M7.7 15l1.2-1 .9-.8-2.2-1.6.1 3.4zm2.1-1.8L7.7 15l-.2-3.4 2.3 1.6zm-.5-1.6l.2.8-.2-.8zm0 0l1.4 2.2h.1-.1l-.4-.3-.5-.3.4.3.5.3-.4-.7-1-1.5.3.8-.3-.9zm0-.1zm.5 1.7zm-2.3-1.6z"/><path d="M9.3 11.5H7.5l2.2 1.6-.2-.8-.2-.8zm-.9.7l-.9-.6h1.8l.2.8.2.8-1.3-1zm6.3-8.8l-2.6 1zm-.3 2.1zm0 0l-3-.8v-.1l.6.2 2.4.7.3-2.1-1.7.7 1.7-.7zm-3-.9z"/><path d="M15.6 3.6l-.9-.2-.3 2.1 2.2-1.7-2.2 1.7.3-2.1zm1 .2l-1.3-.3zm0 0zm-3.5-1.7l1.6 1.3zm0 0zm-.1 2l-1.6.5v.1-.1l1.7-2.5L11.8 4l-.4.6.7-.2 2.6-1zm3-1.7l-1.3 1z"/><path d="M16.6 3.8l-1-.2-.9-.2.6.1 1.3.3-.5-1.4-.4.3.4-.3zm-.5-1.4zm-1.4 1z"/><path d="M16.1 2.4l-3-.3 1.5 1.3 1-.7.5-.3zm-1.4 1l-1.5-1.3 3 .3h-.1l-1.4 1zM13.1 13l.6-2.9zm0 0zm2.6-1.3L13.1 13l.4-2.2-.4 2.2.4-.2 2.5-1.3-2-3.2 2.1 3.2zm.4-.2zM14 8.3l-2.9.4 2.9-.4zm-3.9.6z"/><path d="M10.1 8.9l3 4.1.6-2.9.3-1.8-.5 2.5-.4 2.2-3-4.1zm6-.9l-2.1.3zm0 3.5L14 8.3l2.1 3.2V9.3l.1-1.3-1.7.2 1.7-.2zm.1-3.5zm-6.1.9z"/><path d="M13.4 7.5l-3.3 1.4 1-.2 2.9-.4-.5-.7.5.7-3.9.6 1.4-.6zm0 0zm.6.8v-.5z"/><path d="M14.5 8.2l-.5.1 2.1-.3-2.1-.2v-.1l1.7.2.5.1zm-.5.1zm0 0v-.6l-.6-.3.1.1.5.8zm0 0l-.6-.8.6.3v.5zm-8.2 4l1-.4.7-.3-.2-.2.2.2-.2.1-1.5.6.8-1.4zm0 0zm1.7-.7z"/><path d="M5.8 12.3V11v1.3l.8-1.4zm4.3-3.4zm-3.5 2l1.7-.9-1.7.9zm3.5-2l-.9.5z"/><path d="M6.6 10.9l.9.7.8-.8 1.8-1.9-1.7 1.7-.9 1-.2-.2-.7-.5zm.1 0h-.1zm-1.8-.3zm1.7.3l-.8.1-.5-.2-.3-.2.8.4.8-.1zM5.3 8.3l-.9-1.6zm-.9-1.6z"/><path d="M4.4 6.7l.2 1.4.3 2.5H5l1.6.3-2.2-4.2zm2.2 4.2L5 10.6l-.3-2.3-.3-1.6 2.2 4.2zm0 0zm0 0l1.2-2.7zm2.1-4.8zm-2.1 4.8zm3.5-2L8.7 6.1l-2.1 4.8 1.7-.9 1.8-1.1zM8.7 6.1l1.4 2.8-.9.5-2.6 1.5 2.1-4.8z"/><path d="M8.7 6.1l-4.3.6 2.2 4.2 2.1-4.8zm-4.3.6l.5-.1 3.8-.5-.9 2.1-1.2 2.7-1.3-2.6-.9-1.6zM18 15.2l1.7 2.1zm0 0l-.3.6zm1.7 2.1l-.5-.1-1.7-.7.2-.4-.2.4 2.2.8-1.7-2.1zm0 0zM18 15.2zm3.8.4l-2.1-.2 2.1.2zm-2.1 1.7L18 15.2l1.6.2-1.6-.2 1.7 2.1 1.6-1.3.5-.4-.4.3-1.7 1.4zm2.1-1.7z"/><path d="M18 15.2l-1.7 1.7 1.2-.4.2-.5.3-.8zm0 0l-.2.6-.3.7-1.2.4 1.7-1.7z"/><path d="M16.3 16.9L18 15l-1.6 1.8 1.6-1.6zm5.5-1.3l-2.2-.2-1.6-.2 1.7.2 2.1.2-2.8-2.3 2.2 1.8.6.5zm-3.8-.4l.3-.7zm0 0z"/><path d="M19 13.3L18 15v.2l1-1.9zm-.1.2l-.6 1.1-.3.6V15l.1-.1.8-1.4zm5.7.5l.9.2zm-.7 1.8zm.7-1.8l.9.2zm-.7 1.8l.4-.9-.4.9 1.4-1.2.2-.1-.5.4z"/><path d="M23.9 15.8l-1.1-2.9 1.8 1.1-1.8-1.1 1.1 2.9.7-1.8-.3.9-.4.9zm-1.1-3zm1.8 1.2l.9-1.8zm0 0l.9-1.8-.9 1.8.9.2zm0 0zM23 12.1zm1.6 1.9zm0 0L23 12.1zm0 0l-1.8-1.1v-.1l.1-.2.1-.5-.1.4-.1.3v.1l1.8 1.1-.4-.5z"/><path d="M24.6 14l-.4-.5-1.2-1.4.8-.3 1.7-.7-2.5 1 1.6 1.9.9-1.8zm.8 10.1l-1-.6zm-1-.6l1.1.8zm-1.2 1.6l1-1.4-1 1.3 2.3.2zm0 0zm1.2-1.6l.3-.1zm0 0l1.1-.2zm0 0l1 .6.1.1v.1zm-4 .2h.1-.1z"/><path d="M20.5 23.7l2.7-.2-2.7.2 1.8.9.9.4 1.2-1.5-.2.2-1 1.4-2.7-1.4zm-.1-2.8zm4 2.6z"/><path d="M20.5 23.7l-.1-1.2v-1.6l3.1 2-3.1-2 .1 2.1v.7l3.9-.2h-1.2l-2.7.2zm3.9-.2zm0 0l1.1-3.1-1.1 3.1.3-.1.8-.2v.1zm0-.1l-.8-3.2zm-.8-3.2zm.8 3.3z"/><path d="M24.4 23.5l-.9-.6-3.1-2 2.1-.5 1.1-.2.3 1.3-.3-1.3h-.3l-2.9.7 4 2.6z"/><path d="M24.4 23.5l-.5-2-.3-1.3 1.9-.2-1.9.2.8 3.2 1.1-3.1v.1zM.6 7L0 8l.6-1H0zm0 0zm0 0H0h.6L0 6.5zm16.9 9.4c-.1 0-.2.1-.2.2s.1.2.2.2.2-.1.2-.2c-.1-.2-.1-.2-.2-.2z"/><path d="M23.6 20c-.1 0-.2.1-.2.2s.1.2.2.2.2-.1.2-.2-.1-.2-.2-.2zm.3-4.4c-.1 0-.2.1-.2.2s.1.2.2.2.2-.1.2-.2-.1-.2-.2-.2zM5.1 21.7c-.1 0-.1.1-.1.2 0 0 0 .1.1.1s.2-.1.2-.2c0 0-.1-.1-.2-.1zm-3.4-8.8c-.1 0-.2.1-.2.2s.1.2.2.2.2-.1.2-.2c0-.2-.1-.2-.2-.2zm2.7-6.3c-.1 0-.2.1-.2.2s.1.2.2.2.2-.1.2-.2-.1-.2-.2-.2zm1.7-1.9s-.1 0-.1.1.1.2.1.2c.1 0 .2-.1.2-.2s-.1-.1-.2-.1zm3.2 14.8c-.1 0-.2.1-.2.2s.1.2.2.2.2-.1.2-.2c-.1-.2-.2-.2-.2-.2zm9.9-7.9c-.1 0-.2.1-.2.2s.1.2.2.2.2-.1.2-.2-.1-.2-.2-.2zM21 8.2c-.1 0-.2.1-.2.2s.1.2.2.2.2-.1.2-.2c0-.2-.1-.2-.2-.2zm-7.4 14.3c-.1 0-.2.1-.2.2s.1.2.2.2.2-.1.2-.2l-.2-.2zm-4.4-7c-.1 0-.2.1-.2.2s.1.2.2.2.2-.1.2-.2c-.1-.1-.1-.2-.2-.2zm3.9-2.7c-.1 0-.1.1-.1.2s.1.2.2.2.2-.1.2-.2c-.1-.1-.2-.2-.3-.2zM8.7 6c-.1 0-.1 0 0 0-.1.2 0 .3.1.3s.2-.1.2-.2C8.9 6 8.8 6 8.7 6zm11.7 17.6c-.1 0-.2.1-.2.2s.1.2.2.2.2-.1.2-.2c0-.2-.1-.2-.2-.2zm-10 0c-.1 0-.2.1-.2.2s.1.2.2.2.2-.1.2-.2-.1-.2-.2-.2zm3.3-17.3c-.1 0-.2.1-.2.2s.1.2.2.2.2-.1.2-.2-.1-.2-.2-.2zm5.3 6.9c-.1 0-.2.1-.2.2s.1.2.2.2.2-.1.2-.2-.1-.2-.2-.2zm-1.6 8.5c-.1 0-.2.1-.2.2s.1.2.2.2.2-.1.2-.2-.1-.2-.2-.2zM22.2.8c-.1 0-.2.1-.2.2s.1.2.2.2.2-.1.2-.2-.1-.2-.2-.2zm-3 3.2c-.1 0-.2.1-.2.2s.1.2.2.2.2-.1.2-.2-.1-.2-.2-.2zm-5.1 20c-.1 0-.2.1-.2.2s.1.2.2.2.2-.1.2-.2-.1-.2-.2-.2zm2.1-16.2c-.1 0-.2.1-.2.2s.1.2.2.2.2-.1.2-.2c.1-.1-.1-.2-.2-.2zm-3.1-5.9c-.1 0-.2.1-.2.2s.1.2.2.2.2-.1.2-.2-.1-.2-.2-.2zm1.3 3.4c-.1 0-.2.1-.2.2s.1.2.2.2.2-.1.2-.2c.1-.1 0-.2-.2-.2zM1.2 9.7c-.2 0-.3.1-.3.2s.1.2.2.2.2-.1.2-.2c.1-.1 0-.2-.1-.2zm1-7.1c-.1 0-.2.1-.2.2s.1.2.2.2.2-.1.2-.2-.1-.2-.2-.2zM21 17.9c-.1 0-.2.1-.2.2s.1.2.2.2.2-.1.2-.2-.1-.2-.2-.2zm-4.7 2.3c-.1 0-.2.1-.2.2s.1.2.2.2.2-.1.2-.2-.1-.2-.2-.2zm6.6-16.7c-.1 0-.2.1-.2.2s.1.2.2.2.2-.1.2-.2c.1-.1 0-.2-.2-.2zm1.9 13.9c-.1 0-.2.1-.2.2s.1.2.2.2.2-.1.2-.2c.1-.1 0-.2-.2-.2zM9.4 2.2c-.1 0-.2.1-.2.2s.1.2.2.2.2-.1.2-.2c.1 0 0-.2-.2-.2zM16 17.7c-.1 0-.2.1-.2.2s.1.2.2.2.2-.1.2-.2-.1-.2-.2-.2zm8-10c-.1 0-.2.1-.2.2s.1.1.2.1.2-.1.2-.2-.1-.1-.2-.1zm-19.5 12c-.1 0-.2.1-.2.2s.1.2.2.2.2-.1.2-.2-.1-.2-.2-.2zm.6-5.2c-.1 0-.2.1-.2.2s.1.2.2.2.2-.1.2-.2-.1-.2-.2-.2zm-.9-4.6c-.1 0-.2.1-.2.2s.1.2.2.2.2-.1.2-.2-.1-.2-.2-.2zm.7-5.6c-.1 0-.2.1-.2.2s.1.2.2.2.2-.1.2-.2-.1-.2-.2-.2zm4.4 7c-.1 0-.2.1-.2.2s.1.2.2.2.2-.1.2-.2c.1-.1 0-.2-.2-.2zM7.8 23.1c-.1 0-.2.1-.2.2s.1.2.2.2.2-.1.2-.2-.1-.2-.2-.2zm12.7-2.4c-.1 0-.2.1-.2.2s.1.2.2.2.2-.1.2-.2c.1-.1 0-.2-.2-.2zm4.4-19.5c-.1 0-.2.1-.2.2s.1.2.2.2.2-.1.2-.2-.1-.2-.2-.2zM3.4 24c-.1 0-.2.1-.2.2s.1.2.2.2.2-.1.2-.2c.1-.1 0-.2-.2-.2zm18.4-8.6c-.1 0-.1.1-.1.1 0 .1.1.1.1.1.1 0 .1-.1.1-.1.1 0 0-.1-.1-.1zm2.3-6.2c-.1 0-.1.1-.1.2s.1.1.1.1c.1 0 .1-.1.1-.1.1-.1 0-.2-.1-.2zm-8 2.2c-.1 0-.1.1-.1.1 0 .1.1.1.1.1.1 0 .1-.1.1-.1 0-.1-.1-.1-.1-.1zm-4.9 5.1c-.1 0-.2.1-.2.2s.1.2.2.2.2-.1.2-.2-.1-.2-.2-.2zm6.3 7.9c-.1 0-.2.1-.2.2s.1.2.2.2.2-.1.2-.2-.1-.2-.2-.2zm1.9-.7c-.1 0-.2.1-.2.2s.1.2.2.2.2-.1.2-.2-.1-.2-.2-.2zm-1.4-9c-.1 0-.2.1-.2.2s.1.2.2.2.2-.1.2-.2-.1-.2-.2-.2zm4.8-2.1c-.1 0-.2.1-.2.2s.1.2.2.2.2-.1.2-.2-.1-.2-.2-.2zm-7.8 11c-.1 0-.2.1-.2.2s.1.2.2.2.2-.1.2-.2-.1-.2-.2-.2zm-7.9-2.2c-.1 0-.2.1-.2.2s.1.2.2.2.2-.1.2-.2c.1-.1 0-.2-.2-.2zm17.3 1.8c-.1 0-.2.1-.2.2s.1.2.2.2.2-.1.2-.2c.1-.1 0-.2-.2-.2zm.7-17.1c-.1 0-.2.1-.2.2s.1.2.2.2.2-.1.2-.2-.1-.2-.2-.2zm-2.6 2.3c-.1 0-.2.1-.2.2s.1.2.2.2.2-.1.2-.2c.1-.1 0-.2-.2-.2zM6.6 10.7c-.1 0-.2.1-.2.2s.1.2.2.2.2-.1.2-.2c.1-.1 0-.2-.2-.2zM2.8 6.5c-.1 0-.2.1-.2.2 0 .2.1.3.2.3.2 0 .3-.1.3-.3 0-.1-.1-.2-.3-.2zm15.1-1.1c-.1 0-.2.1-.2.2s.1.2.2.2.2-.1.2-.2-.1-.2-.2-.2zm-6.5-1c-.1 0-.2.1-.2.2s.1.2.2.2.2-.1.2-.2-.1-.2-.2-.2zM6.7.4c-.1 0-.2.1-.2.2s.1.2.2.2.2-.1.2-.2-.1-.2-.2-.2zM1.8 20.1c-.1 0-.2.1-.2.2s.1.2.2.2.2-.1.2-.2-.1-.2-.2-.2zM16.1 2.2c-.1 0-.2.1-.2.2s.1.2.2.2.2-.1.2-.2-.1-.2-.2-.2zm3.5 4c-.1 0-.2.1-.2.2s.1.2.2.2.2-.1.2-.2l-.2-.2zm.6-3.4c-.1 0-.2.1-.2.2s.1.2.2.2.2-.1.2-.2c0-.2-.1-.2-.2-.2zm-9.6 16.5c-.1 0-.2.1-.2.2s.1.2.2.2.2-.1.2-.2-.1-.2-.2-.2z"/><circle cx="4.9" cy="23.2" r=".2"/><path d="M8.8 17.4c-.1 0-.2.1-.2.2s.1.2.2.2.2-.1.2-.2c-.1-.2-.1-.2-.2-.2zm7.5-.6c-.1 0-.2.1-.2.2s.1.2.2.2.2-.1.2-.2c-.1-.2-.2-.2-.2-.2zm-6.2-8c-.1 0-.2.1-.2.2s.1.2.2.2.2-.1.2-.2c-.1-.2-.1-.2-.2-.2zM3.5 18c-.1 0-.2.1-.2.2s.1.2.2.2.2-.1.2-.2c-.1-.1-.1-.2-.2-.2zm-.4 3.3c-.1 0-.2.1-.2.2s.1.2.2.2.2-.1.2-.2c-.1-.1-.1-.2-.2-.2zm-1.3-4.9c-.1 0-.2.1-.2.2s.1.2.2.2.2-.1.2-.2-.1-.2-.2-.2zM22.7 5.9c-.1 0-.2.1-.2.2s.1.2.2.2.2-.1.2-.2-.1-.2-.2-.2z"/><path d="M9.1 8c0 .1-.1.2-.2.2 0 0-.1-.1-.1-.2s.1-.2.2-.2c.1.1.1.1.1.2zM5.5 1.9c0 .1-.1.1-.2.1 0 0-.1 0-.1-.1s.1-.2.2-.2c0 0 .1.1.1.2zm4.4-.3c0 .1-.1.2-.2.2s-.2-.1-.2-.2.1-.2.2-.2.2.1.2.2zM3.8 20.4c0 .1-.1.2-.2.2s-.2-.1-.2-.2.1-.2.2-.2.2.1.2.2zm8.8 3.4c0 .1-.1.2-.2.2s-.2-.1-.2-.2.1-.2.2-.2c.2 0 .2.1.2.2zm6.3-2.7c0 .1-.1.2-.2.2s-.2-.1-.2-.2.1-.2.2-.2.2.1.2.2zm1.9-1.7c0 .1-.1.2-.2.2s-.2-.1-.2-.2.1-.2.2-.2c.2 0 .2.1.2.2zM6 16.2c0 .1-.1.2-.2.2s-.2-.1-.2-.2.1-.2.2-.2c.2.1.2.2.2.2zm7.9-9.9c0 .1-.1.2-.2.2s-.2-.1-.2-.2.1-.2.2-.2.2.1.2.2zm3.4-1.8c0 .1-.1.2-.2.2s-.2-.1-.2-.2.1-.2.2-.2c.2 0 .2.1.2.2zM3 11.9c0 .1-.1.2-.2.2s-.2-.1-.2-.2.1-.2.2-.2l.2.2zm7 4.4c0 .1-.1.2-.2.2s-.2-.1-.2-.2.1-.2.2-.2c.1.1.2.1.2.2zm2.7-3.9c0 .1-.1.2-.2.2s-.2-.1-.2-.2.1-.2.2-.2.2.1.2.2zm6.8 4.4c0 .1-.1.2-.2.2s-.2-.1-.2-.2.1-.2.2-.2c.2 0 .2.1.2.2zM1.9 5.1c0 .1-.1.2-.2.2s-.2-.1-.2-.2.1-.2.2-.2c.2 0 .2.1.2.2zm0 10c0 .1-.1.2-.2.2s-.2-.1-.2-.2.1-.1.2-.1c.1-.1.2 0 .2.1zm17.3-3.3c0 .1-.1.2-.2.2s-.2-.1-.2-.2.1-.2.2-.2.2.1.2.2zm-6.9-5.3c0 .1-.1.2-.2.2s-.1-.1-.1-.2.1-.2.2-.2.1.1.1.2zM3.8 8.1c0 .1-.1.2-.2.2s-.2-.1-.2-.2.1-.2.2-.2.2.1.2.2zm20.9-4.8c0 .1-.1.2-.2.2s-.2-.1-.2-.2.1-.2.2-.2.2.1.2.2zm-3.2 3c0 .1-.1.2-.2.2s-.2-.1-.2-.2.1-.2.2-.2.2.1.2.2zm-20 5.1c0 .1-.1.2-.2.2s-.2-.1-.2-.2.1-.2.2-.2.2.1.2.2zm16.2-2.1c0 .1-.1.2-.2.2s-.2-.1-.2-.2.1-.2.2-.2c.1-.1.2.1.2.2zm5.9 3.1c0 .1-.1.2-.2.2s-.2-.1-.2-.2.1-.2.2-.2.2.1.2.2zm-3.4-1.3c0 .1-.1.2-.2.2s-.2-.1-.2-.2.1-.2.2-.2c.1-.1.2 0 .2.2zm-4.4 13.2c0 .1-.1.2-.2.2s-.2-.1-.2-.2.1-.2.2-.2.2.1.2.2zm7.1-1c0 .1-.1.2-.2.2s-.2-.1-.2-.2.1-.2.2-.2.2.1.2.2zM7.6 4.5c0 .1-.1.2-.2.2s-.2-.1-.2-.2.1-.2.2-.2.2.1.2.2zM5.3 9.2c0 .1-.1.2-.2.2s-.2-.1-.2-.2.1-.2.2-.2.2.1.2.2zM22 2.6c0 .1-.1.2-.2.2s-.2-.1-.2-.2.1-.2.2-.2c.1-.1.2 0 .2.2zM8.1.7c0 .1-.1.2-.2.2S7.7.8 7.7.7s.1-.2.2-.2c.1-.1.2 0 .2.2zm15.2 15.4c0 .1-.1.2-.2.2s-.2-.1-.2-.2.1-.2.2-.2c0-.1.2 0 .2.2zM7.8 9.5c0 .1-.1.2-.2.2s-.2-.1-.2-.2.1-.2.2-.2.2.1.2.2zm10-8c0 .1-.1.2-.2.2s-.2-.1-.2-.2.1-.2.2-.2c.1.1.2.1.2.2zM5.8 21c0 .1-.1.2-.2.2s-.2-.1-.2-.2.1-.2.2-.2.2.1.2.2zm5.2-.6c0 .1-.1.2-.2.2s-.2-.1-.2-.2.1-.2.2-.2.2.1.2.2zm4.6.9c0 .1-.1.2-.2.2s-.2-.1-.2-.2.1-.2.2-.2.2.1.2.2zm5.6-.7c0 .1-.1.2-.2.2s-.2-.1-.2-.2.1-.2.2-.2.2.1.2.2zm-7-4.4c0 .1-.1.2-.2.2s-.2-.1-.2-.2.1-.2.2-.2c.1-.1.2 0 .2.2zM2.4 17.7c0 .1-.1.2-.2.2s-.2 0-.2-.2c0-.1.1-.2.2-.2s.2.1.2.2zM4.8 5c0 .1-.1.2-.2.2-.2 0-.3-.1-.3-.2s.1-.2.2-.2c.2-.1.3 0 .3.2zM24.3.6c0 .1-.1.2-.2.2s-.2-.1-.2-.2.1-.2.2-.2.2.1.2.2zM1.5 22.1c0 .1-.1.2-.2.2s-.3-.1-.3-.2.1-.2.2-.2.3.1.3.2zm8.6-18.4c0 .1-.1.1-.1.1-.1 0-.1-.1-.1-.1 0-.1.1-.1.1-.1 0-.1.1 0 .1.1zm6.2-2.3c0 .1-.1.1-.1.1-.2 0-.2 0-.2-.1s.1-.1.1-.1c.1-.1.2 0 .2.1zm-2.2 8c0 .1-.1.1-.1.1-.1 0-.1-.1-.1-.1 0-.1.1-.1.1-.1.1 0 .1.1.1.1zM9 14.3c0 .1-.1.2-.2.2s-.2-.1-.2-.2.1-.2.2-.2.2.1.2.2zM1.1 8c0 .1-.1.2-.2.2-.1.1-.2-.1-.2-.2s.1-.2.2-.2.2.1.2.2zm.7-1.9c0 .1-.1.2-.2.2s-.3-.1-.3-.2.1-.2.2-.2.3.1.3.2zm9 1.4c0 .1-.1.2-.2.2s-.2-.1-.2-.2.1-.2.2-.2.2.1.2.2zm2.1-4.8c0 .1-.1.2-.2.2s-.2-.1-.2-.2.1-.2.2-.2.2.1.2.2zm-11 7.8c0 .1-.1.2-.2.2s-.2-.1-.2-.2.1-.2.2-.2.2.1.2.2zm2.2 7.9c0 .1-.1.2-.2.2s-.2-.1-.2-.2.1-.2.2-.2c.1-.1.2 0 .2.2zM2.3 1.1c0 .1-.1.2-.2.2s-.2-.1-.2-.2.1-.2.2-.2c.1-.1.2 0 .2.2zM19.4.4c0 .1-.1.2-.2.2S19 .5 19 .4s.1-.2.2-.2.2.1.2.2zM17.1 3c0 .1-.1.2-.2.2s-.2-.1-.2-.2.1-.2.2-.2c.1-.1.2 0 .2.2zm-2.3 15.9c0 .1-.1.2-.2.2s-.2-.1-.2-.2.1-.2.2-.2c.1-.1.2 0 .2.2zm4.2 3.8c0 .1-.1.2-.2.2s-.2-.1-.2-.2.1-.2.2-.2c.1-.1.2 0 .2.2zm1.1-15.1c0 .1-.1.2-.2.2s-.2-.1-.2-.2.1-.2.2-.2.2.1.2.2zm1 6.5c0 .1-.1.2-.2.2s-.2-.1-.2-.2.1-.2.2-.2.2.1.2.2zm4 4.7c0 .1-.1.2-.2.2s-.2-.1-.2-.2.1-.2.2-.2.2.1.2.2zM5.4 23.7c0 .1-.1.2-.2.2s-.2-.1-.2-.2.1-.2.2-.2.2.1.2.2zM23.3 9.4c0 .1-.1.2-.2.2s-.2-.1-.2-.2.1-.2.2-.2.2.1.2.2zm-4-3.5c0 .1-.1.2-.2.2s-.2-.1-.2-.2.1-.2.2-.2l.2.2zm3.4-.6c0 .1-.1.2-.2.2s-.2-.1-.2-.2.1-.2.2-.2c.2 0 .2.1.2.2zM6.2 14.9c0 .1-.1.2-.2.2s-.2-.1-.2-.2.1-.2.2-.2.2.1.2.2zm-3.8 5.7c0 .1-.1.2-.2.2s-.2-.1-.2-.2.1-.2.2-.2c.2.1.2.1.2.2zm5.7-3.9c0 .1-.1.2-.2.2s-.2-.1-.2-.2.1-.2.2-.2c.2.1.2.1.2.2zm.6-7.5c0 .1-.1.2-.2.2s-.2-.1-.2-.2.1-.2.2-.2c.2.1.2.2.2.2zm8 6.2c0 .1-.1.2-.2.2s-.2-.1-.2-.2.1-.2.2-.2c.2.1.2.1.2.2zM7.5 22c0 .1-.1.2-.2.2s-.2-.1-.2-.2.1-.2.2-.2c.1.1.2.1.2.2zm-3.3.4c0 .1-.1.2-.2.2s-.2-.1-.2-.2.1-.2.2-.2c.1.1.2.1.2.2zm4.9 1.3c0 .1-.1.2-.2.2s-.2-.1-.2-.2.1-.2.2-.2.2.1.2.2zM19.6 2.8c0 .1-.1.2-.2.2s-.2-.1-.2-.2.1-.2.2-.2c.1.1.2.1.2.2z" opacity=".3"/></g></svg>