<svg id="Layer_1" xmlns="http://www.w3.org/2000/svg" viewBox="0 0 120 120"><g opacity=".06" fill="#47036F"><path d="M0 112.2v.1h2.8l-.2 7.6h.1l.2-7.7zm0 7.2v.1l.5.4h.2zm18-25.5L1.5 88.8l16.8-24.7v.1L18 93.9zM1.6 88.7L18 93.8l.3-29.5L1.6 88.7zm-.1.1l2.6-24.6h14.1L1.5 88.8zm2.7-24.6L1.6 88.6l16.6-24.4h-14z"/><path d="M9.3 36.1L0 50.5v.1l9.3-14.3-5.1 27.8L0 61.9v.1l4.2 2.2 5.2-28.1zM1.5 88.7l-1.5.9 1.5-.8L7.9 103 0 101.7v.1l8 1.3zM0 19.9v.1l6.3-.3L0 25.6v.1l6.5-6.1z"/><path d="M24.8 44.6L9.2 36.1l12-3.8 3.6 12.3zM9.4 36.1l15.2 8.3-3.5-12-11.7 3.7zM0 101.7v.1l7.9 1.3-7.9 4v.1l8-4.1.1-.1zm0-18.8v.3l1.5 5.5-1.5.9 1.5-.8h.1z"/><path d="M8 103.1L1.4 88.7h.1L18 93.9l-10 9.2zM1.6 88.8L8 103l9.9-9.1-16.3-5.1zM120 10L100.3.2l.5-.2h-.2l-.4.2h-.1l19.9 9.9zM0 61.9v.1l4.1 2.2L0 67.6v.1l4.2-3.5h.1z"/><path d="M0 67.6v.1l4.2-3.4-2.7 24.3L0 82.9v.3l1.5 5.6 2.7-24.6.1-.1zm0-52.2v.1l6.3 4.1-6.3.3v.1l6.5-.3z"/><path d="M0 15.4v.1l6.4 4.3L.9 0l5.4 19.6zm0 91.7v.1l7.9-4.1-5.1 9.1H0v.1h2.9l5.2-9.3z"/><path d="M6.4 19.7v-.1l-6.4 6v.1l6.3-6 3 16.4-9.3.1v.1l9.3-.1h.1z"/><path d="M0 36.2v.1l9.3-.1L0 50.5v.1l9.4-14.5zM12.7 0L6.4 19.5.9 0l5.4 19.7.1.1L12.8 0z"/><path d="M18.2 64.3v-.1L9.3 36.1h.1l15.4 8.4-6.6 19.8zM9.4 36.2l8.8 27.9 6.4-19.6-15.2-8.3zm6.6 83.7l-13.1-7.7 16.6-5.6-1.4 13.3 1.5-13.4-16.8 5.7 13.1 7.7z"/><path d="M40.1 56.5l-15.5-12 12.8-6 2.7 18zm-15.3-12L40 56.3l-2.7-17.7-12.5 5.9zm-22 67.8L8 103l11.7 3.5h-.1l-16.8 5.8zm5.2-9.2l-5.1 9.1 16.5-5.6L8 103.1z"/><path d="M2.7 119.9l.2-7.6 13 7.6h.1l-13.1-7.7h-.1l-.2 7.7zm15.6-55.7H4.2l5.1-28.1h.1l8.9 28.1zm-14.1 0h13.9L9.3 36.3 4.2 64.2zm35.9-7.7v-.1l-2.7-17.9 10.3.5-7.6 17.5zm-2.7-17.9l2.7 17.6 7.5-17.1-10.2-.5zm-17.8 68l-11.7-3.5 10-9.2v.1l1.7 12.6zM8.1 103l11.5 3.5L17.9 94l-9.8 9z"/><path d="M18 93.9l.2-29.8h.1l10.8 5.7L18 93.9zm.3-29.6L18 93.7l11-23.8-10.7-5.6zm-9-28.1l-3-16.6 15 12.8-12 3.8zM6.4 19.8l2.9 16.3 11.8-3.7L6.4 19.8zm64.5 6.9L57 18.1 72.5 6.6v.1l-1.6 20zM57.1 18l13.7 8.6 1.6-19.8L57.1 18z"/><path d="M21.2 32.4L6.3 19.7v-.1l19.2 5.7-4.3 7.1zM6.5 19.8l14.7 12.5 4.3-6.9-19-5.6zm20.6 100.1l16.7-2.2-.3 2.2h.1l.3-2.3-17.4 2.3z"/><path d="M13.6 0l11.8 25.3-19-5.7L12.8 0h-.1L6.3 19.7l19.2 5.7h.1L13.7 0zM120 15.1l-21.9 2.1L100.3.3l19.7 9.8V10L100.2.2l-2.2 17v.1l22-2.2zM18.1 119.9l1.5-13.3 24.1 11-17.2 2.3h.6l16.9-2.3-24.4-11.1h-.1l-1.4 13.4zM57 18.1l-1.6-9.5 17.2-1.9L57 18.1zm-1.5-9.5l1.6 9.3L72.3 6.8 55.5 8.6zM29.3 0L33 5.3 16.6 0h-.2l16.7 5.4h.1L29.4 0z"/><path d="M16.4 0L33 5.4l-7.5 19.8L13.7 0h-.1l11.9 25.4 7.6-20.1L16.6 0zm8.3 44.5l-3.5-12.3 16.3 6.3h-.1l-12.7 6zm-3.4-12.1l3.5 12 12.6-5.9-16.1-6.1z"/><path d="M37.4 38.6l-16.2-6.2 4.4-7.1 11.8 13.3zm-16.1-6.3l16 6.1-11.8-13-4.2 6.9zm-1.7 74.3L18 93.8l20.4-2.4-18.8 15.2zM18 93.9l1.6 12.6 18.5-15L18 93.9z"/><path d="M17.9 93.9L29 69.8v.1l9.2 21.6-20.3 2.4zM29 70L18 93.8l20.1-2.4L29 70z"/><path d="M29 69.9l-10.9-5.7h.1l22-7.9L29 69.9zm-10.7-5.7L29 69.8l11-13.4-21.7 7.8z"/><path d="M18.2 64.3l6.5-19.8 15.4 11.9H40l-21.8 7.9zm6.5-19.7l-6.4 19.6L40 56.4 24.7 44.6zm19.2 73.1l-24.4-11.1 18.7-15.1v.1l5.7 26.1zm-24.3-11.2l24.2 11-5.6-26-18.6 15z"/><path d="M52.3 62.6L40 56.4 47.6 39v.1l4.7 23.5zm-12.2-6.2l12 6.2-4.5-23.3-7.5 17.1zM56.7 0l-1.3 8.5L52 0h-.1l3.6 8.7L56.8 0zM36.2 0l-3.1 5.3L29.4 0h-.1L33 5.4h.1L36.3 0zm1.2 38.6l-12-13.3h.1L57.2 18l-.1.1-19.7 20.5zM25.6 25.4l11.8 13.1L57 18.1l-31.4 7.3z"/><path d="M57.1 18.1L33 5.4v-.1l22.4 3.2 1.7 9.6zM33.3 5.4L57 18l-1.6-9.3-22.1-3.3zm40.8 108l-11.7-11.7 14.1-8.4-2.4 20.1zm-11.6-11.7L74 113.2l2.4-19.8-13.9 8.3z"/><path d="M62.5 101.7l-3-19.2h.1l5.7 10-2.8 9.2zm-2.9-19l2.9 18.8 2.6-9-5.5-9.8zm-21.4 8.8L29 69.8l23.3-7.3v.1L38.2 91.5zm-9.1-21.6l9.1 21.5 14-28.7-23.1 7.2z"/><path d="M28.9 69.9l11.2-13.6 12.2 6.3h-.1l-23.3 7.3zm11.2-13.5l-11 13.4 23-7.2-12-6.2zm3.5 63.5l.3-2.2 4.2 2.2h.2l-4.4-2.3h-.1l-.3 2.3zM25.5 25.4L33 5.3 57.1 18H57l-31.5 7.4zm7.6-20l-7.5 19.9L57 18 33.1 5.4z"/><path d="M48.3 119.9l-4.4-2.3 18.5-15.8-8.3 18.1h.1l8.3-18.2h-.1l-18.6 15.9 4.3 2.3zM51.9 0l3.5 8.6-22.3-3.3L36.3 0h-.1L33 5.3v.1l22.4 3.2.1.1L52 0zM120 34.4l-9.2-4.8 9.2-7.9v-.1l-9.3 8v.1l9.3 4.8zm-72.3 4.7l-10.4-.5.1-.1L57 18h.1l-9.4 21.1zm-10.2-.6l10.1.5L57 18.2 37.5 38.5zm.6 53l14.1-29v.1l7.3 20-21.4 8.9zm14.1-28.8L38.3 91.4l21.2-8.9-7.3-19.8zm18.6-36L83.5 9.6v.1l2.2 15.4-14.9 1.6zM83.5 9.8L70.9 26.6 85.6 25 83.5 9.8z"/><path d="M43.8 117.7l-5.7-26.3h.1l24.3 10.3-18.7 16zm-5.6-26.2l5.6 26 18.5-15.8-24.1-10.2z"/><path d="M62.5 101.8L38.1 91.4h.1l21.4-8.9 2.9 19.3zM38.3 91.4l24.1 10.2-3-19-21.1 8.8zm62.5 28.2l-14.7-10.3 13-9.5v.1l1.7 19.7zm-14.5-10.3l14.5 10.2-1.6-19.6-12.9 9.4zM72 0l.4 6.6L68.7 0h-.1l3.8 6.7h.1L72.1 0zm48 21.6l-9.2 8-12.6-12.3 21.8-2.2-21.9 2.1H98l12.7 12.5 9.3-8z"/><path d="M68.6 0l3.8 6.7-16.9 1.9L56.8 0h-.1l-1.3 8.6 17.1-1.9L68.7 0zm-9.1 82.6l-7.3-20.1h.1l24.6 11.9h-.1l-17.3 8.2zm-7.2-20l7.2 19.8 17.2-8-24.4-11.8zM84.5 0l-.8 6.6L80 3.2 82.8 0h-.1l-2.8 3.2 3.9 3.6.8-6.8zM47.6 39.2L57.1 18l13.8 8.7-23.3 12.5zm9.5-21.1L47.7 39l23-12.3-13.6-8.6z"/><path d="M78.6 0L80 3.2l-7.5 3.5-.4-6.7H72l.4 6.7v.1L80 3.2 78.7 0z"/><path d="M82.7 0L80 3.1 78.7 0h-.1L80 3.2v.1L82.8 0zM54.2 119.9l8.3-18.1L74 113.3l-15.2 6.6h.2l15.1-6.6-11.6-11.7-8.4 18.3z"/><path d="M59 119.9l15-6.5-3.8 6.5h.1l3.8-6.6.1-.1-15.4 6.7zm3.4-18.1l2.7-9.3 11.4.8-.1.1-14 8.4zm2.8-9.2l-2.7 9.1 13.8-8.3-11.1-.8z"/><path d="M76.5 93.4l-11.4-.8 11.7-18.2-.3 19zm-11.3-.9l11.2.8.3-18.7-11.5 17.9zM83.5 9.8l.3-3.1h3.9l-4.2 3.1zm.3-3l-.3 2.9 3.9-2.9h-3.6z"/><path d="M65.2 92.6l-5.7-10.1 17.4-8.1-.1.1-11.6 18.1zm-5.6-10l5.6 9.9 11.5-17.9-17.1 8zM120 48.5l-3.9 9.4-15-7.7L120 39.6l-19 10.5v.1l15.1 7.8h.1l3.8-9.3zm-49.7 71.4l3.8-6.5 1.9 6.5h.1l-2-6.6v-.1l-3.9 6.7z"/><path d="M97.8 69.1l-9.5-12 12.8-7.1-3.3 19.1zm-9.4-11.9L97.8 69l3.2-18.7-12.6 6.9zm-36.2 5.4L47.6 39l34.1-3.2-.1.1-29.4 26.7zm-4.5-23.5l4.6 23.4 29.3-26.6-33.9 3.2z"/><path d="M47.6 39.1l23.2-12.5 10.9 9.2-34.1 3.3zm23.2-12.4L47.8 39l33.7-3.2-10.7-9.1zM85.5 0l2 6.7h-3.7l.8-6.7h-.1l-.8 6.7v.1h3.9l-2-6.8z"/><path d="M70.8 26.8l1.6-20.1 11.2 3-12.8 17.1zm1.7-20l-1.6 19.8L83.4 9.7 72.5 6.8z"/><path d="M83.6 9.7l-11.2-3L80 3.2l3.6 6.5zm-11-3l10.9 2.9L80 3.3l-7.4 3.4z"/><path d="M83.5 9.8L80 3.2h.1l3.8 3.5-.4 3.1zm-3.4-6.4l3.3 6.2.3-2.8-3.6-3.4zm1.5 32.5l-10.9-9.3 15-1.6-4.1 10.9zm-10.7-9.2l10.7 9.1 4-10.7-14.7 1.6zm29.1 93.2l.7-.3.1.3v-.4l-1 .4zm-26-6.5l2.4-20.1 9.8 16-12.2 4.1zm2.5-20l-2.4 19.8 12-4-9.6-15.8z"/><path d="M76.1 119.9l-2-6.6 12-4-3.5 10.6h.1l3.6-10.7-12.2 4.1H74l2 6.6z"/><path d="M86.2 109.4l-9.8-16 14.1-7.1v.1l-4.3 23zm-9.7-16l9.6 15.8 4.3-22.8-13.9 7zm28.8 26.5l-4.5-.4 8.1-14.7 4.8 15.1-4.8-15.2v-.1l-8.2 14.9 3.9.4zM89.4 17.3v-.1L87.5 6.7l6.3 2.5-4.4 8.1zM87.6 6.8l1.9 10.4 4.2-8-6.1-2.4z"/><path d="M89.4 17.3l-6-7.6 4.1-3v.1l1.9 10.5zm-5.8-7.6l5.8 7.4-1.9-10.3-3.9 2.9zm-6.8 64.8L52.1 62.6h.1l36.2-5.4v.1L76.8 74.5zM52.3 62.6l24.4 11.8 11.5-17.2-35.9 5.4z"/><path d="M52.1 62.6l29.5-26.8v.1l6.8 21.4-36.3 5.3zm29.5-26.7L52.3 62.5l36-5.4-6.7-21.2zm4-10.7v-.1L83.5 9.6l6 7.7-3.9 7.9zm-2-15.4l2.1 15.1 3.7-7.7-5.8-7.4zm-7.1 83.6l.3-19 13.9 12-14.2 7zm.3-18.9l-.3 18.8 13.9-7-13.6-11.8zm24 45.4v-.3l3.8.3h.7l-4.5-.4h-.1l.1.4zm-7-110.7l-6.3-2.5L100.2.2v.1l-6.4 8.9zm-6.2-2.5l6.1 2.4 6.4-8.8-12.5 6.4z"/><path d="M98.6 0l1.5.3-12.5 6.4-2-6.7h-.1l2 6.7v.1L100.3.2 99.1 0zm-13 25.1l3.8-8 5.7 3H95l-9.4 5zm3.9-7.8L85.7 25l9.3-4.8-5.5-2.9zm-6.8 102.6l3.5-10.6 14.5 10.2-.9.4h.2l.8-.4-14.6-10.3-3.6 10.7zm-6-45.4l11.7-17.4L97.9 69l-21.2 5.5zm11.7-17.3L76.8 74.4 97.7 69l-9.3-11.8z"/><path d="M90.5 86.4l-13.8-12h.1L97.9 69v.1l-7.4 17.3zM76.8 74.5l13.7 11.8 7.2-17.2-20.9 5.4zM100.1 0l.1.2-1.1-.2h-.4l1.6.3-.1-.3zm-2 17.3h-8.8l4.4-8.2 4.4 8.2zm-8.6-.1H98l-4.3-8-4.2 8z"/><path d="M95.1 20.3l-5.7-3v-.1h8.7l-3 3.1zm-5.5-3l5.5 2.9 2.9-2.9h-8.4zm11.5 32.9l3.4-19.2 6.3-1.4v.1l-9.7 20.5zm3.5-19.2l-3.5 18.9 9.6-20.2-6.1 1.3zm-18.4 78.3l4.3-23.1 8.7 13.6-13 9.5zm4.3-22.9l-4.3 22.8L99 99.8l-8.5-13.4z"/><path d="M98.1 17.4l-.1-.1-4.3-8.1 6.5-8.9h.1l-2.2 17.1zm-4.3-8.3l4.3 8L100.2.4l-6.4 8.7z"/><path d="M104.5 31L95 20.2l3-3 6.5 13.8zm-9.3-10.8l9.2 10.6-6.3-13.5-2.9 2.9zm-6.9 37l-6.8-21.5 19.6 14.4-12.8 7.1zM81.7 36l6.7 21.2 12.6-7L81.7 36zm27.2 68.7l-9.8-4.9h.1l18.6-13h.1l-9 17.9zm-9.7-4.9l9.6 4.8 8.8-17.6-18.4 12.8z"/><path d="M101.1 50.2L81.5 35.8h.1l23-4.9v.1l-3.5 19.2zM81.7 35.9L101 50.1l3.5-19-22.8 4.8z"/><path d="M104.7 31.1l-19.1-6 9.5-4.9 9.6 10.9zm-18.9-6l18.7 5.9-9.3-10.7-9.4 4.8z"/><path d="M81.6 35.9l4-10.9 19 6h-.1l-22.9 4.9zm4.1-10.8l-4 10.7 22.7-4.8-18.7-5.9zM120 39.6l-18.9 10.5 9.7-20.4 9.2 4.8v-.1l-9.3-4.8-9.7 20.5v.1l19-10.6z"/><path d="M104.5 31L98 17.3h.1l12.7 12.5h-.1l-6.2 1.2zm-6.3-13.6l6.4 13.6 6.1-1.3-12.5-12.3zm15.5 102.5l-4.8-15.2 8.8-17.6-3.6 32.8 3.7-33-.1-.1-8.9 17.9 4.9 15.2zM90.5 86.4L97.8 69l9.5 11.4-16.8 6zm7.3-17.3l-7.2 17.1 16.6-5.9-9.4-11.2z"/><path d="M99.2 99.9l-8.7-13.6 16.8-6v.1l-8.1 19.5zm-8.6-13.6l8.6 13.4 8-19.3-16.6 5.9z"/><path d="M100.7 119.6l-1.6-19.9 9.8 4.9-8.2 15zm-1.5-19.7l1.6 19.5 8-14.7-9.6-4.8z"/><path d="M99.1 99.9v-.1l8.1-19.5 10.6 6.5-18.7 13.1zm8.2-19.5l-8 19.3 18.5-12.8-10.5-6.5z"/><path d="M117.8 86.9l-10.6-6.5 8.9-22.4h.1l1.6 28.9zm-10.5-6.5l10.4 6.4-1.6-28.6-8.8 22.2zM120 51.7l-3.7 5.9 3.7-8.9v-.2l-3.9 9.5h.1l3.8-6.2zM100.6 0l-.3.2-.1-.2h-.1l.1.3.6-.3z"/><path d="M120 77.5l-2.2 9.1-1.6-28.6 3.8-6.2v-.1l-3.9 6.3 1.6 28.9h.1l2.2-9.1z"/><path d="M97.8 69.1l3.3-19 15.2 7.9h-.1L97.8 69.1zm3.3-18.9L97.9 69l18.2-11-15-7.8z"/><path d="M107.3 80.5L97.7 69l18.4-11.1v.1l-8.8 22.5zm-9.4-11.4l9.4 11.3 8.8-22.2-18.2 10.9zM2.6 88.7c0-.6-.5-1.1-1.1-1.1-.6 0-1.1.5-1.1 1.1 0 .6.5 1.1 1.1 1.1.6 0 1.1-.4 1.1-1.1zm.3 22.4c-.6 0-1.1.5-1.1 1.1 0 .6.5 1.1 1.1 1.1.6 0 1.1-.5 1.1-1.1-.1-.6-.5-1.1-1.1-1.1zm1.3-48c-.6 0-1.1.5-1.1 1.1 0 .6.5 1.1 1.1 1.1.6 0 1.1-.5 1.1-1.1 0-.6-.5-1.1-1.1-1.1zm3.2-43.4c0-.6-.5-1.1-1.1-1.1-.6 0-1.1.5-1.1 1.1 0 .6.5 1.1 1.1 1.1.7-.1 1.1-.5 1.1-1.1zM8 102c-.6 0-1.1.5-1.1 1.1 0 .6.5 1.1 1.1 1.1.6 0 1.1-.5 1.1-1.1 0-.7-.5-1.1-1.1-1.1zm1.3-67c-.6 0-1.1.5-1.1 1.1s.5 1.1 1.1 1.1c.6 0 1.1-.5 1.1-1.1S9.9 35 9.3 35zM18 92.8c-.6 0-1.1.5-1.1 1.1 0 .6.5 1.1 1.1 1.1.6 0 1.1-.5 1.1-1.1-.1-.6-.5-1.1-1.1-1.1zm.2-27.5c.6 0 1.1-.5 1.1-1.1 0-.6-.5-1.1-1.1-1.1-.6 0-1.1.5-1.1 1.1.1.6.5 1.1 1.1 1.1zm1.4 40.2c-.6 0-1.1.5-1.1 1.1 0 .6.5 1.1 1.1 1.1.6 0 1.1-.5 1.1-1.1 0-.7-.5-1.1-1.1-1.1zm1.6-74.2c-.6 0-1.1.5-1.1 1.1 0 .6.5 1.1 1.1 1.1.6 0 1.1-.5 1.1-1.1 0-.7-.5-1.1-1.1-1.1zm3.5 12.1c-.6 0-1.1.5-1.1 1.1 0 .6.5 1.1 1.1 1.1.6 0 1.1-.5 1.1-1.1 0-.6-.5-1.1-1.1-1.1zm.8-19.1c-.6 0-1.1.5-1.1 1.1 0 .6.5 1.1 1.1 1.1.6 0 1.1-.5 1.1-1.1 0-.7-.5-1.1-1.1-1.1zM29 68.8c-.6 0-1.1.5-1.1 1.1 0 .6.5 1.1 1.1 1.1.6 0 1.1-.5 1.1-1.1 0-.7-.5-1.1-1.1-1.1zm4.1-64.5c-.6 0-1.1.5-1.1 1.1 0 .6.5 1.1 1.1 1.1.6 0 1.1-.5 1.1-1.1-.1-.6-.5-1.1-1.1-1.1zm5.4 34.3c0-.6-.5-1.1-1.1-1.1-.6 0-1.1.5-1.1 1.1 0 .6.5 1.1 1.1 1.1.6-.1 1.1-.5 1.1-1.1zm-.3 51.8c-.6 0-1.1.5-1.1 1.1 0 .6.5 1.1 1.1 1.1.6 0 1.1-.5 1.1-1.1 0-.7-.5-1.1-1.1-1.1zm1.9-35.1c-.6 0-1.1.5-1.1 1.1 0 .6.5 1.1 1.1 1.1.6 0 1.1-.5 1.1-1.1 0-.6-.5-1.1-1.1-1.1zm3.8 61.2c-.6 0-1.1.5-1.1 1.1 0 .6.5 1.1 1.1 1.1.6 0 1.1-.5 1.1-1.1-.1-.6-.5-1.1-1.1-1.1zM47.6 38c-.6 0-1.1.5-1.1 1.1 0 .6.5 1.1 1.1 1.1.6 0 1.1-.5 1.1-1.1 0-.6-.5-1.1-1.1-1.1zm5.7 24.6c0-.6-.5-1.1-1.1-1.1-.6 0-1.1.5-1.1 1.1 0 .6.5 1.1 1.1 1.1.6 0 1.1-.5 1.1-1.1z"/><circle cx="55.5" cy="8.6" r="1.1"/><path d="M57.1 17c-.6 0-1.1.5-1.1 1.1 0 .6.5 1.1 1.1 1.1.6 0 1.1-.5 1.1-1.1 0-.7-.5-1.1-1.1-1.1zm2.4 64.5c-.6 0-1.1.5-1.1 1.1 0 .6.5 1.1 1.1 1.1.6 0 1.1-.5 1.1-1.1 0-.7-.5-1.1-1.1-1.1zm4 20.2c0-.6-.5-1.1-1.1-1.1-.6 0-1.1.5-1.1 1.1 0 .6.5 1.1 1.1 1.1.7 0 1.1-.5 1.1-1.1zm1.7-10.3c-.6 0-1.1.5-1.1 1.1 0 .6.5 1.1 1.1 1.1.6 0 1.1-.5 1.1-1.1-.1-.6-.5-1.1-1.1-1.1zm5.6-65.8c-.6 0-1.1.5-1.1 1.1 0 .6.5 1.1 1.1 1.1.6 0 1.1-.5 1.1-1.1 0-.6-.5-1.1-1.1-1.1zm2.7-18.9c0-.6-.5-1.1-1.1-1.1-.6 0-1.1.5-1.1 1.1 0 .6.5 1.1 1.1 1.1.7 0 1.1-.5 1.1-1.1zm.6 105.5c-.6 0-1.1.5-1.1 1.1 0 .6.5 1.1 1.1 1.1.6 0 1.1-.5 1.1-1.1-.1-.6-.5-1.1-1.1-1.1zm2.4-19.9c-.6 0-1.1.5-1.1 1.1 0 .6.5 1.1 1.1 1.1.6 0 1.1-.5 1.1-1.1 0-.7-.5-1.1-1.1-1.1zm.3-18.9c-.6 0-1.1.5-1.1 1.1 0 .6.5 1.1 1.1 1.1.6 0 1.1-.5 1.1-1.1-.1-.7-.5-1.1-1.1-1.1zM80 4.3c.6 0 1.1-.5 1.1-1.1 0-.6-.5-1.1-1.1-1.1-.6 0-1.1.5-1.1 1.1 0 .6.5 1.1 1.1 1.1z"/><circle cx="81.6" cy="35.9" r="1.1"/><ellipse transform="translate(-.017 .145)" cx="83.5" cy="9.7" rx="1.1" ry="1.1"/><path d="M83.8 7.8c.6 0 1.1-.5 1.1-1.1 0-.6-.5-1.1-1.1-1.1-.6 0-1.1.5-1.1 1.1 0 .6.5 1.1 1.1 1.1z"/><circle cx="85.7" cy="25.1" r="1.1"/><path d="M87.3 109.3c0-.6-.5-1.1-1.1-1.1-.6 0-1.1.5-1.1 1.1 0 .6.5 1.1 1.1 1.1.6-.1 1.1-.5 1.1-1.1zm.3-101.5c.6 0 1.1-.5 1.1-1.1 0-.6-.5-1.1-1.1-1.1-.6 0-1.1.5-1.1 1.1 0 .6.4 1.1 1.1 1.1zm.8 48.3c-.6 0-1.1.5-1.1 1.1 0 .6.5 1.1 1.1 1.1.6 0 1.1-.5 1.1-1.1-.1-.6-.5-1.1-1.1-1.1z"/><circle cx="89.4" cy="17.2" r="1.1"/><path d="M90.5 85.2c-.6 0-1.1.5-1.1 1.1 0 .6.5 1.1 1.1 1.1.6 0 1.1-.5 1.1-1.1 0-.6-.5-1.1-1.1-1.1zm4.3-76.1c0-.6-.5-1.1-1.1-1.1-.6 0-1.1.5-1.1 1.1 0 .6.5 1.1 1.1 1.1.7 0 1.1-.4 1.1-1.1zm.3 10c-.6 0-1.1.5-1.1 1.1 0 .6.5 1.1 1.1 1.1.6 0 1.1-.5 1.1-1.1 0-.6-.5-1.1-1.1-1.1zM98.9 69c0-.6-.5-1.1-1.1-1.1-.6 0-1.1.5-1.1 1.1 0 .6.5 1.1 1.1 1.1.6 0 1.1-.4 1.1-1.1z"/><circle cx="98.1" cy="17.2" r="1.1"/><path d="M100.2 99.8c0-.6-.5-1.1-1.1-1.1-.6 0-1.1.5-1.1 1.1 0 .6.5 1.1 1.1 1.1.7 0 1.1-.5 1.1-1.1zM99.2 0v.2c0 .6.5 1.1 1.1 1.1.6 0 1.1-.5 1.1-1.1V0h-2.2zm2.6 119.9c.1-.1.1-.3.1-.4 0-.6-.5-1.1-1.1-1.1-.6 0-1.1.5-1.1 1.1 0 .2 0 .3.1.4h2zM100 50.2c0 .6.5 1.1 1.1 1.1.6 0 1.1-.5 1.1-1.1 0-.6-.5-1.1-1.1-1.1-.7 0-1.1.4-1.1 1.1zm4.5-20.3c-.6 0-1.1.5-1.1 1.1 0 .6.5 1.1 1.1 1.1.6 0 1.1-.5 1.1-1.1 0-.6-.4-1.1-1.1-1.1zm3.8 50.5c0-.6-.5-1.1-1.1-1.1-.6 0-1.1.5-1.1 1.1 0 .6.5 1.1 1.1 1.1.7 0 1.1-.5 1.1-1.1zm.6 23.2c-.6 0-1.1.5-1.1 1.1 0 .6.5 1.1 1.1 1.1.6 0 1.1-.5 1.1-1.1-.1-.6-.5-1.1-1.1-1.1zm1.8-75c-.6 0-1.1.5-1.1 1.1 0 .6.5 1.1 1.1 1.1.6 0 1.1-.5 1.1-1.1 0-.7-.4-1.1-1.1-1.1zm3.9 91.3c-.2-.1-.4-.2-.6-.2-.2 0-.4.1-.6.2h1.2zm2.6-61.9c0-.6-.5-1.1-1.1-1.1-.6 0-1.1.5-1.1 1.1 0 .6.5 1.1 1.1 1.1.7 0 1.1-.5 1.1-1.1zm.6 27.8c-.6 0-1.1.5-1.1 1.1 0 .6.5 1.1 1.1 1.1.6 0 1.1-.5 1.1-1.1-.1-.7-.5-1.1-1.1-1.1z"/></g><g opacity=".56" fill="#47036F"><path d="M26.5 76.1l-.7-.3 3.3-1.4v.1l-2.6 1.6zm-.5-.2l.5.2 2.2-1.3-2.7 1.1zm6.5 1.9l-3.4-3.3 3.1-.4.3 3.7zm-3.3-3.3l3.2 3.1-.3-3.5-2.9.4zm-9.5-21.3l-1.5-3.5h.1l2.8 3.2-1.4.3zm-1.3-3.3l1.4 3.2 1.2-.3-2.6-2.9zm1.1 14.6l-2.2-6.1h.1l2.3 5.4-.2.7zm-1.6-4.6l1.6 4.3.1-.4-1.7-3.9z"/><path d="M21.4 66.1l-1.9-1.8 2.2-1.4-.3 3.2zm-1.8-1.7l1.7 1.6.2-2.8-1.9 1.2z"/><path d="M17.9 71.2l1.6-6.9h.1l.1 4.4-1.8 2.5zm1.6-6.5L17.9 71l1.6-2.3v-4zm-.3-9.9l-1.4-5.1h.1l1.9 3.6-.6 1.5zM18 49.9l1.2 4.6.5-1.3-1.7-3.3zm1.6 14l-2.3-5.6 3.4 2.2-1.1 3.4zm-2.2-5.4l2.2 5.2 1-3.2-3.2-2z"/><path d="M19.5 64.4l.1-.6 2-.8v.1l-2.1 1.3zm.2-.6l-.1.4 1.6-1-1.5.6z"/><path d="M19.6 68.7l-.1-4.4h.1l.7 2-.7 2.4zm0-4.1l.1 3.8.6-2.1-.7-1.7zm1.1-4l-3.4-2.2 1.9-3.9 1.5 6.1zm-3.3-2.2l3.2 2-1.4-5.7-1.8 3.7zm5.7-3.5l-2.2-2 2-.9.2 2.9zm-2-2.1l2 1.8L23 52l-1.9.8z"/><path d="M22.6 69.1l-2.4-2.8 1.2-.4 1.2 3.2zm-2.3-2.7l2.2 2.5-1.1-2.8-1.1.3zM22.9 52l-.7-1.6.5-.6.2 2.2zm-.6-1.5l.5 1.3-.2-1.7-.3.4zm-3.1 4.2l.5-1.5 1.4-.4-1.9 1.9zm.5-1.5l-.5 1.3 1.6-1.6-1.1.3zm3.2-1.2l2-1.3.2.5-2.2.8zm2-1.2l-1.7 1 1.8-.6-.1-.4z"/><path d="M21 52.9l-2.9-3.3 4.2.8-1.3 2.5zm-2.7-3.1l2.6 3 1.2-2.3-3.8-.7zM20 76.1l-1.2-2.3 2.6-.5-1.4 2.8zm-1.1-2.3l1.1 2.1 1.2-2.5-2.3.4z"/><path d="M18.8 73.9l-.8-2.1 3.4 1.6-2.6.5zm-.7-2l.7 1.9 2.3-.4-3-1.5z"/><path d="M21.3 73.4L18 71.8l1.5-3.2 1.8 4.8zm-3.2-1.6l3.1 1.5-1.6-4.5-1.5 3zm7.8 4.1l-1.2-3.5 4.6 2.1-3.4 1.4zm-1.1-3.3l1.2 3.3 3.1-1.3-4.3-2zm-4.6-6.2l-.7-2h.1l1.9 1.7-1.3.3zm-.6-1.9l.6 1.8 1-.3-1.6-1.5zm0-.6l1.1-3.5 1 2.7-2.1.8zm1-3.3l-.9 3.1 1.9-.7-1-2.4zm1.8-10.1l-4.3-.8 2.7-1.1 1.6 1.9zm-4-.8l3.8.7-1.4-1.7-2.4 1z"/><path d="M22.7 69.2l-3.2-.4.7-2.5 2.5 2.9zm-3.1-.5l2.9.4-2.3-2.6-.6 2.2z"/><path d="M21.3 73.5l-1.8-4.8 3.1.4-1.3 4.4zm-1.7-4.8l1.6 4.5 1.3-4.1-2.9-.4zm3.1-26.9l-1.5-2.3.1-.1 3.2 2.1-1.8.3zm-1.3-2.1l1.4 2.1 1.5-.2-2.9-1.9zm.9 10.8l-1.5-1.9.1-.1 2 1.3-.6.7zM21 48.8l1.3 1.6.4-.4-1.7-1.2zm2.2 6l-4.1-.1 1.9-1.9 2.2 2zm-3.9-.2l3.7.1-2-1.8-1.7 1.7zm11.2 17.6L27 67.3l2.9-2.4.6 7.3zm-3.4-4.9l3.4 4.6-.7-6.9-2.7 2.3z"/><path d="M20.6 60.6l-1.5-6 4 .1-2.5 5.9zm-1.4-5.9l1.4 5.7 2.4-5.6-3.8-.1zm1.7-1.8l1.4-2.5.7 1.6-2.1.9zm1.4-2.3l-1.2 2.2 1.8-.8-.6-1.4zm5.1 1.5l-2.1-.4-.3-.6 2.4 1zm-2-.5l1.6.3-1.8-.6.2.3z"/><path d="M20.7 60.5l2.4-5.8.8-.3-3.2 6.1zm2.4-5.7L21 59.6l2.7-5.1-.6.3zm1.6-4.4l1.5-4.7 3.2 3.8-4.7.9zm1.5-4.6l-1.4 4.5 4.4-.9-3-3.6z"/><path d="M23 54.8l-.1-2.8h.1l.9 2.5-.9.3zm0-2.5l.1 2.4.6-.3-.7-2.1zm-2 26.6l-1.1-3 4.1 1.7-3 1.3zm-.9-2.8l1 2.8 2.8-1.2-3.8-1.6z"/><path d="M24.1 77.7L20 76l1.3-2.7 2.8 4.4zm-4-1.7l3.8 1.6-2.6-4.1-1.2 2.5zm6.1-30.3l-3.5-4 2.2.6 1.3 3.4zm-3.3-3.8l3.2 3.6-1.3-3.1-1.9-.5z"/><path d="M26 75.9l-4.8-2.6 3.6-.9 1.2 3.5zm-4.6-2.5l4.5 2.4-1.2-3.3-3.3.9zm2.4-18.9l-.9-2.5h.1l1.6 2-.8.5zm-.8-2.3l.8 2.2.6-.4-1.4-1.8zm9.4 25.5l-.3-3.7.7-.3-.4 4zm-.2-3.6l.3 3.1.3-3.4-.6.3z"/><path d="M22.9 52.1l-.2-2.2 2.1.4-1.9 1.8zm-.1-2.1l.2 1.9 1.7-1.6-1.9-.3zm1.9 32.2h-.5l-.2-4.6h.1l.6 4.6zm-.4-.1h.3l-.5-3.6.2 3.6z"/><path d="M22.9 52l1.8-1.8.2.6-2 1.2zm1.8-1.6l-1.5 1.4 1.7-1-.2-.4zm-3.5 23l1.4-4.4 2.2 3.5-3.6.9zm1.4-4.2l-1.3 4.1 3.3-.8-2-3.3z"/><path d="M24 77.7l-2.8-4.4 4.8 2.6-2 1.8zm-2.6-4.2l2.6 4.1 1.8-1.7-4.4-2.4zM28 53.2l-2.6-1.5v-.1l2.1.4.5 1.2zm-2.4-1.4l2.2 1.3-.4-.9-1.8-.4zm1.9-15.3l-1.1-1.7 2.1.1-1 1.6zm-1-1.6l1 1.5.9-1.3-1.9-.2zm-1.6 7.5l-2.2-.6v-.1l1.7-.2.5.9zm-1.9-.6l1.8.5-.4-.6-1.4.1z"/><path d="M24.5 54.1L22.9 52l2.6-.3-1 2.4zM23 52l1.5 1.9.9-2.2-2.4.3z"/><path d="M22.9 52l2.2-.9.3.5-2.5.4zm2.2-.7l-1.8.7 2-.3-.2-.4zm-.3-.9l-2.1-.4 3.5-4.3h.1l-1.5 4.7zm-2-.5l1.9.3 1.4-4.4-3.3 4.1zm-.1.1l-2-1.4 5.4-3v.1L22.7 50zm-1.8-1.4l1.8 1.3 3.3-4.1-5.1 2.8zm3.4-6.9l.4-5.2 2.5 1.6-2.9 3.6zm.5-5l-.4 4.8 2.7-3.3-2.3-1.5z"/><path d="M27.4 52.1l-2.3-.8-.3-.5 2.6 1.3zm-2.2-.9l1.6.6-1.8-.9.2.3zm-4.4-2.5l2-7 3.5 4-5.5 3zm2-6.8l-1.9 6.7 5.3-2.9-3.4-3.8zm1.9 30.7l-2.2-3.5 4.6-1.9-2.4 5.4zm-2-3.5l2.1 3.3 2.2-5-4.3 1.7zm5.2-30.2l-.8-.8.3-1.8h.1l.4 2.6zm-.7-.7l.6.6-.3-2.1-.3 1.5zm-2.8 15.9l.9-2.4 2.6 1.5-3.5.9zm1-2.4l-.9 2.2 3.2-.8-2.3-1.4zm-1.4 26l1.9-1.8.6.3-2.5 1.5zm1.9-1.8l-1.6 1.5 2-1.3-.4-.2z"/><path d="M27 67.3L21.3 66l.2-3.1 5.5 4.4zM21.4 66l5.5 1.2-5.3-4.1-.2 2.9z"/><path d="M22.6 69.2L21.3 66l5.9 1.3-4.6 1.9zm-1.2-3.1l1.2 3 4.3-1.7-5.5-1.3zm6-14l-2.6-1.3 4.6-1.5-2 2.8zm-2.3-1.3l2.4 1.2 1.8-2.5-4.2 1.3z"/><path d="M24.9 50.8l-.2-.5 4.6-1v.1l-4.4 1.4zm-.1-.5l.2.4 3.7-1.2-3.9.8zm4.4 24.3l-4.5-2v-.1l5.8-.4-1.3 2.5zm-4.3-2.1l4.3 2 1.3-2.3-5.6.3zm-.5-30.9l2.7-3.5.7.7-3.4 2.8zm2.8-3.4l-2.5 3.1 3.1-2.5-.6-.6z"/><path d="M24.8 42.4l-.5-.8 3.5-2.8.1.1-3.1 3.5zm-.4-.8l.4.7 2.7-3.2-3.1 2.5zm6.5 37.1l-1.8-4.2h.1l3.4 3.3-1.7.9zm-1.7-4l1.7 3.9 1.5-.9-3.2-3zm7.8-5.9l-.5-2.5h2.2L37 68.8zm-.5-2.4l.5 2.2 1.5-2.2h-2z"/><path d="M26.2 45.8l-1.4-3.5 3-3.5h.1l-1.7 7zm-1.3-3.4l1.3 3.2 1.6-6.6-2.9 3.4zm2.3-4.2l-2.5-1.6 2.9-.3-.4 1.9zm-2.3-1.5l2.2 1.4.3-1.7-2.5.3zm-.2 35.8l2.4-5.3 3.5 4.9-5.9.4zm2.3-5.1l-2.3 5.1 5.6-.4-3.3-4.7z"/><path d="M27.4 36.4l1-1.5 1.4 1.5h-2.4zm1-1.4l-.9 1.3h2.1L28.4 35zm-1.8 47.7l-1.9-.5v-.1l3.2-.1v.1l-1.3.6zm-1.6-.5l1.7.4 1.1-.5-2.8.1zm2.9-.2L24 77.6l2.5-1.6 1.4 6zm-3.8-4.4l3.8 4.2-1.4-5.7-2.4 1.5z"/><path d="M24.7 82.2l-.7-4.7 4 4.5-3.3.2zm-.6-4.4l.7 4.4 3.1-.1-3.8-4.3zm11.6-6.3l-5.9-6.6 6.8 1.5-.9 5.1zM29.9 65l5.7 6.3.8-4.9-6.5-1.4zm.7 20.7l3.3-.9.7.8-4 .1zm3.2-.8l-2.8.7 3.4-.1-.6-.6zm.4-49.9l1.6-4 .5.3-2.1 3.7zm1.6-3.8l-1.4 3.3 1.8-3.1-.4-.2zm-7.9 22l-.5-1.2 1.9-2.7h.1l-1.5 3.9zm-.4-1.1l.4 1 1.3-3.4-1.7 2.4zm.3-13.2l-.4-2.6h2.4l-2 2.6zm-.3-2.5l.3 2.3 1.8-2.3h-2.1zm2.1 28.3l-8-1.7-1-2.6 9 4.3zm-8-1.7l7.7 1.6-8.6-4 .9 2.4z"/><path d="M29.7 64.8l-9.1-4.3 3.2-6.1 5.9 10.4zm-9-4.3l8.8 4.1-5.7-10.1-3.1 6z"/><path d="M27 67.4l-5.5-4.3V63l8.1 1.7-2.6 2.7zm-5.3-4.3l5.3 4.1 2.5-2.5-7.8-1.6zm11.2 19.1l-1.2-1.3 1.7-.7-.5 2zm-1.1-1.3l1 1.2.5-1.8-1.5.6z"/><path d="M27 67.3l2.6-2.7.3.3-2.9 2.4zm2.6-2.6l-2 2 2.2-1.8-.2-.2zm2.5 9.4l-1.7-2 .1-.1 2.3 1.7-.7.4zm-1.4-1.8l1.4 1.7.5-.3-1.9-1.4zm5.8-5.9l-2.8-2.3V64l4.8 2.3v.1h-2zM34 64.3l2.5 2.1h1.9L34 64.3zm2.6-26.2L34.1 35v-.1l4 1.7-1.5 1.5zm-2.3-3l2.3 2.9 1.4-1.3-3.7-1.6zm-3.7 50.6L27.8 82l4-1.2-1.2 4.9zM28 82l2.6 3.5 1.1-4.6L28 82zm12 9.6l-5.6-6.1 7-.7-1.4 6.8zm-5.4-6.1l5.4 5.9 1.3-6.6-6.7.7zm-5.3-36.1l-3.2-3.8 5.9-.3-2.7 4.1zm-3-3.7l3 3.6 2.6-3.8-5.6.2z"/><path d="M30.6 85.7l-4-3L28 82l2.6 3.7zm-3.9-3l3.7 2.8-2.5-3.4-1.2.6z"/><path d="M27.8 82.1l3.1-3.5.9 2.4-4 1.1zm3.1-3.4L28 81.9l3.7-1.1-.8-2.1z"/><path d="M31 78.7l-4.6-2.6 2.8-1.6 1.8 4.2zm-4.5-2.6l4.3 2.5-1.7-4-2.6 1.5z"/><path d="M27.9 82.1L26.4 76l4.6 2.6-3.1 3.5zm-1.4-5.9l1.4 5.8 2.9-3.3-4.3-2.5zm5.3 15.4l-.3-.8 2.9-5.3h.1l-2.7 6.1zm-.2-.8l.2.6 2.2-5-2.4 4.4zm3.8-8.4l-2.1-2.1 1.7-1.5.4 3.6zm-2-2.2l1.9 1.9-.4-3.3-1.5 1.4zM31.8 56l-8.1-1.5.8-.5 7.3 2zm-7.9-1.6l7 1.3-6.4-1.7-.6.4z"/><path d="M29.6 64.8l-5.9-10.4 8.2 1.5-2.3 8.9zm-5.7-10.3l5.7 10.1 2.2-8.6-7.9-1.5z"/><path d="M31.8 56l-7.5-2 3.6-.9 3.9 2.9zm-7.2-2l7 1.9-3.8-2.7-3.2.8z"/><path d="M31.9 56.1l-4.1-3 1.5-3.9 2.6 6.9zm-4-3l3.8 2.8-2.4-6.4-1.4 3.6zm-1.8-7.3l1.7-7 4.2 6.8-5.9.2zm1.8-6.9l-1.6 6.7 5.7-.3-4.1-6.4z"/><path d="M27.7 38.9l2-2.6 3.8.3v.1l-5.8 2.2zm2.1-2.5L28 38.8l5.3-2.1-3.5-.3zm2.1 9.1l3.2-6.3h.1v5.3l-3.3 1zm3.2-6.1l-3.1 6 3.1-.9v-5.1zm-6 35.2l1.4-2.5 1.7 2.1-3.1.4zm1.4-2.4l-1.3 2.3 2.9-.4-1.6-1.9zm21.5-3l-1.1-4.5 1.9 1.6-.8 2.9zm-1-4.3l1 4.1.7-2.7-1.7-1.4zM30.5 85.7l2.3-3.6 1.1 2.8-3.4.8zm2.3-3.5l-2.1 3.3 3.1-.8-1-2.5z"/><path d="M29.8 36.4L28.4 35l4.3-3.4.1.1-3 4.7zM28.5 35l1.3 1.4 2.8-4.6-4.1 3.2zm6.6 11.9l-3.3-1.5 3.4-1-.1 2.5zm-3-1.4l3 1.4.1-2.2-3.1.8zm1.3 34.8l-2.6-1.7 1.6-1 1 2.7zM31 78.6l2.3 1.5-.9-2.3-1.4.8z"/><path d="M35.1 46.9v-2.4l.4.1-.4 2.3zm.1-2.3l-.1 1.8.3-1.7-.2-.1zm-4.6 41l1.1-4.8 1.1 1.3-2.2 3.5zm1.2-4.6l-1.1 4.4 2.1-3.3-1-1.1zm6.4-44.3L34.1 35l2.2-3.8 1.9 5.5zm-4-1.7l3.8 1.6-1.8-5.2-2 3.6z"/><path d="M31.7 80.9l-.9-2.4 2.6 1.7-1.7.7zm-.7-2.2l.8 2.1 1.5-.6-2.3-1.5zm-1.5-14l2.3-8.8h.1l1.9 8.2-4.3.6zm2.3-8.6l-2.2 8.5 4.1-.6-1.9-7.9z"/><path d="M29.8 65l-.3-.3 4.2-.6v.1l-3.9.8zm-.1-.3l.2.2 2.9-.6-3.1.4zm5.8-7.6L31.8 56l4.8-4.6-1.1 5.7zM31.9 56l3.6 1 1-5.3-4.6 4.3zm2.5 29.6l.9-3.4 6 2.7-6.9.7zm1-3.3l-.9 3.2 6.6-.6-5.7-2.6zm-1.9-45.6l-3.8-.3v-.1l4.5-1.4-.7 1.8zm-3.5-.3l3.5.2.6-1.5-4.1 1.3z"/><path d="M29.7 36.4l3-5 1.5 3.5-4.5 1.5zm3-4.7l-2.9 4.7 4.3-1.3-1.4-3.4zm10.8 3.2l1.9-5.7h.7l-2.6 5.7zm2-5.6l-1.7 4.8 2.2-4.8h-.5zm-6.8 37.2l-4.9-2.3 1.8-7.2 3.1 9.5zm-4.9-2.4l4.7 2.2-3-9.1-1.7 6.9zM35 78.8l-2.6-1.1.3-4h.1l2.2 5.1zm-2.5-1.1l2.4 1-2.1-4.7-.3 3.7z"/><path d="M33.4 80.3l-1-2.6 2.7 1.1-1.7 1.5zm-.9-2.5l.9 2.4 1.5-1.4-2.4-1zm3.1-33.2l-.4-.1v-5.3h.1l.3 5.4zm-.4-.1h.3l-.3-4.1v4.1zm1.3 21.9L29.8 65v-.1l3.9-.9 2.8 2.4zM30 65l6.3 1.4-2.6-2.2-3.7.8zm-.8-15.5l2.8-4.1 3.2 1.5-6 2.6zm2.8-4l-2.6 3.8 5.6-2.4-3-1.4z"/><path d="M35.5 82.3l-2.7-.1.6-2 2.1 2.1zm-2.6-.2l2.4.1-1.9-1.9-.5 1.8z"/><path d="M33.9 84.9l-1.1-2.8 2.7.1-1.6 2.7zm-1-2.7l1 2.6 1.5-2.4-2.5-.2zM32 45.5l-4.2-6.7 7.5.5-3.3 6.2zm-4.1-6.6l4.1 6.5 3.1-6.1-7.2-.4z"/><path d="M35.2 39.3l-7.4-.4v-.1l5.7-2.2 1.7 2.7zm-7.2-.5l7.1.4-1.6-2.6-5.5 2.2zm25 40.1L46.5 72h.1l7.7-1.1v.1L53 78.9zm-6.3-6.8l6.3 6.7 1.2-7.7-7.5 1zM34.5 85.6l-.7-.8 1.6-2.6h.1l-1 3.4zm-.6-.8l.6.6.8-2.9-1.4 2.3zm1.8-13.4l.8-5h.1l.5 2.4-1.4 2.6zm.8-4.8l-.8 4.5 1.2-2.4-.4-2.1z"/><path d="M35.4 82.4l-.4-3.6 3.1.3-2.7 3.3zm-.4-3.6l.4 3.4 2.5-3-2.9-.4zm8.2-17.2l3.1-6.1.3 1.9-3.4 4.2zm3.1-5.9l-2.9 5.5 3.2-3.8-.3-1.7zM35.2 39.3l-1.8-2.8 3.3 1.5-1.5 1.3zm-1.6-2.6l1.6 2.5 1.3-1.2-2.9-1.3zm.2 27.4l-2-8.2 3.8 1.1-1.8 7.1zM31.9 56l1.9 7.9 1.7-6.8-3.6-1.1z"/><path d="M36.6 38.1l-3.1-1.4.7-1.7 2.4 3.1zm-3.1-1.5l2.9 1.3-2.3-2.9-.6 1.6zm-.7 37.2L30.4 72l5.4-.7-3 2.5zm-2.2-1.7l2.2 1.6 2.8-2.3-5 .7z"/><path d="M30.5 72.1l-.7-7.3 5.9 6.6-5.2.7zm-.6-7l.6 7 5-.7-5.6-6.3zm8.2-28.3l-1.9-5.4 5 .6-3.1 4.8zm-1.8-5.4l1.8 5.2 3-4.6-4.8-.6zm-2.1 3.7l-1.5-3.6 3.2-.5-1.7 4.1zm-1.4-3.5l1.4 3.3 1.6-3.8-3 .5z"/><path d="M32.7 31.6l-.3-3.9 3.6 3.4-3.3.5zm-.3-3.7l.3 3.6 3-.5-3.3-3.1zm11.9 35l-1.2-1.3 2.4-.7-1.2 2zm-1.1-1.3l1 1.2 1-1.8-2 .6zM39.8 97l-4.6-.9 4.9-4.6-.3 5.5zm-4.4-1l4.4.8.2-5.2-4.6 4.4zm11.2-23.9l5.4-3 2.3 1.9-7.7 1.1zm5.4-2.9L46.8 72l7.3-1-2.1-1.8zM31.8 56.1l-2.6-6.7 7.3 2.2-4.7 4.5zm-2.4-6.7l2.5 6.5 4.6-4.3-7.1-2.2z"/><path d="M36.6 51.6l-7.4-2.2 5.9-2.6 1.5 4.8zm-7.2-2.2l7 2.1-1.4-4.6-5.6 2.5zm26.9 55.5l-1.9-9.3 1.9-.6v9.9zm-1.8-9.3l1.8 8.9v-9.4l-1.8.5zm-18.9-51l-.5-5.3 1.5-1.3-1 6.6zm-.4-5.3l.4 5 1-6.1-1.4 1.1zm.1 56.8l-3.5-4.7h.1l8.3.1-4.9 4.6zm-3.4-4.6l3.4 4.5 4.6-4.4-8-.1zm6.7-25.1l4.6-5v2.5l-4.6 2.5zm4.5-4.8l-4.4 4.6 4.4-2.3v-2.3zM39 70.4l-2-1.6v-.1l2.2 1.4-.2.3zm-1.4-1.2l1.3 1.1.1-.1-1.4-1z"/><path d="M39.9 74.5l-4.4-3.1 3.4-1.1 1 4.2zm-4.2-3.1l4.1 2.9-.9-3.9-3.2 1zm6.8-2.8l-4-2.3 4.7-2.5-.7 4.8zm-3.8-2.2l3.7 2.1.7-4.5-4.4 2.4zm4.4-4.8l3.5-4.2h.1l-1.2 3.4-2.4.8zm3.4-4l-3.2 3.8 2.1-.6 1.1-3.2zm-6.4 34l-8.3-.1 2.7-6.1 5.6 6.2zm-8.2-.2l8.1.1-5.4-5.9-2.7 5.8zM42.3 39L38 36.7l5.5-1.9-1.2 4.2zm-4.1-2.3l4.1 2.2 1.1-3.9-5.2 1.7zm3.4 43.7l-3.7-1.3 5.4-3.1-1.7 4.4zm-3.5-1.3l3.5 1.2 1.6-4.1-5.1 2.9z"/><path d="M35.6 71.4l1.4-2.8 2.1 1.7-3.5 1.1zm1.4-2.6l-1.3 2.5 3.2-1-1.9-1.5z"/><path d="M39.2 70.2L37 68.7l1.7-2.5.5 4zM37 68.7l2 1.3-.5-3.6-1.5 2.3z"/><path d="M39.1 70.2l-.5-3.9 4 2.3-3.5 1.6zm-.5-3.7l.5 3.6 3.2-1.5-3.7-2.1zM38 79.1l-3.1-.3 5-4.4h.1l-2 4.7zm-2.9-.4l2.9.3 1.8-4.5-4.7 4.2z"/><path d="M35 78.8l-2.3-5.1 7.3.6-5 4.5zm-2.2-5l2.2 4.9 4.8-4.3-7-.6z"/><path d="M40 74.4l-7.3-.6 3-2.5 4.3 3.1zm-7.1-.6l6.9.6-4.1-2.9-2.8 2.3zm10.7-38.7l-.2-.2 2.6-5.6h.1l-2.5 5.8zm-.1-.2l1.5-3.3-1.5 3.3zm7 52.8l1.8-5.5h.1l.4 3.8-2.3 1.7zm1.8-5.2l-1.6 5.1 2-1.5-.4-3.6zM36.5 51.6l-1.4-4.8 7.9-1-6.5 5.8zm-1.3-4.7l1.4 4.6 6.2-5.5-7.6.9z"/><path d="M35.1 46.9l.5-2.4 7.3 1.3v.1l-7.8 1zm.5-2.3l-.4 2.2 7.4-.9-7-1.3zM43.1 64l1.2-1.3.2 1-1.4.3zm1.2-1.1l-1 1 1.1-.2-.1-.8zm-6.2-26.2l3-4.8.3.5-3.3 4.3zm3.1-4.6L38.6 36l2.8-3.5-.2-.4zm-3.3 47.1l2-4.8 3.5 1.8-5.5 3zm2-4.7L38 79l5.1-2.9-3.2-1.6zm1.4 10.4l-6.1-2.7 6.3-2-.2 4.7zm-5.8-2.6l5.8 2.5.2-4.4-6 1.9z"/><path d="M35.3 82.3L38 79l3.7 1.3-6.4 2zm2.7-3.2l-2.5 3.1 5.9-1.8-3.4-1.3zm-2.5-34.4l1.1-6.7 5.8.9-6.9 5.8zm1.1-6.6l-1 6.4 6.6-5.6-5.6-.8z"/><path d="M42.3 38.9l-5.8-.9 1.6-1.4 4.2 2.3zm-5.6-.9l5.4.8-4-2.1-1.4 1.3zm6.4 34.6l-4.2-2.2.2-.3 4 2.5zM39 70.3l2.8 1.5-2.7-1.7-.1.2zm6.9-41l2.8-3.9h.1l-1.4 3.7-1.5.2zm2.8-3.6l-2.6 3.5 1.3-.2 1.3-3.3z"/><path d="M39.9 74.4l3.3-1.9-.3.9-3 1zm3.1-1.7l-2.8 1.6 2.6-.9.2-.7zm-5-35.9l3.4-4.4 2.1 2.5-5.5 1.9zm3.4-4.3l-3.2 4.1 5.1-1.7-1.9-2.4zm-2.8 34L35.4 57l7.8 4.5-4.6 5zm-3-9.4l3 9.2 4.5-4.8-7.5-4.4z"/><path d="M43.1 72.6L39 70.1l3.4-1.6.7 4.1zm-3.9-2.4l3.8 2.3-.6-3.9-3.2 1.6z"/><path d="M39.8 74.5l-.9-4.2 4.3 2.3-3.4 1.9zm-.8-4.1l.9 3.9 3.1-1.8-4-2.1zm15.4-43.6l-4.2-3 3.8-3.7.4 6.7zm-4.1-3l4 2.8-.3-6.3-3.7 3.5zm-6.7 22.4l-.8-.3.7-2h.1v2.3zm-.7-.3l.6.2v-2l-.6 1.8zm3.8 11.9l-.2-.4v-1.7l.2 2.1zm-5.6-25.7l2.5-4.6 2 1.8-4.5 2.8zm2.4-4.5l-2.3 4.3 4.1-2.6-1.8-1.7zm-1 41l.7-4.7 1.3-.3-2 5zm.7-4.6l-.7 4.3 1.9-4.5-1.2.2z"/><path d="M45.4 29.3l-1.9-1.7v-.1l2.6 1.8h-.7zM44 27.9l1.5 1.3h.5l-2-1.3zm-.7 48.3l-3.5-1.8 3.1-1.1.4 2.9zM40 74.4l3.2 1.6-.4-2.6-2.8 1zm2.9-28.5l-7.3-1.3v-.1l8-.7-.7 2.1zm-7.1-1.3l7 1.2.6-1.9-7.6.7z"/><path d="M35.4 44.6l6.9-5.8 1.2 5.1-8.1.7zm6.9-5.6l-6.6 5.6 7.8-.7-1.2-4.9zm-6-7.6l-.6-.3 7.8-3.6v.1l-7.2 3.8zm-.4-.3l.4.2 5.9-3.1-6.3 2.9z"/><path d="M41.2 32l-5-.6 7.5-3.9-2.5 4.5zm-4.8-.7l4.7.6 2.3-4.3-7 3.7zm7.2 3.7l2.4-5.8 1.5-.2-3.9 6zm2.5-5.7l-2.3 5.3 3.5-5.5-1.2.2z"/><path d="M35.8 31.1l-3.5-3.4 11.2-.2v.1l-7.7 3.5zm-3.3-3.3l3.3 3.2 7.5-3.5-10.8.3zm9.8 11.1l1.1-4.1.2.2-1.3 3.9zm1.2-4l-.6 2.3.6-2.3zm-8.1 22.3l1-5.6 7.4-1-8.4 6.6zm1.1-5.6l-1 5.4 8-6.3-7 .9zm7.2-1l-.9-4.8.8.3.1 4.5zm-.8-4.6l.8 4.1-.2-3.9-.6-.2z"/><path d="M36.4 51.6l6.5-5.8.9 4.8-7.4 1zm6.4-5.6l-6.2 5.5 7.1-.9-.9-4.6zm-1.4-13.5l-.3-.5 4.3-2.7v.1l-4 3.1zm-.2-.5l.2.4 3.4-2.7-3.6 2.3zm2 32.1v-2.6l1.2 1.4-1.2 1.2zm0-2.5v2.2l1-1.1-1-1.1z"/><path d="M43.4 34.9l-2.1-2.5 4.1-3.3-2 5.8zm-1.9-2.4l1.9 2.3 1.9-5.4-3.8 3.1zm1.7 43.7l-.4-2.9 2.8 1.3-2.4 1.6zm-.3-2.8l.4 2.6 2.2-1.5-2.6-1.1z"/><path d="M45.5 74.6l-2.7-1.2.3-.9 2.4 2.1zm-2.6-1.3l2.4 1.1-2.2-1.8-.2.7zm2.5-12.4l1.2-3.6.2.5-1.4 3.1zm1.2-3.4l-.8 2.2.8-2v-.2z"/><path d="M43.1 72.6l3.6-.8v.3l-3.6.5zm3.5-.7l-1.9.4 1.9-.4zm0-14.5l-.3-1.9.3.1v1.8zm-.3-1.7l.2 1.1-.1-1.1h-.1zm-1 5.2l1.3-3.2h.1l-.2 2.6-1.2.6zm1.3-2.9l-1.2 2.8 1-.4.2-2.4zm-.1 30.2l-5.3-3.3v-.1l7 2.8-1.7.6zM41.7 85l4.9 3 1.6-.5-6.5-2.5zm5.7-22.3l-2.1-1.8 1.2-.5.9 2.3zm-1.9-1.8l1.9 1.6-.9-2.1-1 .5z"/><path d="M43.1 72.6l-.7-4.1 4.3 3.4-3.6.7zm-.6-3.9l.6 3.8 3.4-.7-4-3.1zm5.7 24.2l-8.4-1.4 6.7-3.5 1.7 4.9zm-8.1-1.4l8 1.3-1.6-4.6-6.4 3.3zm3.1-29.9L35.4 57l11-1.5-3.2 6.1zm-7.6-4.5l7.6 4.4 3-5.8-10.6 1.4z"/><path d="M35.4 57.1l8.4-6.6 2.6 5.1-11 1.5zm8.3-6.4L35.6 57l10.6-1.4-2.5-4.9zm4.5 37l-6.9-2.8.2-4.6.1.1 6.6 7.3zm-6.8-2.9l6.7 2.7-6.5-7.1-.2 4.4zM40 91.6l1.3-6.8 5.3 3.3-6.6 3.5zm1.3-6.7L40 91.4l6.4-3.3-5.1-3.2z"/><path d="M48.2 92.9l-1.7-4.8 1.8-.5-.1 5.3zm-1.6-4.7l1.6 4.5v-5l-1.6.5zm.8-25.6l-1-2.3.2-2.6h.1l.7 4.9zm-.9-2.2l.8 2-.6-4.2-.2 2.2z"/><path d="M39.8 97l.2-5.5 8.3 1.4-8.5 4.1zm.3-5.4l-.2 5.3 8.2-4-8-1.3zm4.1-28.8l1.2-2.1 2.1 1.9-3.3.2zm1.2-1.9l-1 1.8 3-.2-2-1.6zm.6-31.6l-2.6-1.8 5.5-2.2-2.9 4zm-2.4-1.7l2.4 1.6 2.7-3.7-5.1 2.1zm2 47.1L43 72.5l3.7-.5-1.1 2.7zm-2.4-2.1l2.3 1.9 1-2.4-3.3.5zm9.1 9.7l.6-3.5.8-.2-1.4 3.7zm.7-3.4l-.6 2.9 1.2-3.1-.6.2zm-1.8-32.2l-7.7-2.8v-.1l8.4-.8-.7 3.7zm-7.5-2.8l7.5 2.7.7-3.5-8.2.8zm19.5 7.2l-1.7-.8v-.1l1.4.3.3.6zm-1.3-.7l1.2.5-.2-.3-1-.2z"/><path d="M43.5 44l-1.3-5.1 5.2 1-3.9 4.1zm-1.1-5l1.2 4.9 3.8-3.9-5-1z"/><path d="M47.5 39.9l-5.2-1 1.3-4 3.9 5zm-5.1-1l4.9 1-3.7-4.7-1.2 3.7zm2 24.9l-.2-1 3.1-.2v.1l-2.9 1.1zm-.1-1l.1.8 2.7-1-2.8.2zm2.3 9.2l-4.3-3.4 6-4.5-1.7 7.9zm-4.1-3.4l4.1 3.2 1.7-7.6-5.8 4.4z"/><path d="M42.4 68.7l2.1-5 4 .4-6.1 4.6zm2.1-5l-1.9 4.7 5.7-4.3-3.8-.4z"/><path d="M48.4 64.2l-3.9-.4v-.1l3-1.1.9 1.6zm-3.8-.5l3.6.4-.8-1.4-2.8 1z"/><path d="M51.9 69.2l-3.7-5.1 2.7.7 1 4.4zm-3.5-5l3.5 4.8-1-4.1-2.5-.7zm-1.7-6.3l-.2-2.2 4.3-4.7h.1l-4.2 6.9zm-.2-2.2l.2 2 3.9-6.3-4.1 4.3zM43.4 44l4-4.1 4.6 3.3-8.6.8zm4-4.1l-3.8 3.9 8.1-.8-4.3-3.1z"/><path d="M50.9 51.1l-7.3-.5 7.6-4.1-.3 4.6zm-7-.5l6.9.4.3-4.3-7.2 3.9z"/><path d="M55.2 50.2l-1.4-.4-2.7-3.2.1-.1 4 3.7zm-1.3-.4l1.2.3-3.6-3.1 2.4 2.8zm-5.7 43.1v-5.3l1.8.1-1.8 5.2zm.1-5.2v4.9l1.6-4.8-1.6-.1zm5.3-9l3.3-2.8-.1 2-3.2.8zm3.2-2.6l-3 2.5 3-.7v-1.8z"/><path d="M53.6 78.7l.6-7.8 2.7 5.1-3.3 2.7zm.6-7.6l-.6 7.4 3.1-2.6-2.5-4.8zM43.6 27.6l6.6-4.2.1.1-1.3 2-5.4 2.1zm6.4-4l-6.1 3.8 4.9-2 1.2-1.8zm-6.3 27.1l-.2-4.5 7.8.5-7.6 4zm-.1-4.5l.2 4.3 7.3-3.9-7.5-.4zm7.3 18.6l-2.6-.7-.9-1.5.1-.1 3.4 2.3zm-2.5-.7l2.3.6-3.2-2 .9 1.4z"/><path d="M46.3 55.7l-2.6-5.1 7.3.4-4.7 4.7zm-2.5-5.1l2.5 4.9 4.5-4.5-7-.4z"/><path d="M46.5 55.7l-.3-.1 4.6-4.6.1.1-4.4 4.6zm-.2-.1h.1l2.7-2.9-2.8 2.9zm4.6 9.2l-3.5-2.2-.7-4.9h.1l4.1 7.1zm-3.4-2.2l3.4 2.1-4-6.7.6 4.6zm3.7-15.9l-7.7-.5v-2.3l7.7 2.8zm-7.6-.6l7.3.5-7.3-2.6v2.1zm8.2 42.7l-2-1 .8-.2 1.2 1.2zm-1.8-1l1.6.8-1-.9-.6.1zm1.9-44.7l-4.6-3.2 7.9-2-3.3 5.2zm-4.4-3.2l4.4 3.1 3.2-5-7.6 1.9zm4.2-4.9l-4.4-6 4.2-.3.2 6.3zm-4.2-5.9l4.1 5.7-.1-6-4 .3z"/><path d="M47.3 40l4.4-5.1 3.5 3.2-7.9 1.9zm4.3-5.1l-4.2 4.9 7.5-1.9-3.3-3zm-.1-6.2l-2.7-3.4 1.6-1.2 1.1 4.6zm-2.6-3.3l2.5 3.2-1.1-4.2-1.4 1z"/><path d="M47.3 29.1l1.5-3.8 2.8 3.4-4.3.4zm1.5-3.6L47.4 29l4-.3-2.6-3.2zm-1.4 14.4l-3.9-5 8.2-.1-4.3 5.1zm-3.7-4.8l3.7 4.8 4.2-4.9-7.9.1z"/><path d="M43.5 35.1l3.9-6.1 4.3 5.9-8.2.2zm3.9-6L43.6 35l7.9-.1-4.1-5.8zm4.9 53.2l-6.8-7.7v-.1l7.4 4.2-.6 3.6zm-6.6-7.6l6.5 7.4.7-3.3-7.2-4.1zm.9-2.7l1.7-7.9 3.7 5.1-5.4 2.8zm1.7-7.8l-1.7 7.6 5.2-2.7-3.5-4.9z"/><path d="M46.6 72.1v-.3l5.3-2.7v.1l-5.3 2.9zm.1-.2l2.4-1.2-2.4 1.2zm5.6 10.4l-10.8-1.9 1.7-4.3 9.1 6.2zm-10.7-2l10.5 1.9-8.9-6-1.6 4.1z"/><path d="M52.3 82.3l-9.1-6.2 2.4-1.6 6.7 7.8zm-9-6.2l8.8 5.9-6.5-7.4-2.3 1.5zm10.8 11.8L53 86.5l1.3-1.6-.2 3zm-1-1.4l1 1.2.1-2.6-1.1 1.4zm-3.2 1.3l-1.8-.1 4.1-5.4h.1l-2.4 5.5zm-1.6-.2l1.6.1 2.2-5.2-3.8 5.1z"/><path d="M49.8 87.8l2.4-5.6h.1l-1.7 5.4-.8.2zM52 83l-2 4.7.5-.1L52 83z"/><path d="M48.2 87.7l-6.8-7.4 10.9 2-4.1 5.4zm-6.6-7.3l6.6 7.2 4-5.3-10.6-1.9zm11.3-1.5l-7.5-4.3 1.1-2.6 6.4 6.9zm-7.3-4.3l7.2 4.1-6.2-6.5-1 2.4zm7.4 12l-.4-.6 1.6-1 .1.1-1.3 1.5zm-.3-.6l.3.5 1-1.3-1.3.8z"/><path d="M51.7 88.8l1.3-2.3 1.1 1.4-2.4.9zm1.3-2.2l-1.1 2.1 2.1-.9-1-1.2zm-.4-.5l-.4-3.9 2 2.9-1.6 1zm-.3-3.7l.3 3.5 1.5-.9-1.8-2.6z"/><path d="M51.8 88.8l-1.4-1.2 2.6-1.2-1.2 2.4zm-1.2-1.2l1.2 1 1.1-2.1-2.3 1.1z"/><path d="M50.6 87.7l2.1-1.7.4.6-2.5 1.1zm2-1.6l-1.8 1.4 2.1-.9-.3-.5zm.3-7.2l1.3-7.9h.1l-.6 7.6-.8.3zm1.2-7L53 78.8l.6-.2.5-6.7zm-3.3-20.8l.4-4.6 2.7 3.3-3.1 1.3zm.4-4.4l-.3 4.3 2.9-1.2-2.6-3.1zm3.1-19.9l-4-2.4-.1-.6 4.1 3zm-3.9-2.5l3.1 1.9-3.1-2.3v.4z"/><path d="M55.2 50.2l-4-3.5.7-3.7 3.3 7.2zm-4-3.6l3.9 3.4-3.2-6.8-.7 3.4zm6.3 44.7L54 87.8l3.5-1.3v4.8zm-3.4-3.5l3.3 3.3v-4.5l-3.3 1.2zm-2.6-59l-1.2-4.6 4.1 2.5-2.9 2.1zm-1.1-4.4l1.1 4.3 2.7-1.9-3.8-2.4zM56.8 76l-2.7-5 1.6-.9 1.1 5.9zm-2.5-5l2.5 4.7-1-5.6-1.5.9zm.8-33l-3.5-3.2 5.9-1.6-2.4 4.8zm-3.4-3.1l3.3 3 2.3-4.5-5.6 1.5zm5.5 33.9l-2.4-.7V68h2.4v.8zm-2.1-.7l2 .6v-.6h-2z"/><path d="M54.4 92l-.4-4.3 3.5 3.6-3.1.7zm-.3-4.1l.4 4 2.9-.7-3.3-3.3z"/><path d="M54.5 95.7l-.1-3.8 2 3.2-1.9.6zm0-3.6v3.5l1.7-.5-1.7-3zm1.4-22.3L54.8 68l2.5.7-1.4 1.1zm-1-1.6l1 1.5 1.2-.9-2.2-.6zm-4-17.1l3-1.3 1.4.3v.1l-4.4.9zm2.9-1.2L51.2 51l3.8-.8-1.2-.3z"/><path d="M54.5 92l-2.9-1.2 2.5-3.1.4 4.3zm-2.8-1.2l2.7 1.1-.4-4-2.3 2.9zm.2-21.6l.8-3 2.2 1.9-3 1.1zm.8-2.9l-.7 2.8 2.8-1-2.1-1.8z"/><path d="M54.2 71.1l-2.4-1.9 3-1.1-.6 3zM52 69.2l2.2 1.8.6-2.8-2.8 1zm-.4-34.3l-.1-6.3 6 4.7-5.9 1.6zm-.1-6.1l.1 6 5.7-1.5-5.8-4.5zM59 83.7l-1.1-1.9 1.2-2.7h.1l-.2 4.6zm-1-1.9l1 1.6.1-4.2-1.1 2.6z"/><path d="M55.8 70.2l-1-2.1h.1l1.1 1.7-.2.4zm-.7-1.7l.7 1.5.1-.3-.8-1.2zm-.9 16.6l-1.9-2.8.1-.1 3.3 2.3-1.5.6zm-1.8-2.7l1.8 2.5 1.2-.5-3-2zm6.7-28.1l-1.6-3.6 1.7.2-.1 3.4zm-1.5-3.5l1.5 3.3.1-3.1-1.6-.2zm-.1 31.3l-1-2h.1l1.4 1.8-.5.2zm-.7-1.8l.8 1.6.3-.2-1.1-1.4zm1.9-16.4l-.1-1.9h.3l-.2 1.9zm-.1-1.8l.1 1.2.1-1.2h-.2z"/><path d="M54.2 71.1l.7-3.1 1 2.2-1.7.9zm.7-2.9l-.6 2.7 1.4-.8-.8-1.9zm-2.7 14.1l1.4-3.8 2.7 3.7-4.1.1zm1.4-3.6l-1.3 3.5 3.8-.1-2.5-3.4zm2 5.9l-3.4-2.3 4.2-.1-.8 2.4zm-3.2-2.3l3.1 2.2.7-2.2h-3.8z"/><path d="M54.2 85.1l1.3-.6.9.6h-2.2zm1.3-.5l-1.1.4h1.8l-.7-.4z"/><path d="M54 87.9l.2-2.9h2.2L54 87.9zm.2-2.8l-.1 2.6 2.2-2.7-2.1.1zm3.2-51.7l-6-4.6 2.9-2.1 3.1 6.7zm-5.8-4.7l5.7 4.5-3-6.4-2.7 1.9z"/><path d="M56.4 85.1l-.9-.5.7-2.3h.1l.1 2.8zm-.8-.6l.7.4-.1-2.5-.6 2.1zm1.9 6.8l-.1-4.8 1.7 1.1-1.6 3.7zm0-4.7V91l1.5-3.5-1.5-.9z"/><path d="M56.3 82.3l-2.7-3.7v-.1l2.9 1.4-.2 2.4zm-2.5-3.6l2.5 3.4.3-2.1-2.8-1.3zm3.3-51.6l-2.8-.3v-.1l3.6-.7-.8 1.1zm-2.5-.4l2.5.3.6-.9-3.1.6zm1.2 43.4l.1-.4 1.2-1 .1.1-1.4 1.3zm.2-.3l-.1.2.7-.6-.6.4z"/><path d="M56.6 80.1l-3.1-1.5 3.3-.8-.2 2.3zm-2.8-1.5l2.8 1.3.3-2-3.1.7zm5.3-24.3l-4-4.2 2.5.6 1.5 3.6zm-3.8-4.1l3.6 3.8-1.5-3.3-2.1-.5zm-1-23.4l-.3-6.7 3.9 6-3.6.7zm-.2-6.4l.3 6.3 3.4-.6-3.7-5.7zm3.3 66.2l1.6-3.2.5 3-2.1.2zm1.5-2.9l-1.4 2.9 1.9-.1-.5-2.8zm2.9-57.8l-2.2-3.3 4.4-.9-2.2 4.2zm-2.1-3.3l2.1 3.1 2.1-4-4.2.9zm-2.5 45.5h-2.4V68l2.4-.7v.8zm-2.1-.1h2v-.6l-2 .6z"/><path d="M54.8 68.1l-2.2-1.8v-.1l4.6 1.1-2.4.8zm-2-1.7l2 1.7 2.2-.7-4.2-1zm9.7-12.9l-1.1-3.4 1.7.8-.6 2.6zm-.9-3.2l.9 2.9.6-2.3-1.5-.6zm-5.2 44.8l-2-3.2 3.1-.8-1.1 4zM54.5 92l1.8 3 1.1-3.7-2.9.7zm1.7-9.8l.3-2.4 1.1 2.2-1.4.2zm.4-2.1l-.3 2 1.2-.2-.9-1.8zm2.9-21.8l-.4-4 .6-.3-.2 4.3zm-.4-4l.4 3.3v-3.5l-.4.2zm-5.2 33.6l2.4-3 1.2 1.6-3.6 1.4zm2.4-2.8l-2.2 2.7 3.2-1.2-1-1.5z"/><path d="M56.4 85l-.2-2.8 1.4-.2-1.2 3zm-.1-2.8l.1 2.6 1.1-2.8-1.2.2zm2.6-52.7L57.1 27l.8-1 1 3.5zM57.2 27l1.6 2.3-1-3.1-.6.8zm0 40.4l-4.6-1.1 5.9-2.1-1.3 3.2zm-4.4-1.1l4.3 1.1 1.2-3.1-5.5 2zm6.4 12.8l-2.4-1.2 2.1-2.8.3 4zm-2.3-1.2l2.2 1.1-.3-3.7-1.9 2.6z"/><path d="M52.7 66.3l5.9-4.4-.2 2.3-5.7 2.1zm5.9-4.2l-5.6 4 5.4-2 .2-2z"/><path d="M52.7 66.3l-1.8-1.5 7.7-2.8v.1l-5.9 4.2zM51 64.8l1.7 1.4 5.7-4.1-7.4 2.7z"/><path d="M50.9 64.9l-4.3-7.2L58.7 62l-7.8 2.9zm-4.1-7.1l4.2 6.9 7.6-2.7-11.8-4.2zm10.6 28.8L56.3 85l2.8-1.5-1.7 3.1zm-1-1.6l1 1.5 1.4-2.9-2.4 1.4zM63 53.8l-.5-.4.7-2.4h.1l-.3 2.8zm-.5-.4l.4.3.2-2.3-.6 2z"/><path d="M56.3 85.1l1.3-3.2 1.5 1.6-2.8 1.6zm1.3-3l-1.1 2.8 2.5-1.4-1.4-1.4zm3.8-15.7L58.8 62l8.7-4.9v.1l-6.1 9.2zM58.9 62l2.5 4.2 6-9-8.5 4.8zm-.6 2.3l.2-2.3h.1l.1 1.9-.4.4zm.3-1.8l-.2 1.6.2-.2v-1.4zM56.8 78l.1-2 2.1-.9-2.2 2.9zm.1-2v1.8l1.8-2.5-1.8.7zm2.2-21.7L50.7 51l4.5-.9 3.9 4.2zM51 51l8 3.1-3.8-4-4.2.9z"/><path d="M56.8 76l-1.1-5.9h.1l3.1 5.1-2.1.8zm-1-5.7l1 5.6 1.9-.8-2.9-4.8z"/><path d="M58.8 75.2l-3.1-5.1 1.5-1.4 1.6 6.5zm-3-5.1l2.9 4.8-1.5-6.1-1.4 1.3zm1.6-36.7l-3.2-6.8 4.7 2.9-1.5 3.9zm-3-6.6l3 6.4 1.4-3.7-4.4-2.7z"/><path d="M58.9 29.5l-4.6-2.8v-.1l2.8.3 1.8 2.6zm-4.4-2.7l4.3 2.6-1.7-2.4-2.6-.2zm4.4 56.8L57.5 82l.4-.3 1 1.9zM57.6 82l1.1 1.2-.8-1.4-.3.2zm3.4 2.9l-2.1-1.4 5-3.8h.1l-3 5.2zm-2-1.4l1.9 1.3 2.8-4.9-4.7 3.6zm5.1-11.7l-7-3 4.3-2.5 2.7 5.5zm-6.8-3.1l6.6 2.9-2.5-5.3-4.1 2.4zm.5-42.6L54 20.2l.1-.1 5.3 3.8-1.6 2.2zm-3.6-5.7l3.6 5.6 1.4-2-5-3.6zm4.9 33.9l.1-3.4h.1l.4 3.1-.6.3zm.1-2.8v2.7l.4-.2-.4-2.5zm-2.7 28.6l.3-2.2 2.4 1.2-2.7 1zm.3-2.2l-.3 2L59 79l-2.2-1.1z"/><path d="M57.9 81.8L56.5 80l2.7-1-1.3 2.8zM56.6 80l1.3 1.7 1.1-2.6-2.4.9zm-.3 15.2l1.2-4 2.6.7-3.8 3.3zm1.2-3.9l-1.1 3.6 3.5-3-2.4-.6z"/><path d="M56.4 104.9l-.1-9.9 3.7-3.2-3.6 13.1zm0-9.8v9.5L59.9 92l-3.5 3.1zm2.2-33l1-3.8h.1l-.8 3.7-.3.1zm.6-2.4l-.5 2.3h.1l.4-2.3zm-.1 27.9l-1.6-1v-.1l1.7.8-.1.3zm-1.2-.8l1.1.7.1-.2-1.2-.5zm-.8-19.3l1.3-3.4 1.1 1.7-2.4 1.7zm1.3-3.2l-1.1 3 2.1-1.5-1-1.5z"/><path d="M59.4 65.8l-1.1-1.7.4-.3.7 2zm-1-1.6l.8 1.3-.5-1.5-.3.2zm-1.3 4v-.8l2.3-1.6v.1l-2.3 2.3zm.1-.8v.6l1.9-1.9-1.9 1.3z"/><path d="M57.2 68.9v-.8l2.3-2.3.1.1-2.4 3zm0-.8v.5l1.8-2.4-1.8 1.9zm1.4-6l-11.9-4.3v-.1l12.9.5-1 3.9zm-11.7-4.3L58.6 62l.9-3.7-12.6-.5z"/><path d="M59.7 58.3l-13-.5 4.2-6.8 8.8 7.3zm-12.9-.6l12.7.5-8.6-7.1-4.1 6.6z"/><path d="M59.6 58.4l-8.8-7.3V51l8.3 3.2.5 4.2zM51 51.2l8.4 7-.4-3.9-8-3.1zm10.6-24.7L59.2 24l.1-.1 2.5 1.9-.2.7zm-2-2.2l2 2.1.2-.5-2.2-1.6zM59.2 51l-1.7-.2 2.8-9.5h.1L59.2 51zm-1.6-.3l1.5.2 1.1-9.2-2.6 9z"/><path d="M61.7 25.9L59.2 24l.4-1.5 2.1 3.4zM59.3 24l2.3 1.7-2-3-.3 1.3zm.3 30l-.5-3.1 1 .1-.5 3zm-.4-3l.4 2.8.5-2.7-.9-.1zM73 72.7l-1.6-.8 2.3-1-.7 1.8zm-1.4-.7l1.4.7.6-1.5-2 .8zM55.2 50.2L51.8 43l8.6-1.8v.1l-5.2 8.9zm-3.3-7.1l3.3 7 5-8.8-8.3 1.8z"/><path d="M57.6 50.8l-2.4-.6 5.1-8.9h.1l-2.8 9.5zm-2.3-.7l2.2.6 2.7-9.1-4.9 8.5z"/><path d="M51.8 43.1l3.3-5.2 5.3 3.4-8.6 1.8zm3.3-5.1l-3.2 5 8.2-1.8-5-3.2zm6.3 28.3l-2-.5-.7-1.9h.1l2.6 2.4zm-1.9-.5l1.8.4-2.5-2.2.7 1.8z"/><path d="M59.1 51l1.1-9.7h.1l1.2 9-2.4.7zm1.2-9.4l-1.1 9.3 2.3-.7-1.2-8.6zm.2-8l-3.1-.2 1.5-4 1.6 4.2zm-3-.3l2.9.2-1.5-3.9-1.4 3.7zm3.9 33l-2.7-2.4.1-2.1 2.6 4.5zm-2.6-2.4l2.5 2.2-2.4-4-.1 1.8zm.3 15.2l-.3-4 3.5 1.2-3.2 2.8zm-.2-3.9l.3 3.8 3-2.6-3.3-1.2z"/><path d="M57.2 68.8l2.2-3 2.1.5-4.3 2.5zm2.3-2.9l-2.1 2.7 4-2.3-1.9-.4zm.6-14.8l-1-.1v-.1l2.3-.7v.1l-1.3.8zm-.7-.2l.7.1 1.1-.6-1.8.5zm-.5-21.3L57.7 26l3.9.3-2.7 3.3zm-1-3.5l1.1 3.3 2.6-3-3.7-.3z"/><path d="M61.7 26.4l-4-.3 1.5-2.2 2.5 2.5zm-3.8-.4l3.6.3-2.2-2.3-1.4 2zm.9 49.2l-1.7-6.5 6.9 3-5.2 3.5zm-1.5-6.4l1.6 6.3 5.1-3.4-6.7-2.9zm3-27.5L55 37.9l7-2.9v.1l-1.7 6.2zM55.2 38l5.1 3.2 1.6-6-6.7 2.8zm7.3 15.4L60.1 51l1.5-.8.9 3.2zM60.2 51l2.2 2.2-.9-3-1.3.8z"/><path d="M55 38l2.4-4.7 4.6 1.8-7 2.9zm2.4-4.6l-2.3 4.5 6.6-2.8-4.3-1.7z"/><path d="M61.9 35.1l-4.5-1.8v-.1l3 .2 1.5 1.7zm-4.2-1.7l4.1 1.6-1.3-1.4-2.8-.2zm4.6 43l-3.5-1.2 5.3-3.5-1.8 4.7zm-3.4-1.3l3.3 1.2 1.7-4.5-5 3.3zm.6-21l.6-3.1 2.5 2.5-3.1.6zm.6-3l-.5 2.9 2.8-.6-2.3-2.3zm29-17.8l-2.4-1.9 3.7-2.4-1.3 4.3zm-2.2-1.9l2.2 1.8 1.2-4-3.4 2.2z"/><path d="M59.6 54.1l2.9-.7.5.4-3.4.3zm2.9-.6l-2.3.5 2.7-.2-.4-.3zm.4-2.9l-1.4-.3v-.1h1.1l.3.4zm-1.1-.3l.9.2-.2-.2h-.7z"/><path d="M59.5 58.4V54l3.5-.3-3.5 4.7zm.1-4.3v4.1l3.3-4.3-3.3.2zm5.7-9.5l-5-3.4 4.4-2.3v.1l.6 5.6zm-4.9-3.3l4.8 3.2-.7-5.5-4.1 2.3zm1.5-6.2l-1.5-1.7 3.2-.9-1.7 2.6zm-1.4-1.6l1.4 1.5 1.5-2.3-2.9.8z"/><path d="M60.4 33.6l-1.6-4.2 4.7 3.3-3.1.9zm-1.4-4l1.5 3.9 2.9-.8-4.4-3.1zm3.9 24.3l.2-2.9 3.3-.7-3.5 3.6zm.3-2.9l-.2 2.7 3.2-3.2-3 .5z"/><path d="M61.8 35.2l1.7-2.6 1.8 1-3.5 1.6zm1.7-2.5L62 35l3.1-1.4-1.6-.9zm1.7 50.2l-1.4-3.2h.1l1.6 2.4-.3.8zm-1.1-2.8l1.1 2.7.3-.6-1.4-2.1z"/><path d="M58.9 83.6l.2-4.6 4.9.7-5.1 3.9zm.3-4.5l-.2 4.4 4.8-3.7-4.6-.7zm6-45.4l-1.8-1 1.3-3.2h.1l.4 4.2zm-1.7-1.1l1.6.9-.4-3.9-1.2 3zM63.1 51l-.3-.5 3.4-.3v.1l-3.1.7zm-.1-.4l.2.3 2.5-.5-2.7.2z"/><path d="M63.9 79.8l-4.9-.7 3.2-2.8 1.7 3.5zm-4.7-.8l4.6.7-1.6-3.3-3 2.6zm5.5-49.4l-3-3.8 5.5-3.1-2.5 6.9zm-2.9-3.8l2.9 3.6 2.4-6.5-5.3 2.9z"/><path d="M63.5 32.7l-4.7-3.3h6l-1.3 3.3zM59 29.5l4.4 3.1 1.2-3.1H59z"/><path d="M58.8 29.5l2.8-3.2 3.2 3.2h-6zm2.8-3l-2.6 3h5.6l-3-3zm-1.4 14.8l1.6-6.3 2.7 4-4.3 2.3zm1.7-6.1l-1.6 6 4.2-2.2-2.6-3.8zm0-.1l3.3-1.5 1.2 1.4-4.5.1zm3.3-1.4L62.1 35l4.1-.1-1-1.2z"/><path d="M64.7 29.5l-3.1-3.1.2-.7 2.9 3.8zm-3.1-3.1l2.6 2.6-2.5-3.1-.1.5zm4.6 8.6l-1.1-1.4h.1l1.2 1.4h-.2zm0-.2z"/><path d="M64.6 39l-2.8-4 4.5-.1-1.7 4.1zM62 35.1l2.6 3.8 1.6-3.9-4.2.1zm-.5 15.3v-.1l-1.2-9.1 5 3.4-3.8 5.8zm-1.2-9.1l1.2 8.8 3.6-5.6-4.8-3.2z"/><path d="M62.6 50.3h-1.1l3.7-5.7h.1l-2.7 5.7zm-1-.1h.9l2.4-5.2-3.3 5.2zm.6 26.2l1.8-4.8 2.3 3.3-4.1 1.5zm1.8-4.6l-1.7 4.5 3.9-1.4-2.2-3.1z"/><path d="M63.9 79.8l-1.7-3.5 4.1-1.5-2.4 5zm-1.6-3.4l1.6 3.3 2.3-4.6-3.9 1.3zm.6-25.8l-.5-.4 3.9.1v.1l-3.4.2zm-.2-.3l.3.2 2.6-.2h-2.9z"/><path d="M66.3 50.4l-3.9-.1 2.7-5.9 1.2 6zm-3.7-.2l3.6.1-1.1-5.6-2.5 5.5zm7.6-23.4l-3.1-4 4 .2-.9 3.8zm-3-3.9l2.9 3.7.8-3.5-3.7-.2zm-7.7 35.4l3.5-4.6 4.5 3-8 1.6zm3.5-4.5l-3.3 4.4 7.6-1.5-4.3-2.9zM64.6 39h-.1l1.7-4.1h.2zm4.7 41.9l-2.5-1.8 4.2-1-1.7 2.8zM67 79.1l2.3 1.6 1.6-2.5-3.9.9z"/><path d="M65.5 82.2l-1.7-2.5 3.2-.6-1.5 3.1zm-1.6-2.4l1.6 2.3 1.4-2.9-3 .6z"/><path d="M63.8 79.8l2.5-5 .7 4.3-3.2.7zm2.4-4.7l-2.3 4.6 3-.6-.7-4z"/><path d="M66.3 75L64 71.7l3.1-2.6-.8 5.9zM64 71.7l2.2 3.1.7-5.5-2.9 2.4z"/><path d="M64 71.8l-2.6-5.6 5.7 3-3.1 2.6zm-2.5-5.4l2.5 5.3 2.9-2.4-5.4-2.9zm6 14.8l-.6-2.2 2.5 1.8-1.9.4zm-.5-2l.6 1.9 1.6-.3-2.2-1.6zm-7.4-20.9l7.8-1.7.2.5-8 1.2zm7.7-1.6L61 58l6.5-1-.2-.3z"/><path d="M58.8 62.1l.7-3.8 8-1.2v.1l-8.7 4.9zm.8-3.8l-.7 3.6 8.5-4.8-7.8 1.2zm11.9 17l-5.4-.3 5.4-3.1v3.4zm-5.1-.4l5 .3.1-3.2-5.1 2.9zm12-2.2l-4.4-.1-.4-1.6 4.8 1.7zm-4.4-.2l4.1.1-4.5-1.5.4 1.4zm-6.4-15.4l1.5-1.4h1.3v.1l-2.8 1.3zm1.5-1.3L67.8 57l2.4-1.1-1.1-.1zm-3.7 26.4L67 79l.7 2.1-2.3 1.1zm1.5-3L65.6 82l2-.9-.7-1.9zm5.6-21.1l-1.3-6.2h.1l8.2.9-7 5.3zM71.3 52l1.3 6 6.7-5.1-8-.9zm8.4-13L74 36.6l7.8-2.7-2.1 5.1zm-5.6-2.4l5.5 2.3 1.9-4.9-7.4 2.6zm-7.8 13.8l-1.1-5.8h.1L68 49l-1.7 1.4zm-1-5.6l1 5.5 1.6-1.3-2.6-4.2z"/><path d="M66.3 50.4l1.6-1.4h.1l-.2.3-1.5 1.1zm1.6-1.3l-.9.7.8-.6.1-.1zm-.4 8.1l-.2-.5 1-1.1h.1l-.9 1.6zm-.1-.5l.2.3.6-1.2-.8.9z"/><path d="M67.3 56.7l-4.4-3v-.1l5.5 1.8-1.1 1.3zm-4.1-2.8l4.1 2.8 1-1-5.1-1.8z"/><path d="M68.4 55.6l-5.6-1.9 3.4-3.5 2.2 5.4zM63 53.7l5.3 1.8-2-5.1-3.3 3.3z"/><path d="M67.6 57.1l.8-1.6.8.2-1.6 1.4zm.8-1.5l-.7 1.3 1.3-1.2-.6-.1zm23.8-18.1l-3.5-1.8 4.6-2.4-1.1 4.2zm-3.3-1.8l3.2 1.6 1-3.9-4.2 2.3zm-23.7 8.9l4.6-3.4v.3l-4.6 3.1zm4.6-3.3l-2.9 2.1 2.9-1.9v-.2z"/><path d="M68 49.1l-2.8-4.5 4.7-3.2-1.9 7.7zm-2.7-4.5l2.7 4.3 1.8-7.3-4.5 3zM69.8 33l-5.2-3.5 5.6-2.9-.4 6.4zm-5-3.5l5 3.4.4-6.1-5.4 2.7z"/><path d="M66.3 35L65 33.6l4.7-.7v.1l-3.4 2zm-1-1.4l1.1 1.3 3.2-1.9-4.3.6z"/><path d="M65.1 33.7l-.5-4.2 5.2 3.6-4.7.6zm-.3-4.1l.5 4 4.5-.7-5-3.3zm.4 15l-.7-5.7 5.4 2.3-4.7 3.4zm-.6-5.6l.6 5.5 4.5-3.3-5.1-2.2z"/><path d="M69.8 41.2l-3.5-6.3 3.5-2.1v8.4zM66.4 35l3.4 6.1V33l-3.4 2z"/><path d="M69.9 41.3L64.5 39l1.8-4.1 3.6 6.4zm-5.3-2.4l5.1 2.2-3.3-6.1-1.8 3.9zm0-9.3l2.5-6.8 3.1 4-5.6 2.8zm2.6-6.7l-2.4 6.5 5.3-2.7-2.9-3.8zm4.3 52.4l1.8-1.6-.3.8-1.5.8zm1.6-1.4L71.7 75l1.2-.6.2-.5zM66.2 75l.8-5.9 4.6 2.8-5.4 3.1zm.8-5.7l-.8 5.6 5.1-2.9-4.3-2.7z"/><path d="M71.4 75.4l.1-3.5 1.7 2-1.8 1.5zm.1-3.3l-.1 3.1 1.6-1.4-1.5-1.7z"/><path d="M73.2 74l-1.7-2v-.1l1.5.7.2 1.4zm-1.5-1.9l1.4 1.6-.2-1-1.2-.6z"/><path d="M72.9 72.7l.7-1.8.4 1.7-1.1.1zm.7-1.5l-.6 1.4.9-.1-.3-1.3zm-3.2-15.4h-1.3l2.2-3.8h.1l-1 3.8zm-1.2-.1h1.1l.9-3.5-2 3.5zm-2.3 23.5l-.7-4.3 4.9 3.4-4.2.9zm-.6-4.2l.7 4.1 3.9-.9-4.6-3.2zm2.8-19.2l-.8-.2 2.9-3.6h.1l-2.2 3.8zm-.7-.2l.6.1 1.9-3.3-2.5 3.2zm2.8-3.6l-5-1.7 1.6-1.1 3.4 2.8zm-4.8-1.7l4.7 1.5-3.2-2.5-1.5 1z"/><path d="M68.4 55.7l-2.1-5.4 5.1 1.7-3 3.7zm-2-5.3l2 5.1 2.8-3.5-4.8-1.6z"/><path d="M71.2 52l-3.4-2.7.2-.4 3.2 3.1zm-3.3-2.7l2.6 2.1L68 49l-.1.3zm3.1 29l-4.9-3.4 5.4.4-.5 3zM66.4 75l4.5 3.2.5-2.8-5-.4zm5.7-14.1L67.4 57l5.2 1-.5 2.9zm-4.4-3.8l4.3 3.6.5-2.7-4.8-.9z"/><path d="M72.7 58.1l-5.3-1 2.9-1.4 2.4 2.4zm-5-1l4.8.9-2.1-2.2-2.7 1.3z"/><path d="M72.6 58.2l-2.3-2.4.9-3.8h.1l1.3 6.2zm-2.2-2.5l2.1 2.2-1.2-5.8-.9 3.6zM67 69.3l-5.7-3 10.8-5.5-5.1 8.5zm-5.5-3l5.5 2.9 4.9-8.2-10.4 5.3z"/><path d="M61.3 66.4l6.2-9.4 4.6 3.8-10.8 5.6zm6.3-9.3l-6 9L72 60.9l-4.4-3.8zm6.6-11.8l-4.4-3.8v-.1l5.8 2.4-1.4 1.5zM70 41.6l4.2 3.6 1.3-1.4-5.5-2.2zm3.1 32.3l-.2-1.3 1.1-.1-.9 1.4zm-.1-1.2l.2 1 .7-1.1-.9.1z"/><path d="M72 60.9l.6-2.9 2.4 2.1-3 .8zm.6-2.8l-.5 2.7 2.7-.7-2.2-2zm4.9 4.1l2-1.6-.1.6-1.9 1zm1.9-1.4L77.8 62l1.5-.8.1-.4zM71.5 72L67 69.3v-.1l6.7 1.8-2.2 1zm-4.2-2.7l4.2 2.6 2-.9-6.2-1.7z"/><path d="M73.7 71.1L67 69.3l5.1-8.5 1.6 10.3zm-6.6-1.9l6.5 1.8L72 61l-4.9 8.2zm2.7-27.9v-8.5l4.4 3.7-4.4 4.8zm0-8.3v8.1l4.1-4.5-4.1-3.6zm5 27.1l-2.3-2V58l3 1.9-.7.2zm-1.9-1.8l1.9 1.7.5-.2-2.4-1.5z"/><path d="M75.6 43.9l-5.9-2.6 4.3-4.7 1.6 7.3zm-5.7-2.7l5.6 2.5-1.5-7-4.1 4.5z"/><path d="M75.5 43.9l-5.7-2.4v-.3l5.7 2.7zm-5.6-2.5l3.6 1.5-3.6-1.6v.1z"/><path d="M67.9 49.1l1.9-7.7 4.5 3.9-6.4 3.8zm1.9-7.6L68 48.9l6.1-3.6-4.3-3.8z"/><path d="M71.3 52l-3.4-3 6.4-3.8-3 6.8zM68 49l3.2 2.9 2.9-6.6L68 49zm11.1-20.5l-.8-2.1L81 28l-1.9.5zm-.7-1.9l.7 1.8 1.6-.4-2.3-1.4zm-3.5 52l-3.5-3.4 1.6-.9 1.9 4.3zm-3.4-3.3l3.3 3.1-1.8-3.9-1.5.8zm6.9-44.8L70 26.7l6.7-1.3 1.7 5.1zm-8.1-3.8l8 3.6-1.7-4.8-6.3 1.2zm4.7 52l-4.1-.4.5-3 3.6 3.4zm-4-.5l3.8.4-3.3-3.2-.5 2.8z"/><path d="M69.7 33l.4-6.4 8.4 3.8-8.8 2.6zm.5-6.3l-.4 6.1 8.5-2.5-8.1-3.6zM80.9 55l-1.5-2.1 1.5-1.4V55zm-1.5-2.1l1.4 1.8-.1-3-1.3 1.2z"/><path d="M78.4 30.4l.5-2.1.3.1-.8 2zm.6-1.9l-.4 1.2.5-1.2H79zM76.1 44l-.6-.2 4.1-4.9h.1L76.1 44zm-.5-.2l.4.1 3-4.2-3.4 4.1z"/><path d="M75.5 43.9L74 36.5l5.7 2.4-4.2 5zm-1.4-7.2l1.5 7.1 4-4.7-5.5-2.4z"/><path d="M74.2 45.3l1.3-1.5.6.2-1.9 1.3zm1.4-1.4L74.5 45l1.5-1-.4-.1z"/><path d="M74.2 45.3l1.8-1.4.5.3-2.3 1.1zm1.9-1.3l-1.5 1 1.7-.8-.2-.2zm-2.5 27.1l3.3-4.5.5.2-3.8 4.3zm3.4-4.5l-2.8 3.7 3.2-3.6-.4-.1z"/><path d="M73.6 71.1L72 60.7l5.1 5.8-3.5 4.6zM72.1 61l1.6 10 3.3-4.4-4.9-5.6zm7.1-2.2l.1-6 1.5 2.1-1.6 3.9zm.2-5.8l-.2 5.6 1.5-3.7-1.3-1.9zm-4.5 25.7l-2-4.3 4.6 3.2-2.6 1.1zm-1.8-4.1l1.8 4 2.4-1-4.2-3z"/><path d="M77.4 77.5l-4.5-3.1.2-.7 4.3 3.8zm-4.4-3l3.8 2.6-3.7-3.2-.1.6z"/><path d="M77.4 77.5l-4.3-3.7.8-1.3 3.5 5zm-4.2-3.7l4 3.5-3.2-4.7-.8 1.2zm6-45.3l-.3-.1-.6-1.9h.1l.8 2zm-.2-.1l-.3-.9.3.9zm-1.5 33.8l-5.6-1.3 3-.8 2.6 2.1zm-5.3-1.3l5.2 1.2-2.5-2-2.7.8z"/><path d="M77 66.7l-5.1-5.9 5.6 1.3-.5 4.6zm-4.9-5.8l4.8 5.6.5-4.3-5.3-1.3z"/><path d="M77.5 62.2l-2.7-2.1.7-.2 2 2.3zm-2.6-2.1l2.3 1.8-1.7-1.9-.6.1zm3.2 17.1l.3-4.6 1.1 1.6-1.4 3zm.3-4.4l-.3 4.2 1.2-2.8-.9-1.4z"/><path d="M77.4 77.6l1-5h.1l-.3 4.5-.8.5zm.9-4.3l-.8 4.1.5-.3.3-3.8zm8.4-41.9l.1-1.7 3.5-.7v.1l-3.6 2.3zm.2-1.7l-.1 1.5 3.3-2.2-3.2.7zm-9.5 47.9l-3.6-5.1 4.5.1-.9 5zm-3.4-5l3.4 4.8.9-4.7-4.3-.1zm4.4-42.1l-1.7-5.1h.1l2.3 3-.7 2.1zm-1.6-4.8l1.6 4.6.5-1.9-2.1-2.7z"/><path d="M74 36.7L69.6 33l8.8-2.6-4.4 6.3zM69.8 33l4.2 3.6 4.2-6.1-8.4 2.5zM79 69.6l-1.6-2.8h.1l1.9 2.8H79zm-1.1-2.1l1.1 2h.2l-1.3-2zM75.4 60l3.9-7.1h.1l-.2 5.9-3.8 1.2zm3.9-6.9l-3.8 6.8 3.6-1.1.2-5.7zm-1.8 13.7l-.5-.2 1.6-1.9h.1l-1.2 2.1zm-.5-.2l.4.2.9-1.7-1.3 1.5z"/><path d="M76.9 66.7l.6-4.7 1.1 2.7-1.7 2zm.6-4.4l-.5 4.2 1.5-1.8-1-2.4zm-4 8.8l4-4.4 1.6 2.9-5.6 1.5zm3.9-4.3L73.7 71l5.2-1.4-1.5-2.8z"/><path d="M78.4 72.7l-4.8-1.6V71l5.2.8-.4.9zM74 71.1l4.3 1.5.3-.8-4.6-.7z"/><path d="M78.8 71.8l-5.2-.7V71l5.4-1.5-.2 2.3zm-5-.8l4.9.7.2-2.1-5.1 1.4zm5.1-42.6l-2.3-2.9.1-.1 1.7 1.1.5 1.9zm-2.1-2.8l2 2.6-.5-1.7-1.5-.9zm1.8 39.2l-1.1-2.6h.1l1.5 1.8-.5.8zm-1-2.4l.9 2.2.4-.6-1.3-1.6zm11.2-26.6l.4-2.4h4.1v.1l-4.5 2.3zm.4-2.4l-.4 2.2 4.2-2.2h-3.8z"/><path d="M78.8 71.8l.2-2.3h.4l-.6 2.3zm.2-2.2l-.2 1.6.4-1.7-.2.1zm-3.5-9.7l-3-1.9 6.8-5.2h.1l-3.9 7.1zm-2.9-1.8l2.8 1.8 3.8-6.8-6.6 5zm10-28.3L79 28.5l1.9-.5 1.7 1.8zm-3.3-1.3l3.2 1.2-1.6-1.7-1.6.5zm7.5 2.9l-4.1-1.3V30l4.2-.3-.1 1.7zM82.9 30l3.8 1.3.1-1.5-3.9.2z"/><path d="M79.5 60.7l-4-.8v-.1l3.7-1.1.3 2zm-3.9-.8l3.8.7-.3-1.8-3.5 1.1zm3.8-7l-8.2-.9 3-6.8 5.2 7.7zm-8.1-.9l8 .9-5.1-7.5-2.9 6.6zm5.1-7.8L76 44l3.6-5h.1l-3.3 5.2zm-.3-.3l.3.2 2.6-4.3-2.9 4.1zm1.4 18.3l1.9-1.1v.7l-1.9.4zm1.9-.9l-1.6.8 1.6-.3v-.5z"/><path d="M79 64l-1.6-1.9 2.1-.4L79 64zm-1.4-1.8l1.4 1.7.4-2-1.8.3z"/><path d="M77.5 62.2l-2.1-2.4 4.2.8-2.1 1.6zm-1.9-2.3l1.9 2.2 1.9-1.4-3.8-.8zm-1.7-23.2l4.4-6.3 3.3 3.6-7.7 2.7zm4.5-6.2l-4.2 6 7.4-2.6-3.2-3.4zm-.1 42.2l.4-1 1.6.8v.1l-2 .1zm.5-.9l-.3.8h1.8l-1.5-.8zm4.3-5.7l-1.2-1.3.7-.7.5 2zM82 64.8l1 1.1-.4-1.7-.6.6zM79.4 53l-5.2-7.7h.1l6.6 6.4-1.5 1.3zm-5-7.5l4.9 7.3 1.3-1.2-6.2-6.1z"/><path d="M80.7 51.6l-6.6-6.4 2.3-1.1 4.3 7.5zm-6.4-6.3l6.3 6.1-4.2-7.2-2.1 1.1zm4-14.8l.8-2 3.6 1.4-4.4.6zm.9-2l-.7 1.8 4-.6-3.3-1.2zm8.7 32.1l-8.8-1.8v-.1l8.9-1.1-.1 3zm-8.5-1.8l8.4 1.7.1-2.8-8.5 1.1zm2.6 6.1l-3.5-.2.5-.8 3 1zm-3.4-.3l3 .1L79 64l-.4.6zm3-30.6l5.2-2.7.7 2-5.9.7zm5.2-2.6l-4.9 2.5 5.6-.6-.7-1.9zm-8.1 40.5l.6-2.4 2.4.9-3 1.5zm.6-2.3l-.5 2.1 2.7-1.3-2.2-.8zm4.9-25l-4.7-5.7 6 2.2-1.3 3.5zm-4.4-5.5l4.4 5.4 1.3-3.3-5.7-2.1z"/><path d="M77.4 66.9l1.2-2.2 3.4.2v.1l-4.6 1.9zm1.2-2.2l-1.1 2 4.3-1.8-3.2-.2z"/><path d="M79.3 69.6l-1.9-2.8 4.7-2-2.8 4.8zm-1.8-2.8l1.8 2.7 2.6-4.5-4.4 1.8zm6-28.8l-1.9-4.1 6-.7-4.1 4.8zm-1.8-4l1.8 3.9 3.9-4.5-5.7.6zm-3.3-3.5l4.3-.7.2.3-4.5.4zm4.2-.7l-2.8.4 2.9-.3-.1-.1z"/><path d="M82.1 64.9l-3.2-.9.5-2.3 2.7 3.2zm-3.1-1l2.8.8-2.4-2.9-.4 2.1zm10.2-30.5l-1.8-.1v-.1l1.6-.1.2.3zm-1.1-.1l1 .1-.1-.1h-.9z"/><path d="M82.6 64.2l-3.2-2.4v-.7l3.2 3.1zm-3.1-2.4l2.6 1.9-2.6-2.4v.5z"/><path d="M82.6 64.2l-3.2-3 .1-.6 3.1 3.6zm-3.1-3l2.6 2.4-2.5-2.8-.1.4zm6.1-20L79.5 39l4-1.1 2.1 3.3zM79.8 39l5.7 2.1-1.9-3.1-3.8 1z"/><path d="M82 64.9l-2.5-3.1.1-.1 3.2 2.4-.8.8zM79.7 62l2.3 2.8.6-.6-2.9-2.2zm1.9 8.5l-2.4-.9 3.6-1.4-1.2 2.3zm-2.2-1l2.1.8 1.1-2.1-3.2 1.3z"/><path d="M79.2 69.6l2.7-4.9.8 3.5-3.5 1.4zm2.7-4.7l-2.5 4.5 3.2-1.3-.7-3.2zm6.2-7.1l-7.3-2.9v-.1l6.6.7.7 2.3zm-7-2.9l6.9 2.7-.6-2.1-6.3-.6zm.5-20.9l-3.4-3.6 4.5-.4-1.1 4zm-3.1-3.6l3.2 3.4 1.1-3.8-4.3.4zm12.4 35.2l-3-5h.1l3.2 2.5-.3 2.5zM88 60.7l2.8 4.6.2-2.2-3-2.4z"/><path d="M79.6 39l2-5.2 1.9 4.1-3.9 1.1zm2-5l-1.9 4.9 3.8-1-1.9-3.9zm1.1-3.9l2.1-3.1 2.1 2.7-4.2.4zm2.1-3l-2 2.8 4-.3-2-2.5zm-.5 17.5l-7.9-.4v-.1l7.8.4z"/><path d="M80.7 51.7l-4.4-7.6 7.9.4-3.5 7.2zm-4.2-7.5l4.2 7.3 3.4-6.9-7.6-.4zm6.1-14.3L80.8 28l4.1-1-2.3 2.9zM81 28l1.6 1.7 2.1-2.6-3.7.9z"/><path d="M84.2 44.6l-7.9-.3 3.3-5.3 4.6 5.6zm-7.7-.4l7.6.3-4.5-5.5-3.1 5.2zm12.3-8.4l-1.4-2.6 1.8.1-.4 2.5zm-1.3-2.5l1.2 2.3.3-2.1-1.5-.2zM80.9 28l-2.6-1.5v-.1l6.4.6v.1l-3.8.9zm-2.4-1.4l2.4 1.4 3.6-.9-6-.5z"/><path d="M82.7 30.1l-.2-.3 2.2-2.7h.1l-2.1 3zm0-.3l.1.1 1.3-1.9-1.4 1.8z"/><path d="M81.6 34l1.1-4 4.2 1.4-5.3 2.6zm1.2-3.9l-1.1 3.8 5-2.5-3.9-1.3zm1.4 14.6l-.1-.2 1.4-3.4v.1z"/><path d="M87.5 33.3l-.7-2.1 2.5 2-1.8.1zm-.6-1.8l.6 1.8 1.5-.1-2.1-1.7zm.5 24.1l-6.7-.7-.1-3.3 6.8 4zm-6.5-.8l6.4.6-6.5-3.8.1 3.2zM91 63.1l-3.2-2.5.2-3 3 5.5zm-3.1-2.5l3 2.4-2.8-5.1-.2 2.7z"/><path d="M84.4 66.5l-1.9-2.4 5.3-3.6.1.1-3.5 5.9zm-1.7-2.3l1.7 2.2 3.4-5.7-5.1 3.5z"/><path d="M82.6 64.2l-3.2-3.6 8.6-.1-5.4 3.7zm-3-3.5l3.1 3.4 5.1-3.5-8.2.1z"/><path d="M79.4 60.7l-.3-2 8.8 1.8v.1l-8.5.1zm-.2-1.9l.3 1.8 8-.1-8.3-1.7z"/><path d="M79.1 58.8l1.7-4 7.2 2.9v.1l-8.9 1zm1.7-3.9l-1.6 3.8 8.6-1-7-2.8zm4.7-13.7l-2.1-3.4 5.4-2.3-3.3 5.7zm-1.9-3.3l1.9 3.2 3.2-5.3-5.1 2.1z"/><path d="M83.5 37.9l4-4.7 1.4 2.5-5.4 2.2zm4-4.6l-3.8 4.5 5.1-2.1-1.3-2.4z"/><path d="M85.4 41.3l3.4-5.6 3.4 1.7-6.8 3.9zm3.4-5.6L85.6 41l6.4-3.6-3.2-1.7zM88 57.8l-.6-2.3 2.7-.7-2.1 3zm-.5-2.3l.6 2.1 1.9-2.7-2.5.6zm-3.1 11l3.5-6 3 5h-.1l-6.4 1zm3.5-5.8l-3.4 5.7 6.3-1-2.9-4.7z"/><path d="M87.4 55.6l3.8-7.8h.1l-1.2 7.1-2.7.7zm3.7-7.6l-3.6 7.4 2.5-.7 1.1-6.7zm1-10.5l1.1-4.2 3.4.8-4.5 3.4zm1.1-4.1l-1 3.9 4.2-3.2-3.2-.7zm-2 14.4l-7.1-3.2 1.3-3.5 5.8 6.7zm-7-3.2l6.8 3.1-5.6-6.4-1.2 3.3z"/><path d="M87.5 55.6l-6.8-4h.1l10.6-3.9-3.9 7.9zm-6.7-4l6.6 3.8 3.7-7.6-10.3 3.8z"/><path d="M90.1 54.8l1.1-7.2 1.7 2.5-2.8 4.7zm1.2-6.9l-1.2 6.8 2.7-4.4-1.5-2.4z"/><path d="M80.7 51.7l3.5-7.2 7.1 3.2-10.6 4zm3.5-7.1l-3.4 6.9 10.3-3.8-6.9-3.1zm5-11.1l-.2-.3 2.6-2.7.1.1-2.5 2.9zm-.1-.3l.1.1 1.5-1.7-1.6 1.6z"/><path d="M89.1 33.2l1.2-4.3 1.4 1.6-2.6 2.7zm1.2-4.1l-1.2 4 2.4-2.6-1.2-1.4zm2.6 21.1l-1.7-2.5 3.8.9-2.1 1.6zm-1.6-2.4l1.6 2.3 1.9-1.5-3.5-.8zm7 10.4l-1.8-2.1 2.2-1.4-.4 3.5zm-1.7-2l1.6 1.9.4-3.2-2 1.3z"/><path d="M96.5 56.2l1.1-4.8 1.1 3.4-2.2 1.4zm1.1-4.4l-1 4.3 2-1.3-1-3zm1.6-7.4l1.3-2h.1l-.4 1.8-1 .2zm1.2-1.8l-1.1 1.7.7-.1.4-1.6zm-11.3-9.2l2.5-3 1.6 3h-4.1zm2.5-2.8l-2.4 2.8h3.9l-1.5-2.8zM94.8 42l-9.4-.8 6.8-3.8 2.6 4.6zm-9.2-.9l9 .8-2.5-4.4-6.5 3.6zm9.3 7.5l-3.7-.8v-.1l4.4-.2-.7 1.1zm-3.4-.8l3.3.8.6-.9-3.9.1z"/><path d="M91.2 47.8l3.6-6 .9 5.8-4.5.2zm3.5-5.8l-3.4 5.7 4.2-.2-.8-5.5zm1.2 17.4L90 54.8v-.1l6.5 1.4-.6 3.3zm-5.7-4.5l5.6 4.4.7-3.1-6.3-1.3zm1-7.1l-5.8-6.7 9.3.8-3.5 5.9zm-5.6-6.6l5.6 6.5 3.4-5.7-9-.8z"/><path d="M95.8 59.4L88 57.7l2-3 5.8 4.7zm-7.7-1.7l7.6 1.6-5.7-4.4-1.9 2.8z"/><path d="M91 63.2l-3-5.5 8 1.7-5 3.8zm-2.9-5.4l2.9 5.3 4.7-3.7-7.6-1.6zm8.5-1.6L90 54.8l2.9-4.7 3.7 6.1zm-6.5-1.4l6.4 1.3-3.6-5.9-2.8 4.6z"/><path d="M95 63.8l-2.7-.2 3.6-4.2h.1l-1 4.4zm-2.6-.3l2.5.2.9-4.2-3.4 4z"/><path d="M92.4 63.6l-1.4-.5 4.9-3.8.1.1-3.6 4.2zm-1.3-.5l1.2.4 3.3-3.9-4.5 3.5z"/><path d="M95.8 59.4l.7-3.2h.1l-.6 3.2h-.2zm.4-1.7l-.4 1.6h.1l.3-1.6z"/><path d="M96.9 60l-1.2-.7h.3l.9.7zm-.9-.6l.3.2-.3-.2z"/><path d="M95 63.8l.9-4.5 1.1.7-2 3.8zm.9-4.4l-.9 4.1 1.8-3.5-.9-.6z"/><path d="M96.9 60l-1-.7 1.9-1.2-.9 1.9zm-.8-.7l.8.6.8-1.6-1.6 1z"/><path d="M98.2 59.1l-.5-.9.5-.1v1zm-.3-.8l.3.6v-.6h-.3zm-.2-6.6l-4.9-1.5 2.1-1.7 2.8 3.2zM93 50.2l4.5 1.4-2.6-2.9-1.9 1.5z"/><path d="M96.5 56.3l-3.7-6.1 4.8 1.5-1.1 4.6zm-3.5-6l3.5 5.8 1-4.4-4.5-1.4z"/><path d="M96 59.4l.5-3.3 1.3 2.2-1.8 1.1zm.5-3.1l-.5 3 1.7-1-1.2-2zM94.7 42l-2.6-4.6 5.9.8-3.3 3.8zm-2.5-4.6l2.5 4.4 3.2-3.7-5.7-.7z"/><path d="M98 38.2l-6-.8 4.4-3.4 1.6 4.2zm-5.8-.8l5.6.7-1.4-3.9-4.2 3.2zM101 41l-2.9-3 3.3.6-.4 2.4zm-2.7-3l2.6 2.8.4-2.2-3-.6zm-.5 20.3l-1.3-2.1h.1l1.7 2-.5.1zm-1-1.7l1 1.6.3-.1-1.3-1.5z"/><path d="M97.9 38.2l-1.5-4.1h.1l1.7 3.9-.3.2zm-1-3.1l1.1 3 .2-.1-1.3-2.9zm0 24.9l.9-1.9.5.8-1.4 1.1zm.9-1.7l-.8 1.6 1.1-.9-.3-.7zm.7-7.9l-3.7-1.9.7-1.1 3 3zm-3.6-1.8l3.4 1.7-2.7-2.6-.7.9z"/><path d="M97.6 51.7l-2.7-3.1v-.1l3.7 1.9-1 1.3zm-2.6-3l2.5 2.9.9-1.1-3.4-1.8zm.5-1l-.9-5.8 4.7 2.5-3.8 3.3zm-.8-5.7l.8 5.5 3.6-3.1-4.4-2.4zm5.9 13l-2.1-.1 1-3.4 1.1 3.5zm-2-.2l1.9.1-1-3.1-.9 3z"/><path d="M99.6 51.7h-2.2l1.1-1.3 1.1 1.3zm-2-.1h1.8l-.9-1.1-.9 1.1z"/><path d="M98.6 55l-1.1-3.4h2.1l-1 3.4zm-1-3.3l1 3 .9-3h-1.9zm2.5-7.5l.4-1.8h.1l.3 1.7-.8.1zm.4-1.6l-.3 1.5.6-.1-.3-1.4zm0-.2l.6-1.2.2.5-.8.7zm.7-1.1l-.5.9.6-.6-.1-.3z"/><path d="M99.6 51.7l-1.1-1.3 1.7-1.5-.6 2.8zm-1-1.3l.9 1.1.5-2.4-1.4 1.3z"/><path d="M98.5 50.5l-3-2.9v-.1l4.6 1.4-1.6 1.6zm-2.8-2.8l2.8 2.7L100 49l-4.3-1.3z"/><path d="M100.1 49.1l-4.6-1.5 3.8-3.3.8 4.8zm-4.5-1.5L100 49l-.8-4.5-3.6 3.1zm5-5.2l-6-.5 3.3-3.9 2.7 4.4zm-5.8-.5l5.7.5-2.5-4.2-3.2 3.7z"/><path d="M99.3 44.4L94.7 42v-.1l5.9.5-1.3 2zM94.9 42l4.4 2.3 1.2-1.9-5.6-.4zm3.3 16.3l.4-3.5 2.1.1-2.5 3.4zm.4-3.4l-.3 3.1 2.2-3-1.9-.1zm1.5-5.8l-.8-4.7h.1l1.4 4.2-.7.5zm-.7-4.3l.7 4.1.5-.5-1.2-3.6z"/><path d="M100.6 48.5l-1.4-4.2 2 1.3-.6 2.9zm-1.2-4.1l1.3 3.9.5-2.7-1.8-1.2zm1.2-2l.4-1.7.3.5-.7 1.2zm.4-1.4l-.3 1.1.5-.8-.2-.3z"/><path d="M100.5 42.5l-2.6-4.3h.1l3 2.8-.5 1.5zm-2.4-4.2l2.4 4 .4-1.4-2.8-2.6z"/><path d="M100.9 40.9l-3.1-2.8.3-.2 2.8 3zM98 38.1l2.2 2-2-2.1-.2.1zm3.2 7.5l-2-1.3.9-.2 1.1 1.5zm-1.8-1.2l1.6 1.1-.9-1.2-.7.1z"/><path d="M101.2 45.6l-1.1-1.4.8-.2.3 1.6zm-1-1.4l.9 1.2-.4-1.4-.5.2zm.4 10.9l-1.1-3.5 2.4 1.4-1.3 2.1zm-1-3.4l1 3.1 1.1-1.9-2.1-1.2zm1-3.1l.6-3h.1l.1 2.2-.8.8zm.6-2.7l-.5 2.5.6-.6-.1-1.9zm-.4-1.9l-.4-1.6.9-.8-.5 2.4zm-.2-1.6l.2 1.4.5-2.1-.7.7zm2.3 15.8l-.6-.3.6-2.3h.1l-.1 2.6zm-.5-.3l.4.2.1-2.1-.5 1.9zm.5-2.3l-.7-2 .8-.5-.1 2.5zm-.6-1.9l.6 1.7-.1-2.1-.5.4z"/><path d="M100.6 55l1.2-2.1.5.8-1.7 1.3zm1.2-1.9l-1.1 1.7 1.4-1.1-.3-.6zm-3.7 5.1l2.4-3.3 1.9 3-4.3.3zm2.5-3.2l-2.3 3.1 4-.3-1.7-2.8zm-3.8 5l1.4-1.1 4.7 1v.1h-6.1zm1.4-1l-1.2.9h5.5l-4.3-.9z"/><path d="M98.2 59v-.9l4.2-.3v.1L98.2 59zm.1-.8v.7l3.8-1-3.8.3zm4.2-13.8l-1.8-.4.6-2.5 1.2 2.9zm-1.7-.4l1.6.3-1-2.5-.6 2.2zm.4 1.7l-.5-1.7 1.8.4-1.3 1.3zm-.3-1.6l.4 1.4 1.1-1.1-1.5-.3zm.2-2.8l-.3-.5 1.7-.5v.1l-1.4.9zm-.1-.4l.2.3 1.2-.7-1.4.4z"/><path d="M101.3 41.7l-.2-.5 1.5-.9v.1l-1.3 1.3zm-.1-.4l.2.3 1-1.1-1.2.8zm1 12.4l-.5-.8 1.3.3-.8.5zm-.3-.6l.4.6.6-.4-1-.2zm.5 4.9l-1.9-3.1 2.5.7-.6 2.4zm-1.7-3l1.7 2.8.5-2.1-2.2-.7z"/><path d="M103 55.7l-2.5-.7 1.7-1.4.8 2.1zm-2.3-.8l2.2.6-.7-1.8-1.5 1.2zm-1.2-3.2l.6-2.7 3.4.9-4 1.8zm.6-2.6l-.5 2.5 3.7-1.7-3.2-.8z"/><path d="M101.8 53l-2.3-1.4 4-1.9-1.7 3.3zm-2.2-1.4l2.1 1.3 1.5-3-3.6 1.7zm1.5-6l1.3-1.3 2.4 1.1v.1l-3.7.1zm1.4-1.2l-1.2 1.1 3.3-.1-2.1-1z"/><path d="M103.4 49.9l-2.7-1.4.7-.8 2 2.2zm-2.7-1.4l2.4 1.2-1.8-1.9-.6.7z"/><path d="M102.9 53.3l-1.2-.3 1.6-3.2h.1l-.5 3.5zm-1.1-.3l1 .2.4-3.1-1.4 2.9z"/><path d="M103.4 49.9L100 49l.7-.6 2.7 1.5zm-3.2-.9l2.9.7-2.4-1.2-.5.5zm1.2-1.2l4-1.2.3 1-4.3.2zm3.9-1l-3.6 1 3.8-.2-.2-.8zm-2.9-2.4l-1.2-2.9 3.4 2.3-2.2.6zm-1-2.6l1.1 2.6 2-.5-3.1-2.1z"/><path d="M103.4 49.9l-2.1-2.1 4.3-.2-2.2 2.3zm-2-2.1l1.9 2 2-2.1-3.9.1z"/><path d="M101.3 47.9l-.1-2.3 3.8-.1-3.7 2.4zm0-2.3l.1 2.1 3.3-2.2-3.4.1z"/><path d="M101.4 47.8l3.5-2.4.5 1.3-4 1.1zm3.4-2.3l-3.2 2.2 3.7-1-.5-1.2zm-1.9 7.8l.4-3.4 2.1-2.3h.1l-2.6 5.7zm.5-3.4L103 53l2.4-5.2-2 2.1zM7.9 62s-.2 0-.2-.2.2-.2.2-.2.2 0 .2.2c.1.2-.1.2-.2.2zm7.6 36.7s-.2 0-.2-.2.2-.2.2-.2.2 0 .2.2c0 .1-.2.2-.2.2zm1.8-53.3s-.2 0-.2-.2.2-.2.2-.2.2 0 .2.2c.1.2-.1.2-.2.2zm.1 13.2s-.2 0-.2-.2.2-.2.2-.2.2 0 .2.2-.2.2-.2.2zm.1 14.4s-.2 0-.2-.2.2-.2.2-.2.2 0 .2.2-.2.2-.2.2zm.3.6s-.2 0-.2-.2.2-.2.2-.2.2 0 .2.2-.2.2-.2.2zm0-23.8s-.2 0-.2-.2.2-.2.2-.2.2 0 .2.2c.1.2-.1.2-.2.2zm0 21.6s-.2 0-.2-.2.2-.2.2-.2.2 0 .2.2c.1.2-.1.2-.2.2zm.1-25.2s-.2 0-.2-.2.2-.2.2-.2.2 0 .2.2c.1.2-.1.2-.2.2zm.2 25.9s-.2 0-.2-.2.2-.2.2-.2.2 0 .2.2c0 .1-.2.2-.2.2z"/><path d="M18.2 49.9s-.2 0-.2-.2.2-.2.2-.2.2 0 .2.2c.1.2-.1.2-.2.2zm0 26.5s-.2 0-.2-.2.2-.2.2-.2.2 0 .2.2-.1.2-.2.2zm.2-27.3s-.2 0-.2-.2.2-.2.2-.2.2 0 .2.2c.1.2-.1.2-.2.2zm.4 24.9s-.2 0-.2-.2.2-.2.2-.2.2 0 .2.2c.1.2-.1.2-.2.2zm.3 2.3s-.2 0-.2-.2.2-.2.2-.2.2 0 .2.2c.1.2-.1.2-.2.2zm.1-21.4s-.2 0-.2-.2.2-.2.2-.2.2 0 .2.2-.2.2-.2.2zm.3 9.7s-.2 0-.2-.2.2-.2.2-.2.2 0 .2.2-.2.2-.2.2zm.1 11.7s-.2 0-.2-.2.2-.2.2-.2.2 0 .2.2-.2.2-.2.2zm0-7.4s-.2 0-.2-.2.2-.2.2-.2.2 0 .2.2-.2.2-.2.2zm0-4.9s-.2 0-.2-.2.2-.2.2-.2.2 0 .2.2-.1.2-.2.2zm.1-10.6s-.2 0-.2-.2.2-.2.2-.2.2 0 .2.2-.1.2-.2.2zm.3 22.8s-.2 0-.2-.2.2-.2.2-.2.2 0 .2.2c.1.2-.1.2-.2.2zm.2-9.6s-.2 0-.2-.2.2-.2.2-.2.2 0 .2.2-.2.2-.2.2zm.4-5.9s-.2 0-.2-.2.2-.2.2-.2.2 0 .2.2-.1.2-.2.2zm.2-11.8s-.2 0-.2-.2.2-.2.2-.2.2 0 .2.2-.1.2-.2.2zm.1-8.6s-.2 0-.2-.2.2-.2.2-.2.2 0 .2.2-.2.2-.2.2zm.1 41.1s-.2 0-.2-.2.2-.2.2-.2.2 0 .2.2-.2.2-.2.2zm0-45.7s-.2 0-.2-.2.2-.2.2-.2.2 0 .2.2-.2.2-.2.2zM21 53s-.2 0-.2-.2.2-.2.2-.2.2 0 .2.2-.2.2-.2.2zm0-11.5s-.2 0-.2-.2.2-.2.2-.2.2 0 .2.2c.1.2-.1.2-.2.2zm.1 37.6s-.2 0-.2-.2.2-.2.2-.2.2 0 .2.2-.2.2-.2.2zm0 .7s-.2 0-.2-.2.2-.2.2-.2.2 0 .2.2-.2.2-.2.2zm.2-41.3s-.2 0-.2-.2.2-.2.2-.2.2 0 .2.2-.2.2-.2.2zm0 35.1s-.2 0-.2-.2.2-.2.2-.2.2 0 .2.2-.2.2-.2.2zm0 7s-.2 0-.2-.2.2-.2.2-.2.2 0 .2.2-.2.2-.2.2zm0-40.8s-.2 0-.2-.2.2-.2.2-.2.2 0 .2.2c0 .1-.2.2-.2.2zm0 59.5s-.2 0-.2-.2.2-.2.2-.2.2 0 .2.2-.2.2-.2.2zm.1-33.1s-.2 0-.2-.2.2-.2.2-.2.2 0 .2.2-.2.2-.2.2zm.1 24.7s-.2 0-.2-.2.2-.2.2-.2.2 0 .2.2-.2.2-.2.2zm.1-27.6s-.2 0-.2-.2.2-.2.2-.2.2 0 .2.2-.2.2-.2.2zm.4 19.8s-.2 0-.2-.2.2-.2.2-.2.2 0 .2.2-.2.2-.2.2zm.3-32.4s-.2 0-.2-.2.2-.2.2-.2.2 0 .2.2-.2.2-.2.2zm.3 18.6s-.2 0-.2-.2.2-.2.2-.2.2 0 .2.2-.2.2-.2.2zm.1-19.1s-.2 0-.2-.2.2-.2.2-.2.2 0 .2.2c.1.2-.1.2-.2.2zm.1-8.2s-.2 0-.2-.2.2-.2.2-.2.2 0 .2.2-.2.2-.2.2zm0 40.9s-.2 0-.2-.2.2-.2.2-.2.2 0 .2.2c0 .1-.2.2-.2.2zm.1-46.6s-.2 0-.2-.2.2-.2.2-.2.2 0 .2.2-.2.2-.2.2zm0 15.9s-.2 0-.2-.2.2-.2.2-.2.2 0 .2.2c.1.2-.1.2-.2.2zm.2 2.8s-.2 0-.2-.2.2-.2.2-.2.2 0 .2.2-.2.2-.2.2zm.6 27.5s-.2 0-.2-.2.2-.2.2-.2.2 0 .2.2-.2.2-.2.2zm.1-27.8s-.2 0-.2-.2.2-.2.2-.2.2 0 .2.2-.2.2-.2.2zm.1-18.3s-.2 0-.2-.2.2-.2.2-.2.2 0 .2.2c.1.2-.1.2-.2.2zm.1 41.5s-.2 0-.2-.2.2-.2.2-.2.2 0 .2.2c0 .1-.2.2-.2.2zm.3 4.4s-.2 0-.2-.2.2-.2.2-.2.2 0 .2.2-.2.2-.2.2zm.1-40.5s-.2 0-.2-.2.2-.2.2-.2.2 0 .2.2-.2.2-.2.2zm.1 12.4s-.2 0-.2-.2.2-.2.2-.2.2 0 .2.2-.2.2-.2.2zm.2 28.2s-.2 0-.2-.2.2-.2.2-.2.2 0 .2.2-.2.2-.2.2zm0-9.7s-.2 0-.2-.2.2-.2.2-.2.2 0 .2.2-.1.2-.2.2zm.1-22.2s-.2 0-.2-.2.2-.2.2-.2.2 0 .2.2-.2.2-.2.2zm0-13.6s-.2 0-.2-.2.2-.2.2-.2.2 0 .2.2c0 .1-.2.2-.2.2zm0 5.7s-.2 0-.2-.2.2-.2.2-.2.2 0 .2.2c.1.2-.1.2-.2.2zM25 51s-.2 0-.2-.2.2-.2.2-.2.2 0 .2.2-.2.2-.2.2z"/><path d="M25.2 51.4s-.2 0-.2-.2.2-.2.2-.2.2 0 .2.2-.2.2-.2.2zm.2 36.6s-.2 0-.2-.2.2-.2.2-.2.2 0 .2.2-.2.2-.2.2zm0 8.9s-.2 0-.2-.2.2-.2.2-.2.2 0 .2.2-.2.2-.2.2zm0-45s-.2 0-.2-.2.2-.2.2-.2.2 0 .2.2-.2.2-.2.2zm.5 24.2s-.2 0-.2-.2.2-.2.2-.2.2 0 .2.2-.1.2-.2.2zm.3-30.2s-.2 0-.2-.2.2-.2.2-.2.2 0 .2.2-.2.2-.2.2zm0-11.3s-.2 0-.2-.2.2-.2.2-.2.2 0 .2.2-.1.2-.2.2zm.2.5s-.2 0-.2-.2.2-.2.2-.2.2 0 .2.2c.1.1-.1.2-.2.2zm.1-1.4s-.2 0-.2-.2.2-.2.2-.2.2 0 .2.2c0 .1-.2.2-.2.2zm0 42.6s-.2 0-.2-.2.2-.2.2-.2.2 0 .2.2-.2.2-.2.2zm.1 6.6s-.2 0-.2-.2.2-.2.2-.2.2 0 .2.2-.2.2-.2.2zm.4-15.4s-.2 0-.2-.2.2-.2.2-.2.2 0 .2.2c.1.2-.1.2-.2.2zm.2-29.1s-.2 0-.2-.2.2-.2.2-.2.2 0 .2.2-.2.2-.2.2zm.2 13.9s-.2 0-.2-.2.2-.2.2-.2.2 0 .2.2-.1.2-.2.2zm.1-15.7s-.2 0-.2-.2.2-.2.2-.2.2 0 .2.2-.2.2-.2.2zm0-9.6s-.2 0-.2-.2.2-.2.2-.2.2 0 .2.2c.1.2-.1.2-.2.2zm.3 12.1s-.2 0-.2-.2.2-.2.2-.2.2 0 .2.2c.1.2-.1.2-.2.2zm.1 14.2s-.2 0-.2-.2.2-.2.2-.2.2 0 .2.2-.2.2-.2.2zm0 28.9s-.2 0-.2-.2.2-.2.2-.2.2 0 .2.2-.1.2-.2.2zm.1 20.3s-.2 0-.2-.2.2-.2.2-.2.2 0 .2.2-.2.2-.2.2zm.4-67.3s-.2 0-.2-.2.2-.2.2-.2.2 0 .2.2-.2.2-.2.2zm.7 39.5s-.2 0-.2-.2.2-.2.2-.2.2 0 .2.2c.1.2-.1.2-.2.2zm.2-25.1s-.2 0-.2-.2.2-.2.2-.2.2 0 .2.2-.1.2-.2.2zm.3 15.3s-.2 0-.2-.2.2-.2.2-.2.2 0 .2.2-.2.2-.2.2zm.2-28.3s-.2 0-.2-.2.2-.2.2-.2.2 0 .2.2-.2.2-.2.2z"/><path d="M29.8 65.2s-.2 0-.2-.2.2-.2.2-.2.2 0 .2.2-.1.2-.2.2zm.5-36.2s-.2 0-.2-.2.2-.2.2-.2.2 0 .2.2-.2.2-.2.2zm.1 1.9s-.2 0-.2-.2.2-.2.2-.2.2 0 .2.2-.2.2-.2.2zm.1 41.4s-.2 0-.2-.2.2-.2.2-.2.2 0 .2.2-.2.2-.2.2zm.1 13.5s-.2 0-.2-.2.2-.2.2-.2.2 0 .2.2-.2.2-.2.2zm.3-6.9s-.2 0-.2-.2.2-.2.2-.2.2 0 .2.2c0 .1-.1.2-.2.2zM31 95s-.2 0-.2-.2.2-.2.2-.2.2 0 .2.2-.2.2-.2.2zm.3-3.6s-.2 0-.2-.2.2-.2.2-.2.2 0 .2.2c0 .1-.2.2-.2.2zm.3-.4s-.2 0-.2-.2.2-.2.2-.2.2 0 .2.2-.2.2-.2.2zm0 2.2s-.2 0-.2-.2.2-.2.2-.2.2 0 .2.2-.2.2-.2.2zm.2-12.1s-.2 0-.2-.2.2-.2.2-.2.2 0 .2.2-.2.2-.2.2zm0 10.6s-.2 0-.2-.2.2-.2.2-.2.2 0 .2.2-.1.2-.2.2zm0-35.5s-.2 0-.2-.2.2-.2.2-.2.2 0 .2.2c.1.2-.1.2-.2.2zm.1 37.5s-.2 0-.2-.2.2-.2.2-.2.2 0 .2.2c.1.2-.1.2-.2.2zm.1-48s-.2 0-.2-.2.2-.2.2-.2.2 0 .2.2-.2.2-.2.2zm.2 28.6s-.2 0-.2-.2.2-.2.2-.2.2 0 .2.2-.2.2-.2.2zm.2-46.3s-.2 0-.2-.2.2-.2.2-.2.2 0 .2.2-.2.2-.2.2zm.1 50s-.2 0-.2-.2.2-.2.2-.2.2 0 .2.2c0 .1-.2.2-.2.2zm.2-46.2s-.2 0-.2-.2.2-.2.2-.2.2 0 .2.2-.2.2-.2.2zm.1 42.2s-.2 0-.2-.2.2-.2.2-.2.2 0 .2.2-.2.2-.2.2zm0 8.4s-.2 0-.2-.2.2-.2.2-.2.2 0 .2.2c.1.2-.1.2-.2.2zm.6-2s-.2 0-.2-.2.2-.2.2-.2.2 0 .2.2-.2.2-.2.2zm.1-43.5s-.2 0-.2-.2.2-.2.2-.2.2 0 .2.2-.2.2-.2.2zm.3 27.4s-.2 0-.2-.2.2-.2.2-.2.2 0 .2.2-.2.2-.2.2zm.1 20.8s-.2 0-.2-.2.2-.2.2-.2.2 0 .2.2c0 .1-.2.2-.2.2zm.3-49.9s-.2 0-.2-.2.2-.2.2-.2.2 0 .2.2-.2.2-.2.2zm.3 50.5s-.2 0-.2-.2.2-.2.2-.2.2 0 .2.2-.2.2-.2.2zm.1 16.4s-.2 0-.2-.2.2-.2.2-.2.2 0 .2.2c.1.2-.1.2-.2.2zM35 79s-.2 0-.2-.2.2-.2.2-.2.2 0 .2.2-.2.2-.2.2zm.1-31.9s-.2 0-.2-.2.2-.2.2-.2.2 0 .2.2-.2.2-.2.2zm.1-7.6s-.2 0-.2-.2.2-.2.2-.2.2 0 .2.2-.2.2-.2.2zm0 5.3s-.2 0-.2-.2.2-.2.2-.2.2 0 .2.2-.2.2-.2.2zm.1 51.5s-.2 0-.2-.2.2-.2.2-.2.2 0 .2.2-.2.2-.2.2zm.1-13.8s-.2 0-.2-.2.2-.2.2-.2.2 0 .2.2-.2.2-.2.2zm.1-25.2s-.2 0-.2-.2.2-.2.2-.2.2 0 .2.2-.2.2-.2.2z"/><path d="M35.6 44.8s-.2 0-.2-.2.2-.2.2-.2.2 0 .2.2-.2.2-.2.2zm.1 26.8s-.2 0-.2-.2.2-.2.2-.2.2 0 .2.2-.2.2-.2.2zm.1-40.3s-.2 0-.2-.2.2-.2.2-.2.2 0 .2.2-.1.2-.2.2zm.5.3s-.2 0-.2-.2.2-.2.2-.2.2 0 .2.2-.2.2-.2.2zm.2 35s-.2 0-.2-.2.2-.2.2-.2.2 0 .2.2-.2.2-.2.2zm0-14.8s-.2 0-.2-.2.2-.2.2-.2.2 0 .2.2-.2.2-.2.2zm.1-13.5s-.2 0-.2-.2.2-.2.2-.2.2 0 .2.2-.2.2-.2.2zM37 69s-.2 0-.2-.2.2-.2.2-.2.2 0 .2.2-.2.2-.2.2zm1 10.3s-.2 0-.2-.2.2-.2.2-.2.2 0 .2.2-.2.2-.2.2zm.1-42.4s-.2 0-.2-.2.2-.2.2-.2.2 0 .2.2-.2.2-.2.2zm.5 29.7s-.2 0-.2-.2.2-.2.2-.2.2 0 .2.2-.2.2-.2.2zm.1 35.3s-.2 0-.2-.2.2-.2.2-.2.2 0 .2.2-.1.2-.2.2zm.3-31.3s-.2 0-.2-.2.2-.2.2-.2.2 0 .2.2-.2.2-.2.2z"/><path d="M39.1 70.4s-.2 0-.2-.2.2-.2.2-.2.2 0 .2.2-.1.2-.2.2zm.7 26.7s-.2 0-.2-.2.2-.2.2-.2.2 0 .2.2-.2.2-.2.2zm.1-22.5s-.2 0-.2-.2.2-.2.2-.2.2 0 .2.2-.2.2-.2.2zm.1 17.2s-.2 0-.2-.2.2-.2.2-.2.2 0 .2.2c0 .1-.1.2-.2.2zm1.2-59.6s-.2 0-.2-.2.2-.2.2-.2.2 0 .2.2-.2.2-.2.2zm.1 52.9s-.2 0-.2-.2.2-.2.2-.2.2 0 .2.2-.2.2-.2.2zm.1-52.4s-.2 0-.2-.2.2-.2.2-.2.2 0 .2.2-.1.2-.2.2zm.1 47.9s-.2 0-.2-.2.2-.2.2-.2.2 0 .2.2c.1.1-.1.2-.2.2zm.8-41.5s-.2 0-.2-.2.2-.2.2-.2.2 0 .2.2-.2.2-.2.2zm.2 29.7s-.2 0-.2-.2.2-.2.2-.2.2 0 .2.2-.2.2-.2.2zm.3 4.8s-.2 0-.2-.2.2-.2.2-.2.2 0 .2.2c.1.2-.1.2-.2.2zm.1-27.5s-.2 0-.2-.2.2-.2.2-.2.2 0 .2.2-.2.2-.2.2zm.1 63.3s-.2 0-.2-.2.2-.2.2-.2.2 0 .2.2c.1.2-.1.2-.2.2zm.1-36.6s-.2 0-.2-.2.2-.2.2-.2.2 0 .2.2-.2.2-.2.2zm.1-11s-.2 0-.2-.2.2-.2.2-.2.2 0 .2.2-.2.2-.2.2zm0 2.4s-.2 0-.2-.2.2-.2.2-.2.2 0 .2.2-.2.2-.2.2zm0 12.1s-.2 0-.2-.2.2-.2.2-.2.2 0 .2.2c.1.2-.1.2-.2.2zm.2-41.2s-.2 0-.2-.2.2-.2.2-.2.2 0 .2.2-.1.2-.2.2zm.1 9s-.2 0-.2-.2.2-.2.2-.2.2 0 .2.2c.1.2-.1.2-.2.2zm0-16.3s-.2 0-.2-.2.2-.2.2-.2.2 0 .2.2c.1.2-.1.2-.2.2zm0 18.6s-.2 0-.2-.2.2-.2.2-.2.2 0 .2.2c.1.2-.1.2-.2.2z"/><path d="M43.6 35.2s-.2 0-.2-.2.2-.2.2-.2.2 0 .2.2-.2.2-.2.2zm.1 15.6s-.2 0-.2-.2.2-.2.2-.2.2 0 .2.2c.1.2-.1.2-.2.2zm.6 12.2s-.2 0-.2-.2.2-.2.2-.2.2 0 .2.2-.2.2-.2.2zm.2.9s-.2 0-.2-.2.2-.2.2-.2.2 0 .2.2-.2.2-.2.2zm.9-2.8s-.2 0-.2-.2.2-.2.2-.2.2 0 .2.2-.2.2-.2.2zm0-31.6s-.2 0-.2-.2.2-.2.2-.2.2 0 .2.2c.1.2-.1.2-.2.2zm.1 45.3s-.2 0-.2-.2.2-.2.2-.2.2 0 .2.2c.1.2-.1.2-.2.2zm.5-45.3s-.2 0-.2-.2c0-.3.2-.3.2-.3s.2 0 .2.2c.1.3-.1.3-.2.3zm.3 26.3s-.2 0-.2-.2.2-.2.2-.2.2 0 .2.2-.2.2-.2.2zm.2 4.8s-.2 0-.2-.2.2-.2.2-.2.2 0 .2.2-.2.2-.2.2z"/><path d="M46.5 55.9s-.2 0-.2-.2.2-.2.2-.2.2 0 .2.2-.2.2-.2.2zm.1 32.5s-.2 0-.2-.2.2-.2.2-.2.2 0 .2.2-.2.2-.2.2zm0-30.7s-.2 0-.2-.2.2-.2.2-.2.2 0 .2.2c0 .1-.2.2-.2.2zm0 14.6s-.2 0-.2-.2.2-.2.2-.2.2 0 .2.2-.2.2-.2.2z"/><path d="M46.6 72.1s-.2 0-.2-.2.2-.2.2-.2.2 0 .2.2-.1.2-.2.2zm.1-14.1s-.2 0-.2-.2.2-.2.2-.2.2 0 .2.2-.2.2-.2.2zm.7-17.9s-.2 0-.2-.2.2-.2.2-.2.2 0 .2.2-.2.2-.2.2zm0-10.8s-.2 0-.2-.2.2-.2.2-.2.2 0 .2.2-.2.2-.2.2zm0 33.6s-.2 0-.2-.2.2-.2.2-.2.2 0 .2.2c.1.2-.1.2-.2.2zm.8 30.2s-.2 0-.2-.2.2-.2.2-.2.2 0 .2.2-.2.2-.2.2zm0-5.2s-.2 0-.2-.2.2-.2.2-.2.2 0 .2.2c.1.2-.1.2-.2.2zm.1-23.5s-.2 0-.2-.2.2-.2.2-.2.2 0 .2.2c.1.2-.1.2-.2.2zm.5 32.1s-.2 0-.2-.2.2-.2.2-.2.2 0 .2.2-.2.2-.2.2zm0-70.9s-.2 0-.2-.2.2-.2.2-.2.2 0 .2.2-.1.2-.2.2zM49.9 88s-.2 0-.2-.2.2-.2.2-.2.2 0 .2.2-.2.2-.2.2zm.3-64.3s-.2 0-.2-.2.2-.2.2-.2.2 0 .2.2c0 .1-.2.2-.2.2zm.1.4s-.2 0-.2-.2.2-.2.2-.2.2 0 .2.2c0 .1-.2.2-.2.2zm0 .4s-.2 0-.2-.2.2-.2.2-.2.2 0 .2.2c.1.2-.1.2-.2.2zm.2 63.4s-.2 0-.2-.2.2-.2.2-.2.2 0 .2.2c.1.1-.1.2-.2.2zm.3-36.6s-.2 0-.2-.2.2-.2.2-.2.2 0 .2.2c.1.2-.1.2-.2.2zm.1 13.7s-.2 0-.2-.2.2-.2.2-.2.2 0 .2.2c.1.2-.1.2-.2.2zm.3-18.1s-.2 0-.2-.2.2-.2.2-.2.2 0 .2.2-.2.2-.2.2zm.3 44.9s-.2 0-.2-.2.2-.2.2-.2.2 0 .2.2-.2.2-.2.2zm0-62.9s-.2 0-.2-.2.2-.2.2-.2.2 0 .2.2-.2.2-.2.2zm.1 6.2s-.2 0-.2-.2.2-.2.2-.2.2 0 .2.2c.1.2-.1.2-.2.2zm.1 55.9s-.2 0-.2-.2.2-.2.2-.2.2 0 .2.2-.2.2-.2.2zm.1-2s-.2 0-.2-.2.2-.2.2-.2.2 0 .2.2c.1.1-.1.2-.2.2zm.1-45.7s-.2 0-.2-.2.2-.2.2-.2.2 0 .2.2-.2.2-.2.2zm.1 26.1s-.2 0-.2-.2.2-.2.2-.2.2 0 .2.2-.2.2-.2.2zm.3 13.1s-.2 0-.2-.2.2-.2.2-.2.2 0 .2.2-.2.2-.2.2zm.3 3.7s-.2 0-.2-.2.2-.2.2-.2.2 0 .2.2c.1.2-.1.2-.2.2zm.1-19.7s-.2 0-.2-.2.2-.2.2-.2.2 0 .2.2-.2.2-.2.2zm.3 12.6s-.2 0-.2-.2.2-.2.2-.2.2 0 .2.2-.2.2-.2.2zm0 7.7s-.2 0-.2-.2.2-.2.2-.2.2 0 .2.2-.2.2-.2.2zm.6-8s-.2 0-.2-.2.2-.2.2-.2.2 0 .2.2c.1.2-.1.2-.2.2zm.2-28.8s-.2 0-.2-.2.2-.2.2-.2.2 0 .2.2-.1.2-.2.2zm.2-29.5s-.2 0-.2-.2c0-.3.2-.3.2-.3s.2 0 .2.2-.1.3-.2.3zm.1 67.5s-.2 0-.2-.2.2-.2.2-.2.2 0 .2.2-.2.2-.2.2zm.1-2.8s-.2 0-.2-.2.2-.2.2-.2.2 0 .2.2-.1.2-.2.2zm0-14s-.2 0-.2-.2.2-.2.2-.2.2 0 .2.2-.1.2-.2.2zm.1-44.2s-.2 0-.2-.2.2-.2.2-.2.2 0 .2.2c.1.1-.1.2-.2.2zm.1 65.2s-.2 0-.2-.2.2-.2.2-.2.2 0 .2.2c.1.2-.1.2-.2.2zm.1 3.6s-.2 0-.2-.2.2-.2.2-.2.2 0 .2.2-.2.2-.2.2zm.3-27.5s-.2 0-.2-.2.2-.2.2-.2.2 0 .2.2c.1.2-.1.2-.2.2zm.3-30.1s-.2 0-.2-.2.2-.2.2-.2.2 0 .2.2-.2.2-.2.2zm.1 12.2s-.2 0-.2-.2.2-.2.2-.2.2 0 .2.2-.1.2-.2.2zm.3 34.3s-.2 0-.2-.2.2-.2.2-.2.2 0 .2.2c.1.2-.1.2-.2.2zm.3-14.4s-.2 0-.2-.2.2-.2.2-.2.2 0 .2.2-.2.2-.2.2z"/><path d="M56 70s-.2 0-.2-.2.2-.2.2-.2.2 0 .2.2-.2.2-.2.2zm.3 12.4s-.2 0-.2-.2.2-.2.2-.2.2 0 .2.2-.2.2-.2.2zm0 12.9s-.2 0-.2-.2.2-.2.2-.2.2 0 .2.2c.1.2-.1.2-.2.2zm0-10.1s-.2 0-.2-.2.2-.2.2-.2.2 0 .2.2c.1.2-.1.2-.2.2zm.1 19.9s-.2 0-.2-.2.2-.2.2-.2.2 0 .2.2-.2.2-.2.2zm.1-24.9s-.2 0-.2-.2.2-.2.2-.2.2 0 .2.2c.1.2-.1.2-.2.2zm.3-2.1s-.2 0-.2-.2.2-.2.2-.2.2 0 .2.2-.1.2-.2.2zm.1-1.9s-.2 0-.2-.2.2-.2.2-.2.2 0 .2.2-.2.2-.2.2zm.2-49s-.2 0-.2-.2.2-.2.2-.2.2 0 .2.2-.2.2-.2.2zm.1 41.1s-.2 0-.2-.2.2-.2.2-.2.2 0 .2.2-.2.2-.2.2zm0-.7s-.2 0-.2-.2.2-.2.2-.2.2 0 .2.2-.2.2-.2.2zm0 1.4s-.2 0-.2-.2.2-.2.2-.2.2 0 .2.2-.2.2-.2.2zm.2-35.4s-.2 0-.2-.2.2-.2.2-.2.2 0 .2.2c.1.1-.1.2-.2.2zm0 53.2s-.2 0-.2-.2.2-.2.2-.2.2 0 .2.2c.1.2-.1.2-.2.2zm.1 4.7s-.2 0-.2-.2.2-.2.2-.2.2 0 .2.2-.2.2-.2.2zm0-40.5s-.2 0-.2-.2.2-.2.2-.2.2 0 .2.2c.1.2-.1.2-.2.2zm0 31.2s-.2 0-.2-.2.2-.2.2-.2.2 0 .2.2c.1.2-.1.2-.2.2zm.3-55.9s-.2 0-.2-.2.2-.2.2-.2.2 0 .2.2-.2.2-.2.2z"/><path d="M57.9 82s-.2 0-.2-.2.2-.2.2-.2.2 0 .2.2-.1.2-.2.2zm.5-17.6s-.2 0-.2-.2.2-.2.2-.2.2 0 .2.2-.2.2-.2.2zm.2-2.2s-.2 0-.2-.2.2-.2.2-.2.2 0 .2.2-.2.2-.2.2zm.1 1.9s-.2 0-.2-.2.2-.2.2-.2.2 0 .2.2-.1.2-.2.2zm.1 11.3s-.2 0-.2-.2.2-.2.2-.2.2 0 .2.2-.1.2-.2.2z"/><path d="M58.8 62.2s-.2 0-.2-.2.2-.2.2-.2.2 0 .2.2-.1.2-.2.2zm.1-32.5s-.2 0-.2-.2.2-.2.2-.2.2 0 .2.2-.2.2-.2.2zm.1 54.1s-.2 0-.2-.2.2-.2.2-.2.2 0 .2.2-.2.2-.2.2zm0 4s-.2 0-.2-.2.2-.2.2-.2.2 0 .2.2c.1.2-.1.2-.2.2zm.1-33.3s-.2 0-.2-.2.2-.2.2-.2.2 0 .2.2-.2.2-.2.2zm0 24.8s-.2 0-.2-.2.2-.2.2-.2.2 0 .2.2-.1.2-.2.2z"/><path d="M59.1 87.5s-.2 0-.2-.2.2-.2.2-.2.2 0 .2.2-.1.2-.2.2zm.1-36.3s-.2 0-.2-.2.2-.2.2-.2.2 0 .2.2-.2.2-.2.2zm.1-27s-.2 0-.2-.2.2-.2.2-.2.2 0 .2.2-.2.2-.2.2zm.1 62.4s-.2 0-.2-.2.2-.2.2-.2.2 0 .2.2c.1.2-.1.2-.2.2zm0-20.5s-.2 0-.2-.2.2-.2.2-.2.2 0 .2.2c.1.1-.1.2-.2.2zm.1-7.6s-.2 0-.2-.2.2-.2.2-.2.2 0 .2.2c.1.2-.1.2-.2.2zm.1-4.2s-.2 0-.2-.2.2-.2.2-.2.2 0 .2.2c0 .1-.2.2-.2.2zm0-31.5s-.2 0-.2-.2.2-.2.2-.2.2 0 .2.2-.1.2-.2.2zm.4 69.4s-.2 0-.2-.2.2-.2.2-.2.2 0 .2.2-.2.2-.2.2zm.1-40.9s-.2 0-.2-.2.2-.2.2-.2.2 0 .2.2c0 .1-.1.2-.2.2zm.1 33.5s-.2 0-.2-.2.2-.2.2-.2.2 0 .2.2c.1.2-.1.2-.2.2zm.1-43.3s-.2 0-.2-.2.2-.2.2-.2.2 0 .2.2-.2.2-.2.2zm.1 43.9s-.2 0-.2-.2.2-.2.2-.2.2 0 .2.2-.1.2-.2.2zm.1-51.7s-.2 0-.2-.2.2-.2.2-.2.2 0 .2.2-.2.2-.2.2zm0 52.4s-.2 0-.2-.2.2-.2.2-.2.2 0 .2.2c0 .1-.2.2-.2.2zm.4-1s-.2 0-.2-.2.2-.2.2-.2.2 0 .2.2-.1.2-.2.2zm.5-18.6s-.2 0-.2-.2.2-.2.2-.2.2 0 .2.2-.1.2-.2.2zm.1-16s-.2 0-.2-.2.2-.2.2-.2.2 0 .2.2-.2.2-.2.2zm.1-23.9s-.2 0-.2-.2.2-.2.2-.2.2 0 .2.2-.2.2-.2.2zm.2-.5s-.2 0-.2-.2.2-.2.2-.2.2 0 .2.2-.2.2-.2.2zm.1 9.2s-.2 0-.2-.2.2-.2.2-.2.2 0 .2.2-.2.2-.2.2zm.3 41.3s-.2 0-.2-.2.2-.2.2-.2.2 0 .2.2c.1.2-.1.2-.2.2zm.3-23s-.2 0-.2-.2.2-.2.2-.2.2 0 .2.2-.2.2-.2.2zm0-3.1s-.2 0-.2-.2.2-.2.2-.2.2 0 .2.2c.1.2-.1.2-.2.2zm.4.3s-.2 0-.2-.2.2-.2.2-.2.2 0 .2.2-.1.2-.2.2zm0 3.2s-.2 0-.2-.2.2-.2.2-.2.2 0 .2.2c.1.2-.1.2-.2.2zm.2-2.8s-.2 0-.2-.2.2-.2.2-.2.2 0 .2.2c.1.2-.1.2-.2.2zm.3 35.9s-.2 0-.2-.2.2-.2.2-.2.2 0 .2.2c0 .1-.2.2-.2.2zm.1-54.2s-.2 0-.2-.2.2-.2.2-.2.2 0 .2.2-.2.2-.2.2zm0-13.3s-.2 0-.2-.2.2-.2.2-.2.2 0 .2.2-.2.2-.2.2zm.4 60.4s-.2 0-.2-.2.2-.2.2-.2.2 0 .2.2c0 .1-.2.2-.2.2zm0-58.1s-.2 0-.2-.2.2-.2.2-.2.2 0 .2.2-.2.2-.2.2zm.1 50s-.2 0-.2-.2.2-.2.2-.2.2 0 .2.2-.2.2-.2.2zm.6-32.7s-.2 0-.2-.2.2-.2.2-.2.2 0 .2.2-.2.2-.2.2zm.1-9.5s-.2 0-.2-.2.2-.2.2-.2.2 0 .2.2-.2.2-.2.2zm.5 4.1s-.2 0-.2-.2.2-.2.2-.2.2 0 .2.2-.2.2-.2.2zm0 49.3s-.2 0-.2-.2.2-.2.2-.2.2 0 .2.2-.2.2-.2.2zm0-38.3s-.2 0-.2-.2.2-.2.2-.2.2 0 .2.2-.1.2-.2.2zm.3 37.6s-.2 0-.2-.2.2-.2.2-.2.2 0 .2.2c0 .1-.2.2-.2.2zm.7-7.2s-.2 0-.2-.2.2-.2.2-.2.2 0 .2.2c.1.1-.1.2-.2.2zm.1-40s-.2 0-.2-.2.2-.2.2-.2.2 0 .2.2-.2.2-.2.2zm0 15.4s-.2 0-.2-.2.2-.2.2-.2.2 0 .2.2-.2.2-.2.2z"/><path d="M66.4 35.2s-.2 0-.2-.2.2-.2.2-.2.2 0 .2.2-.2.2-.2.2zm.5 44.2s-.2 0-.2-.2.2-.2.2-.2.2 0 .2.2-.1.2-.2.2zm.1-10s-.2 0-.2-.2.2-.2.2-.2.2 0 .2.2-.2.2-.2.2zm.1-46.4s-.2 0-.2-.2.2-.2.2-.2.2 0 .2.2c.1.2-.1.2-.2.2zm.2 33.9s-.2 0-.2-.2.2-.2.2-.2.2 0 .2.2c.1.2-.1.2-.2.2zm.1 26.9s-.2 0-.2-.2.2-.2.2-.2.2 0 .2.2-.2.2-.2.2z"/><path d="M67.5 57.3s-.2 0-.2-.2.2-.2.2-.2.2 0 .2.2c.1.2-.1.2-.2.2zm.1 24.1s-.2 0-.2-.2.2-.2.2-.2.2 0 .2.2-.2.2-.2.2zm.2-31.9s-.2 0-.2-.2.2-.2.2-.2.2 0 .2.2c.1.2-.1.2-.2.2z"/><path d="M68 49.2s-.2 0-.2-.2.2-.2.2-.2.2 0 .2.2-.2.2-.2.2zm.1 38.6s-.2 0-.2-.2.2-.2.2-.2.2 0 .2.2-.2.2-.2.2zm.3-32s-.2 0-.2-.2.2-.2.2-.2.2 0 .2.2-.2.2-.2.2zm.7.1s-.2 0-.2-.2.2-.2.2-.2.2 0 .2.2-.2.2-.2.2zm.2 25.2s-.2 0-.2-.2.2-.2.2-.2.2 0 .2.2-.1.2-.2.2zm.2-60.9s-.2 0-.2-.2.2-.2.2-.2.2 0 .2.2-.1.2-.2.2zm.3 13s-.2 0-.2-.2.2-.2.2-.2.2 0 .2.2-.2.2-.2.2zm0 8.3s-.2 0-.2-.2.2-.2.2-.2.2 0 .2.2c0 .1-.2.2-.2.2z"/><path d="M69.8 41.7s-.2 0-.2-.2.2-.2.2-.2.2 0 .2.2-.1.2-.2.2zm.4-14.8s-.2 0-.2-.2.2-.2.2-.2.2 0 .2.2-.2.2-.2.2zm.1 29.1s-.2 0-.2-.2.2-.2.2-.2.2 0 .2.2c.1.2-.1.2-.2.2zm.6 22.4s-.2 0-.2-.2.2-.2.2-.2.2 0 .2.2c.1.2-.1.2-.2.2zm.1-62.9s-.2 0-.2-.2.2-.2.2-.2.2 0 .2.2c.1.2-.1.2-.2.2zm0 7.8s-.2 0-.2-.2.2-.2.2-.2.2 0 .2.2c.1.1-.1.2-.2.2zm.2 58.6s-.2 0-.2-.2.2-.2.2-.2.2 0 .2.2-.2.2-.2.2zm.1-29.7s-.2 0-.2-.2.2-.2.2-.2.2 0 .2.2-.2.2-.2.2zm.1 23.3s-.2 0-.2-.2.2-.2.2-.2.2 0 .2.2-.1.2-.2.2zm.1-3.3s-.2 0-.2-.2.2-.2.2-.2.2 0 .2.2-.2.2-.2.2zm.5-11.1s-.2 0-.2-.2.2-.2.2-.2.2 0 .2.2c.1.2-.1.2-.2.2zm.6-2.8s-.2 0-.2-.2.2-.2.2-.2.2 0 .2.2-.2.2-.2.2zm.4 14.6s-.2 0-.2-.2.2-.2.2-.2.2 0 .2.2-.2.2-.2.2zm0 1.8s-.2 0-.2-.2.2-.2.2-.2.2 0 .2.2-.2.2-.2.2zm.2-.6s-.2 0-.2-.2.2-.2.2-.2.2 0 .2.2-.2.2-.2.2zm.4-54.1s-.2 0-.2-.2.2-.2.2-.2.2 0 .2.2-.2.2-.2.2zm0 51.3s-.2 0-.2-.2.2-.2.2-.2.2 0 .2.2-.1.2-.2.2zm.3 1.5s-.2 0-.2-.2.2-.2.2-.2.2 0 .2.2-.1.2-.2.2zm.1-36s-.2 0-.2-.2.2-.2.2-.2.2 0 .2.2c.1.2-.1.2-.2.2zm.2 8.7s-.2 0-.2-.2.2-.2.2-.2.2 0 .2.2-.2.2-.2.2zm.3 38.5s-.2 0-.2-.2.2-.2.2-.2.2 0 .2.2-.2.2-.2.2zm.3-23.7s-.2 0-.2-.2.2-.2.2-.2.2 0 .2.2c.1.2-.1.2-.2.2zm.1 18.5s-.2 0-.2-.2.2-.2.2-.2.2 0 .2.2-.2.2-.2.2zm.6-18.7s-.2 0-.2-.2.2-.2.2-.2.2 0 .2.2-.2.2-.2.2zm0-16.1s-.2 0-.2-.2.2-.2.2-.2.2 0 .2.2c.1.2-.1.2-.2.2zm.1-19.7s-.2 0-.2-.2.2-.2.2-.2.2 0 .2.2-.2.2-.2.2zm.5 19.9s-.2 0-.2-.2.2-.2.2-.2.2 0 .2.2-.2.2-.2.2z"/><path d="M76.4 44.4s-.2 0-.2-.2.2-.2.2-.2.2 0 .2.2c.1.2-.1.2-.2.2zm.3-18.7s-.2 0-.2-.2.2-.2.2-.2.2 0 .2.2-.2.2-.2.2zm.3 41.1s-.2 0-.2-.2.2-.2.2-.2.2 0 .2.2-.2.2-.2.2zm.4 10.9s-.2 0-.2-.2.2-.2.2-.2.2 0 .2.2c.1.2-.1.2-.2.2zm0-10.7s-.2 0-.2-.2.2-.2.2-.2.2 0 .2.2c.1.2-.1.2-.2.2zm.1-4.6s-.2 0-.2-.2.2-.2.2-.2.2 0 .2.2-.2.2-.2.2z"/><path d="M77.8 78s-.2 0-.2-.2.2-.2.2-.2.2 0 .2.2-.2.2-.2.2zm.2-.6s-.2 0-.2-.2.2-.2.2-.2.2 0 .2.2c.1.2-.1.2-.2.2zm.4-50.7s-.2 0-.2-.2.2-.2.2-.2.2 0 .2.2-.2.2-.2.2zm0 46.2s-.2 0-.2-.2.2-.2.2-.2.2 0 .2.2-.2.2-.2.2zm0-42.3s-.2 0-.2-.2.2-.2.2-.2.2 0 .2.2-.2.2-.2.2zm.2 34.3s-.2 0-.2-.2.2-.2.2-.2.2 0 .2.2-.2.2-.2.2zm.1 7.1s-.2 0-.2-.2.2-.2.2-.2.2 0 .2.2c.1.2-.1.2-.2.2zm.3-43.4s-.2 0-.2-.2.2-.2.2-.2.2 0 .2.2-.2.2-.2.2zm0 35.6s-.2 0-.2-.2.2-.2.2-.2.2 0 .2.2-.2.2-.2.2zm0 5.6s-.2 0-.2-.2.2-.2.2-.2.2 0 .2.2-.2.2-.2.2z"/><path d="M79.1 28.7s-.2 0-.2-.2.2-.2.2-.2.2 0 .2.2c.1.2-.1.2-.2.2zm.1 30.3s-.2 0-.2-.2.2-.2.2-.2.2 0 .2.2-.2.2-.2.2zm0 46.5s-.2 0-.2-.2.2-.2.2-.2.2 0 .2.2-.2.2-.2.2zm.1-35.7s-.2 0-.2-.2.2-.2.2-.2.2 0 .2.2-.1.2-.2.2zm.1 4.5s-.2 0-.2-.2.2-.2.2-.2.2 0 .2.2-.2.2-.2.2zm0-21.2s-.2 0-.2-.2.2-.2.2-.2.2 0 .2.2-.2.2-.2.2zm0 8.3s-.2 0-.2-.2.2-.2.2-.2.2 0 .2.2-.1.2-.2.2zm0 .6s-.2 0-.2-.2.2-.2.2-.2.2 0 .2.2c.1.2-.1.2-.2.2zm.1-1.1s-.2 0-.2-.2.2-.2.2-.2.2 0 .2.2-.2.2-.2.2zm.1-21.7s-.2 0-.2-.2.2-.2.2-.2.2 0 .2.2c.1.2-.1.2-.2.2zm.3 35.2s-.2 0-.2-.2.2-.2.2-.2.2 0 .2.2-.2.2-.2.2zm.4 6.6s-.2 0-.2-.2.2-.2.2-.2.2 0 .2.2-.2.2-.2.2zm0-6.6s-.2 0-.2-.2.2-.2.2-.2.2 0 .2.2c.1.2-.1.2-.2.2zm0-1.6s-.2 0-.2-.2.2-.2.2-.2.2 0 .2.2c.1.2-.1.2-.2.2zm.4-21s-.2 0-.2-.2.2-.2.2-.2.2 0 .2.2c.1.2-.1.2-.2.2zm.1 3.3s-.2 0-.2-.2.2-.2.2-.2.2 0 .2.2-.1.2-.2.2zm.1-26.9s-.2 0-.2-.2.2-.2.2-.2.2 0 .2.2-.2.2-.2.2zm.7 42.4s-.2 0-.2-.2.2-.2.2-.2.2 0 .2.2-.2.2-.2.2zm0-36.4s-.2 0-.2-.2.2-.2.2-.2.2 0 .2.2c.1.2-.1.2-.2.2zm.1 37s-.2 0-.2-.2.2-.2.2-.2.2 0 .2.2-.2.2-.2.2zm.3-6.1s-.2 0-.2-.2.2-.2.2-.2.2 0 .2.2-.2.2-.2.2zm.1 7.3s-.2 0-.2-.2.1-.2.2-.2c0 0 .2 0 .2.2s-.2.2-.2.2zm.1 1.2s-.2 0-.2-.2.2-.2.2-.2.2 0 .2.2c0 .1-.1.2-.2.2zm.4-43.6s-.2 0-.2-.2.2-.2.2-.2.2 0 .2.2-.2.2-.2.2zm0 34.4s-.2 0-.2-.2.2-.2.2-.2.2 0 .2.2c.1.2-.1.2-.2.2zm.1 4s-.2 0-.2-.2.2-.2.2-.2.2 0 .2.2-.2.2-.2.2z"/><path d="M82.7 30.2s-.2 0-.2-.2.2-.2.2-.2.2 0 .2.2c.1.2-.1.2-.2.2zm.4 36.1s-.2 0-.2-.2.2-.2.2-.2.2 0 .2.2c.1.2-.1.2-.2.2zm.4-28.2s-.2 0-.2-.2.2-.2.2-.2.2 0 .2.2-.1.2-.2.2zm.5 28.5s-.2 0-.2-.2.2-.2.2-.2.2 0 .2.2c0 .1-.2.2-.2.2zm.2-21.9s-.2 0-.2-.2.2-.2.2-.2.2 0 .2.2-.2.2-.2.2z"/><path d="M84.2 44.8s-.2 0-.2-.2.2-.2.2-.2.2 0 .2.2-.2.2-.2.2zm.2 21.9s-.2 0-.2-.2.2-.2.2-.2.2 0 .2.2c.1.2-.1.2-.2.2zm.4-39.4s-.2 0-.2-.2.2-.2.2-.2.2 0 .2.2-.2.2-.2.2zm.7 14.1s-.2 0-.2-.2.2-.2.2-.2.2 0 .2.2-.2.2-.2.2zm1.3-9.8s-.2 0-.2-.2.2-.2.2-.2.2 0 .2.2-.2.2-.2.2zm0-1.7s-.2 0-.2-.2.2-.2.2-.2.2 0 .2.2c.1.2-.1.2-.2.2zm.6 25.8s-.2 0-.2-.2.2-.2.2-.2.2 0 .2.2c.1.2-.1.2-.2.2zm.1-22.2s-.2 0-.2-.2.2-.2.2-.2.2 0 .2.2-.2.2-.2.2zm0 35.2s-.2 0-.2-.2.2-.2.2-.2.2 0 .2.2-.1.2-.2.2zm.4-7.9s-.2 0-.2-.2.2-.2.2-.2.2 0 .2.2-.2.2-.2.2zm.1-2.9s-.2 0-.2-.2.2-.2.2-.2.2 0 .2.2c.1.2-.1.2-.2.2zm.8-22s-.2 0-.2-.2.2-.2.2-.2.2 0 .2.2-.2.2-.2.2zm.3-2.5s-.2 0-.2-.2.2-.2.2-.2.2 0 .2.2-.2.2-.2.2z"/><path d="M89.2 33.6s-.2 0-.2-.2.2-.2.2-.2.2 0 .2.2-.2.2-.2.2zM90 55s-.2 0-.2-.2.2-.2.2-.2.2 0 .2.2c.1.2-.1.2-.2.2zm.3 15.1s-.2 0-.2-.2.2-.2.2-.2.2 0 .2.2-.2.2-.2.2zm0-40.9s-.2 0-.2-.2.2-.2.2-.2.2 0 .2.2c.1.2-.1.2-.2.2zm.5 36.5s-.2 0-.2-.2.2-.2.2-.2.2 0 .2.2c.1.2-.1.2-.2.2zm.3-2.4s-.2 0-.2-.2.2-.2.2-.2.2 0 .2.2-.2.2-.2.2zm.1-15.3s-.2 0-.2-.2.2-.2.2-.2.2 0 .2.2c.1.2-.1.2-.2.2zm.4-17.3s-.2 0-.2-.2.2-.2.2-.2.2 0 .2.2-.1.2-.2.2zm.5-2.1s-.2 0-.2-.2.2-.2.2-.2.2 0 .2.2c.1.2-.1.2-.2.2zm0 9s-.2 0-.2-.2.2-.2.2-.2.2 0 .2.2c.1.2-.1.2-.2.2zm.2 31.1s-.2 0-.2-.2.2-.2.2-.2.2 0 .2.2c.1.2-.1.2-.2.2zm0-4.9s-.2 0-.2-.2.2-.2.2-.2.2 0 .2.2c.1.1-.1.2-.2.2zm.6-13.4s-.2 0-.2-.2.2-.2.2-.2.2 0 .2.2-.2.2-.2.2zm.2-23.2s-.2 0-.2-.2.2-.2.2-.2.2 0 .2.2-.2.2-.2.2zm.1 6.4s-.2 0-.2-.2.2-.2.2-.2.2 0 .2.2-.1.2-.2.2zm1.5 8.5s-.2 0-.2-.2.2-.2.2-.2.2 0 .2.2-.2.2-.2.2zm.2 6.7s-.2 0-.2-.2.2-.2.2-.2.2 0 .2.2-.2.2-.2.2zm0 15.2s-.2 0-.2-.2.2-.2.2-.2.2 0 .2.2c.1.2-.1.2-.2.2z"/><circle cx="95.1" cy="32.4" r=".2"/><path d="M95.4 32.3s-.2 0-.2-.2.2-.2.2-.2.2 0 .2.2-.2.2-.2.2zm.2 15.5s-.2 0-.2-.2.2-.2.2-.2.2 0 .2.2-.2.2-.2.2zm.2 18.8s-.2 0-.2-.2.2-.2.2-.2.2 0 .2.2-.2.2-.2.2zm0-7s-.2 0-.2-.2.2-.2.2-.2.2 0 .2.2c.1.2-.1.2-.2.2z"/><path d="M96 59.6s-.2 0-.2-.2.2-.2.2-.2.2 0 .2.2c0 .1-.1.2-.2.2zm.5-25.3s-.2 0-.2-.2c0-.1 0-.1.1-.2 0 0 .1-.1.2-.1 0 0 .2 0 .2.2-.1.3-.3.3-.3.3zm0 22.1s-.2 0-.2-.2.2-.2.2-.2.2 0 .2.2c.1.2-.1.2-.2.2z"/><path d="M96.8 34.2s-.2 0-.2-.2.2-.2.2-.2.2 0 .2.2-.1.2-.2.2zm.1 26s-.2 0-.2-.2.2-.2.2-.2.2 0 .2.2-.2.2-.2.2zm.3-26.9s-.2 0-.2-.2.2-.2.2-.2.2 0 .2.2-.2.2-.2.2zm.4 18.6s-.2 0-.2-.2.2-.2.2-.2.2 0 .2.2c0 .1-.2.2-.2.2zm.2 6.6s-.2 0-.2-.2.2-.2.2-.2.2 0 .2.2-.2.2-.2.2zm.1-29.8s-.2 0-.2-.2.2-.2.2-.2.2 0 .2.2-.2.2-.2.2zm0 9.7s-.2 0-.2-.2.2-.2.2-.2.2 0 .2.2c.1.2-.1.2-.2.2z"/><path d="M98.2 38.2s-.2 0-.2-.2.2-.2.2-.2.2 0 .2.2-.2.2-.2.2zm0-5s-.2 0-.2-.2.2-.2.2-.2.2 0 .2.2-.2.2-.2.2zm0 26s-.2 0-.2-.2.2-.2.2-.2.2 0 .2.2-.2.2-.2.2zm0-.8s-.2 0-.2-.2.2-.2.2-.2.2 0 .2.2c.1.2-.1.2-.2.2zm.3-7.8s-.2 0-.2-.2.2-.2.2-.2.2 0 .2.2c.1.2-.1.2-.2.2zm.1 4.5s-.2 0-.2-.2.2-.2.2-.2.2 0 .2.2c0 .1-.2.2-.2.2zm.3-23.8s-.2 0-.2-.2.2-.2.2-.2.2 0 .2.2-.2.2-.2.2zm.4 13.3s-.2 0-.2-.2.2-.2.2-.2.2 0 .2.2-.2.2-.2.2zm.2 7.3s-.2 0-.2-.2.2-.2.2-.2.2 0 .2.2c.1.2-.1.2-.2.2zm0-16.1s-.2 0-.2-.2.2-.2.2-.2.2 0 .2.2c.1.2-.1.2-.2.2zm.2.6s-.2 0-.2-.2.2-.2.2-.2.2 0 .2.2-.2.2-.2.2zm.2.6s-.2 0-.2-.2.2-.2.2-.2.2 0 .2.2-.2.2-.2.2zm.2 12.2s-.2 0-.2-.2.2-.2.2-.2.2 0 .2.2-.2.2-.2.2zm0-4.8s-.2 0-.2-.2.2-.2.2-.2.2 0 .2.2c.1.2-.1.2-.2.2zm.4-1.8s-.2 0-.2-.2.2-.2.2-.2.2 0 .2.2c.1.2-.1.2-.2.2zm.1 12.6s-.2 0-.2-.2.2-.2.2-.2.2 0 .2.2-.2.2-.2.2zm.1-6.5s-.2 0-.2-.2.2-.2.2-.2.2 0 .2.2-.2.2-.2.2zm.1-4.5s-.2 0-.2-.2.2-.2.2-.2.2 0 .2.2-.2.2-.2.2zm.1-3.1s-.2 0-.2-.2.2-.2.2-.2.2 0 .2.2c.1.2-.1.2-.2.2zm.1-4.1s-.2 0-.2-.2.2-.2.2-.2.2 0 .2.2-.2.2-.2.2z"/><path d="M101.2 41.5s-.2 0-.2-.2.2-.2.2-.2.2 0 .2.2-.2.2-.2.2zm0 4.3s-.2 0-.2-.2.2-.2.2-.2.2 0 .2.2c.1.2-.1.2-.2.2zm.1-9.6s-.2 0-.2-.2.2-.2.2-.2.2 0 .2.2-.2.2-.2.2zm.1 2.5s-.2 0-.2-.2.2-.2.2-.2.2 0 .2.2-.2.2-.2.2z"/><path d="M101.4 41.9s-.2 0-.2-.2.2-.2.2-.2.2 0 .2.2-.2.2-.2.2zm0 6.1s-.2 0-.2-.2.2-.2.2-.2.2 0 .2.2-.2.2-.2.2zm.4-9.4s-.2 0-.2-.2.2-.2.2-.2.2 0 .2.2-.2.2-.2.2zm0 14.6s-.2 0-.2-.2.2-.2.2-.2.2 0 .2.2-.2.2-.2.2zm0-17.6s-.2 0-.2-.2.2-.2.2-.2.2 0 .2.2-.2.2-.2.2z"/><path d="M102 38.9s-.2 0-.2-.2.2-.2.2-.2.2 0 .2.2-.1.2-.2.2zm.2 15s-.2 0-.2-.2.2-.2.2-.2.2 0 .2.2-.1.2-.2.2zm.1-14s-.2 0-.2-.2.2-.2.2-.2.2 0 .2.2-.2.2-.2.2zm.1 18.2s-.2 0-.2-.2.2-.2.2-.2.2 0 .2.2-.2.2-.2.2zm.1-13.5s-.2 0-.2-.2.2-.2.2-.2.2 0 .2.2-.2.2-.2.2zm.1-4s-.2 0-.2-.2.2-.2.2-.2.2 0 .2.2c.1.2-.1.2-.2.2zm.1-1.5s-.2 0-.2-.2.2-.2.2-.2.2 0 .2.2-.1.2-.2.2zm.1.8s-.2 0-.2-.2.2-.2.2-.2.2 0 .2.2-.2.2-.2.2zm.1 20.3s-.2 0-.2-.2.2-.2.2-.2.2 0 .2.2-.2.2-.2.2zm0-6.7s-.2 0-.2-.2.2-.2.2-.2.2 0 .2.2-.2.2-.2.2zm0 4.9s-.2 0-.2-.2.2-.2.2-.2.2 0 .2.2-.2.2-.2.2zm.1-2.5s-.2 0-.2-.2.2-.2.2-.2.2 0 .2.2-.2.2-.2.2zm.4-5.8s-.2 0-.2-.2.2-.2.2-.2.2 0 .2.2-.2.2-.2.2zm.1 8.5s-.2 0-.2-.2.2-.2.2-.2.2 0 .2.2-.2.2-.2.2zm1-13.7s-.2 0-.2-.2.2-.2.2-.2.2 0 .2.2-.2.2-.2.2zm.1-.8s-.2 0-.2-.2.2-.2.2-.2.2 0 .2.2-.2.2-.2.2zm.2 1.6s-.2 0-.2-.2.2-.2.2-.2.2 0 .2.2c.1.2-.1.2-.2.2zm.5 1.2s-.2 0-.2-.2.2-.2.2-.2.2 0 .2.2-.2.2-.2.2zm.2.9s-.2 0-.2-.2.2-.2.2-.2.2 0 .2.2-.1.2-.2.2zm.6-1.2s-.2 0-.2-.2.2-.2.2-.2.2 0 .2.2-.2.2-.2.2zm.1-4.1s-.2 0-.2-.2.2-.2.2-.2.2 0 .2.2-.2.2-.2.2zm.8 1.7s-.2 0-.2-.2.2-.2.2-.2.2 0 .2.2-.2.2-.2.2z"/></g></svg>