<svg id="rocket" xmlns="http://www.w3.org/2000/svg" viewBox="0 0 32 95.7"><path d="M15.9 0S8 4.3 8 16.6h15.8C23.8 4.3 15.9 0 15.9 0zM8.1 60h15.7v7.9H8.1zm11.3 8.9h-6.8l-1.4 4.9h9.7zM0 53.8c0-1.2.5-2.4 1.4-3.2l6.7-6.5V59L0 66.8v-13zm16 41.9c-3.5-3.6-5.4-14.4-3.7-18.3 1.3-2.9 3.7-2.9 3.7-2.9s2.4 0 3.7 2.9c1.7 3.9-.3 14.7-3.7 18.3zm0-8.3c2.4-2.1 3.8-8.5 2.6-10.7C17.6 75 16 75 16 75s-1.7 0-2.6 1.7c-1.2 2.3.1 8.6 2.6 10.7z"/><path d="M16 81.6c1.2-1 1.9-4.2 1.3-5.3-.4-.8-1.3-.8-1.3-.8s-.8 0-1.3.8c-.6 1.2.1 4.3 1.3 5.3zM8.1 23.8v9H0zm23.7 30c0-1.2-.5-2.4-1.4-3.2l-6.7-6.5V59l8.1 7.8v-13zm-8-30V33H32zm-7.9-1.4c-1.9 0-3.4 1.5-3.4 3.4s1.5 3.4 3.4 3.4 3.4-1.5 3.4-3.4-1.5-3.4-3.4-3.4zm0 11c-1.9 0-3.4 1.5-3.4 3.4s1.5 3.4 3.4 3.4 3.4-1.5 3.4-3.4c0-1.8-1.5-3.4-3.4-3.4z"/><path d="M23.8 59H8.1V17.7h15.7V59zm-7.9-37.7c-2.5 0-4.5 2-4.5 4.5s2 4.5 4.5 4.5 4.5-2 4.5-4.5-2-4.5-4.5-4.5zm0 11c-2.5 0-4.5 2-4.5 4.5s2 4.5 4.5 4.5 4.5-2 4.5-4.5c0-2.4-2-4.5-4.5-4.5zm0 11.1c-2.5 0-4.5 2-4.5 4.5s2 4.5 4.5 4.5 4.5-2 4.5-4.5-2-4.5-4.5-4.5z"/><path d="M15.9 44.5c-1.9 0-3.4 1.5-3.4 3.4s1.5 3.4 3.4 3.4 3.4-1.5 3.4-3.4-1.5-3.4-3.4-3.4z"/></svg>