<svg xmlns="http://www.w3.org/2000/svg"><symbol id="icon-about" viewBox="0 0 33 33"><g fill="#FFF"><path d="M16.5 33C7.402 33 0 25.598 0 16.5S7.402 0 16.5 0 33 7.402 33 16.5 25.598 33 16.5 33zm0-32C7.953 1 1 7.953 1 16.5S7.953 32 16.5 32 32 25.047 32 16.5 25.047 1 16.5 1z"/><path d="M16.5 33a16.38 16.38 0 0 1-9.549-3.06.5.5 0 1 1 .116-.876c4.146-1.535 4.815-2.781 4.815-5.169 0-.631-.142-.838-.398-1.214-.339-.494-.803-1.171-1.129-2.939-.048-.254-.089-.274-.316-.384-.606-.292-1.163-.712-1.309-2.628 0-.928.32-1.441.585-1.708-.058-.33-.153-.899-.242-1.519-.453-2.777-.473-6.178 3.433-7.759 3.404-1.38 6.121-.626 6.974.273.604.019 2.162.177 3.246 1.438 1.668 1.94 1.137 6.363.955 7.562.266.261.589.767.589 1.675-.146 1.954-.703 2.375-1.31 2.666-.228.11-.269.129-.316.384-.326 1.768-.789 2.445-1.128 2.939-.257.375-.398.583-.398 1.214 0 2.388.669 3.634 4.815 5.169a.498.498 0 0 1 .116.876A16.38 16.38 0 0 1 16.5 33zm-8.183-3.349C10.779 31.191 13.589 32 16.5 32s5.721-.809 8.183-2.349c-3.474-1.426-4.565-2.864-4.565-5.755 0-.941.278-1.348.573-1.779.304-.444.682-.996.971-2.556.139-.754.576-.964.865-1.103.311-.149.631-.303.744-1.803-.001-.764-.344-.972-.358-.98a.533.533 0 0 1-.264-.537c.248-1.329.656-5.474-.681-7.031-.913-1.062-2.352-1.091-2.626-1.08-.046-.004-.091-.005-.134-.016-.13-.033-.35-.146-.417-.262-.272-.466-2.641-1.403-5.91-.08-3.231 1.308-3.238 4.112-2.819 6.682.138.957.289 1.784.29 1.788a.5.5 0 0 1-.283.544c.003 0-.339.209-.339 1.008.112 1.461.433 1.616.743 1.765.289.139.727.349.866 1.103.288 1.56.666 2.112.97 2.556.296.431.574.838.574 1.779 0 2.894-1.091 4.332-4.566 5.757z"/></g></symbol><symbol id="icon-back" viewBox="0 0 477.175 477.175"><path d="M145.188 238.575l215.5-215.5c5.3-5.3 5.3-13.8 0-19.1s-13.8-5.3-19.1 0l-225.1 225.1c-5.3 5.3-5.3 13.8 0 19.1l225.1 225c2.6 2.6 6.1 4 9.5 4s6.9-1.3 9.5-4c5.3-5.3 5.3-13.8 0-19.1l-215.4-215.5z"/></symbol><symbol id="icon-coding" viewBox="0 0 480 480"><path d="M56 416c-30.872 0-56 25.128-56 56 0 4.424 3.576 8 8 8h96c4.424 0 8-3.576 8-8 0-30.872-25.128-56-56-56zm-39.192 48C19.992 448.36 32.36 436.072 48 432.88V448h16v-15.12c15.64 3.2 28.008 15.48 31.192 31.12H16.808zM472 344h-14.032a83.97 83.97 0 0 0-1.392-3.328l9.928-9.928a7.991 7.991 0 0 0 0-11.312l-33.936-33.936c-1.656-1.656-3.84-2.376-6.008-2.272C439.24 276.496 448 263.32 448 248V40c0-22.056-17.944-40-40-40H40C17.944 0 0 17.944 0 40v208c0 22.056 17.944 40 40 40h104.4l-30.224 56H100c-15.44 0-28 12.56-28 28s12.56 28 28 28h172c0 4.424 3.576 8 8 8h14.032a83.97 83.97 0 0 0 1.392 3.328l-9.928 9.928a7.991 7.991 0 0 0 0 11.312l33.936 33.936a7.991 7.991 0 0 0 11.312 0l9.928-9.928a83.97 83.97 0 0 0 3.328 1.392V472c0 4.424 3.576 8 8 8h48c4.424 0 8-3.576 8-8v-14.032a83.97 83.97 0 0 0 3.328-1.392l9.928 9.928a7.991 7.991 0 0 0 11.312 0l33.936-33.936a7.991 7.991 0 0 0 0-11.312l-9.928-9.928a83.97 83.97 0 0 0 1.392-3.328H472c4.424 0 8-3.576 8-8v-48c0-4.424-3.576-8-8-8zM16 40c0-13.232 10.768-24 24-24h368c13.232 0 24 10.768 24 24v168H16V40zm24 232c-13.232 0-24-10.768-24-24v-24h416v24c0 13.232-10.768 24-24 24H40zm381.152 13.6l-9.824 9.824a83.97 83.97 0 0 0-3.328-1.392V288c4.632 0 9.008-.944 13.152-2.4zM344 288v6.032a83.97 83.97 0 0 0-3.328 1.392L333.248 288H344zm-27.08 0l-6.896 6.896-4.696-6.896h11.592zM272 384H100c-6.616 0-12-5.384-12-12s5.384-12 12-12h172v24zm-139.644-40.008L162.576 288h123.392l12.544 18.408-13.016 13.016a7.991 7.991 0 0 0 0 11.312l9.928 9.928a83.97 83.97 0 0 0-1.392 3.328H132.356zM464 392h-11.672a8.005 8.005 0 0 0-7.632 5.592c-1.216 3.864-2.856 7.8-4.88 11.672a8.002 8.002 0 0 0 1.44 9.36l8.288 8.288-22.624 22.624-8.288-8.288a8.017 8.017 0 0 0-9.36-1.44c-3.872 2.024-7.808 3.664-11.672 4.88a8.019 8.019 0 0 0-5.6 7.64V464h-32v-11.672a8.005 8.005 0 0 0-5.592-7.632c-3.864-1.216-7.8-2.856-11.672-4.88a8.015 8.015 0 0 0-9.36 1.44l-8.288 8.288-22.624-22.624 8.288-8.288a8.002 8.002 0 0 0 1.44-9.36c-2.024-3.872-3.664-7.808-4.88-11.672a8.019 8.019 0 0 0-7.64-5.6H288v-32h11.672a8.005 8.005 0 0 0 7.632-5.592c1.216-3.864 2.856-7.8 4.88-11.672a8.002 8.002 0 0 0-1.44-9.36l-8.288-8.288 22.624-22.624 8.288 8.288a7.99 7.99 0 0 0 9.36 1.44c3.872-2.024 7.808-3.664 11.672-4.88a8.019 8.019 0 0 0 5.6-7.64V288h32v11.672a8.005 8.005 0 0 0 5.592 7.632c3.864 1.216 7.8 2.856 11.672 4.88a7.992 7.992 0 0 0 9.36-1.44l8.288-8.288 22.624 22.624-8.288 8.288a8.002 8.002 0 0 0-1.44 9.36c2.024 3.872 3.664 7.808 4.88 11.672a8.019 8.019 0 0 0 7.64 5.6H464v32z" fill="#FFF"/><path d="M376 328c-26.472 0-48 21.528-48 48s21.528 48 48 48 48-21.528 48-48-21.528-48-48-48zm0 80c-17.648 0-32-14.352-32-32s14.352-32 32-32 32 14.352 32 32-14.352 32-32 32zM157.656 61.656l-11.312-11.312-56 56a7.991 7.991 0 0 0 0 11.312l56 56 11.312-11.312L107.312 112l50.344-50.344zm176 44.688l-56-56-11.312 11.312L316.688 112l-50.344 50.344 11.312 11.312 56-56a7.991 7.991 0 0 0 0-11.312z" fill="#FFF"/><path transform="rotate(-63.435 211.993 104.022)" fill="#FFF" d="M131.509 96.019h160.955v16H131.509z"/><path fill="#FFF" d="M312 160h16v16h-16zm32 0h16v16h-16zm32 0h16v16h-16z"/></symbol><symbol id="icon-contact"><path d="M43 6H1a1 1 0 0 0-1 1v30a1 1 0 0 0 1 1h42a1 1 0 0 0 1-1V7a1 1 0 0 0-1-1zm-1 27.581L29.612 21.194l-1.414 1.414L41.59 36H2.41l13.392-13.392-1.414-1.414L2 33.581V8h40v25.581z" fill="#FFF"/><path d="M39.979 8L22 25.979 4.021 8H2v.807L21.293 28.1a.999.999 0 0 0 1.414 0L42 8.807V8h-2.021z" fill="#FFF"/></symbol><symbol id="icon-education" viewBox="0 0 512 477.9"><g fill="#FFF"><path d="M360.5 426.9c-4.6-1.2-9.2 1.6-10.3 6.2l-8.5 34.1c-1.2 4.6 1.6 9.2 6.2 10.4.7.2 1.4.3 2.1.3 3.8 0 7.3-2.6 8.3-6.5l8.5-34.1c1-4.6-1.8-9.2-6.3-10.4zM256 256c1.1 0 2.2-.2 3.3-.6l93.9-38.8c4.4-1.8 6.4-6.8 4.6-11.1-1.8-4.4-6.8-6.4-11.2-4.6L256 238.2 17.1 139.4v-2.8c0-4.7-3.8-8.5-8.5-8.5S0 131.8 0 136.5v8.5c0 3.5 2.1 6.6 5.3 7.9l247.5 102.4c1 .5 2.1.7 3.2.7zm101.5 87.4c-2.1-4.2-7.2-6-11.4-3.9-16.2 8-43.3 17.3-81.6 18.6v-76.6c0-4.7-3.8-8.5-8.5-8.5s-8.5 3.8-8.5 8.5V358c-106-3.4-140.2-67.6-145.1-78.3v-58c0-4.7-3.8-8.5-8.5-8.5s-8.5 3.8-8.5 8.5v59.7c0 1.1.2 2.2.6 3.2 1.5 3.7 37.8 90.7 170.1 90.7 46.2 0 78.6-11.2 97.6-20.6 4.2-1.9 5.9-7.1 3.8-11.3zm26.5 91.8c-4.7 0-8.5 3.8-8.5 8.5v25.6c0 4.7 3.8 8.5 8.5 8.5s8.5-3.8 8.5-8.5v-25.6c0-4.7-3.8-8.5-8.5-8.5z"/><path d="M503.5 128c-4.7 0-8.5 3.8-8.5 8.5v2.8l-102.4 42.1V166l114.2-47.3c3.2-1.3 5.3-4.4 5.3-7.9s-2.1-6.6-5.3-7.9L259.3.6c-2.1-.9-4.4-.9-6.5 0L5.3 103c-3.2 1.3-5.3 4.4-5.3 7.9s2.1 6.6 5.3 7.9l247.5 102.4c1 .4 2.1.6 3.3.6s2.2-.2 3.3-.6l89.5-37c4.4-1.8 6.4-6.8 4.6-11.1-1.8-4.4-6.8-6.4-11.1-4.6L256 204.1 30.8 110.9 256 17.8 481.2 111l-98 40.5-93.8-35c.5-1.8.8-3.6.8-5.5 0-14.4-15-25.6-34.1-25.6S222 96.6 222 111s15 25.6 34.1 25.6c8.5 0 16.2-2.3 22.1-6.1l97.4 36.4V377c-9.9 3.5-17.1 12.9-17.1 24 0 14.1 11.5 25.6 25.6 25.6s25.6-11.5 25.6-25.6c0-11.1-7.2-20.5-17.1-24v-48.4c24.5-18.5 33.3-43.1 33.7-44.2.3-.9.5-1.8.5-2.8v-59.7c0-4.7-3.8-8.5-8.5-8.5s-8.5 3.8-8.5 8.5V280c-1.5 3.6-6.6 14.8-17.1 25.8V200l114.2-47c3.2-1.3 5.3-4.4 5.3-7.9v-8.5c-.2-4.8-4-8.6-8.7-8.6zM256 119.5c-10.4 0-17.1-5.1-17.1-8.5 0-3.5 6.6-8.5 17.1-8.5 10.4 0 17.1 5.1 17.1 8.5 0 3.4-6.7 8.5-17.1 8.5zm128 290.1c-4.7 0-8.5-3.8-8.5-8.5s3.8-8.5 8.5-8.5 8.5 3.8 8.5 8.5-3.8 8.5-8.5 8.5zm33.9 23.5c-1.1-4.6-5.8-7.4-10.3-6.2-4.6 1.1-7.4 5.8-6.2 10.4l8.5 34.1c1 3.9 4.4 6.5 8.3 6.5.7 0 1.4-.1 2.1-.3 4.6-1.1 7.4-5.8 6.2-10.4l-8.6-34.1z"/></g></symbol><symbol id="icon-email" viewBox="0 0 486.392 486.392"><path d="M455.992 60.799H30.399C13.619 60.799 0 74.418 0 91.198v303.995c0 16.781 13.619 30.399 30.399 30.399h425.593c16.781 0 30.399-13.619 30.399-30.399V91.198c.001-16.78-13.618-30.399-30.399-30.399zM30.399 177.685l116.673 79.312L30.399 373.701V177.685zm21.493 217.508l120.777-120.777 70.588 47.97 70.192-48.335L434.5 395.163l-382.608.03zm404.1-21.492l-117.16-117.16 117.16-80.589v197.749zm0-233.316l-.638-.912-212.158 146.13L30.399 140.962V91.198h425.593v49.187z" fill="#fff"/></symbol><symbol id="icon-facebook" viewBox="0 0 310 310"><g id="XMLID_834_"><path id="XMLID_835_" d="M81.703 165.106h33.981V305a5 5 0 0 0 5 5H178.3a5 5 0 0 0 5-5V165.765h39.064a5 5 0 0 0 4.967-4.429l5.933-51.502a5 5 0 0 0-4.966-5.572h-44.996V71.978c0-9.732 5.24-14.667 15.576-14.667h29.42a5 5 0 0 0 5-5V5.037a5 5 0 0 0-5-5h-40.545A39.746 39.746 0 0 0 185.896 0c-7.035 0-31.488 1.381-50.804 19.151-21.402 19.692-18.427 43.27-17.716 47.358v37.752H81.703a5 5 0 0 0-5 5v50.844a5 5 0 0 0 5 5.001z" fill="#fff"/></g></symbol><symbol id="icon-github" viewBox="0 0 512 512"><path d="M255.968 5.329C114.624 5.329 0 120.401 0 262.353c0 113.536 73.344 209.856 175.104 243.872 12.8 2.368 17.472-5.568 17.472-12.384 0-6.112-.224-22.272-.352-43.712-71.2 15.52-86.24-34.464-86.24-34.464-11.616-29.696-28.416-37.6-28.416-37.6-23.264-15.936 1.728-15.616 1.728-15.616 25.696 1.824 39.2 26.496 39.2 26.496 22.848 39.264 59.936 27.936 74.528 21.344 2.304-16.608 8.928-27.936 16.256-34.368-56.832-6.496-116.608-28.544-116.608-127.008 0-28.064 9.984-51.008 26.368-68.992-2.656-6.496-11.424-32.64 2.496-68 0 0 21.504-6.912 70.4 26.336 20.416-5.696 42.304-8.544 64.096-8.64 21.728.128 43.648 2.944 64.096 8.672 48.864-33.248 70.336-26.336 70.336-26.336 13.952 35.392 5.184 61.504 2.56 68 16.416 17.984 26.304 40.928 26.304 68.992 0 98.72-59.84 120.448-116.864 126.816 9.184 7.936 17.376 23.616 17.376 47.584 0 34.368-.32 62.08-.32 70.496 0 6.88 4.608 14.88 17.6 12.352C438.72 472.145 512 375.857 512 262.353 512 120.401 397.376 5.329 255.968 5.329z"/></symbol><symbol id="icon-info"><path d="M411.272 52.471C366.343 18.145 312.651.001 255.999.001c-68.38 0-132.667 26.629-181.019 74.98C26.629 123.334 0 187.621 0 256.001c0 68.463 26.686 132.807 75.143 181.178a8.307 8.307 0 0 0 5.885 2.434 8.33 8.33 0 0 0 5.885-14.223c-45.305-45.224-70.254-105.38-70.254-169.388 0-63.931 24.896-124.035 70.102-169.241 45.206-45.205 105.31-70.101 169.24-70.101 52.964 0 103.16 16.961 145.158 49.049a8.33 8.33 0 0 0 11.676-1.561 8.333 8.333 0 0 0-1.563-11.677zm25.962 22.728a8.33 8.33 0 0 0-11.779-.012 8.327 8.327 0 0 0-.014 11.778C470.517 132.15 495.342 192.181 495.342 256c0 63.931-24.896 124.035-70.102 169.24-45.206 45.206-105.31 70.102-169.24 70.102-52.784 0-102.841-16.856-144.76-48.744a8.33 8.33 0 0 0-10.086 13.258C145.996 493.969 199.541 512 256 512c68.38 0 132.667-26.629 181.019-74.98C485.371 388.666 512 324.379 512 255.999c0-68.261-26.553-132.471-74.766-180.8z" fill="#FFF"/><path d="M262.474 352.114c-16.457 0-30.361 13.904-30.361 30.361v8.094c0 16.741 13.62 30.361 30.361 30.361 17.309 0 30.361-13.052 30.361-30.361v-8.094c-.002-17.024-13.337-30.361-30.361-30.361zm13.701 38.454c0 7.939-5.763 13.703-13.703 13.703-7.556 0-13.703-6.147-13.703-13.703v-8.094c0-7.299 6.403-13.703 13.703-13.703 7.811 0 13.703 5.891 13.703 13.703v8.094zm89.498-198.285c0-56.657-46.296-102.75-103.2-102.75-36.409 0-70.353 19.506-88.577 50.893-8.459 14.501-3.842 32.702 10.508 41.437l.134.08c4.746 2.768 10.114 4.232 15.521 4.232 10.962-.001 20.848-5.729 26.468-15.364 7.301-12.679 21.074-20.556 35.947-20.556 24.073 0 42.928 18.461 42.928 42.029 0 23.176-19.258 42.029-42.928 42.029-16.174 0-30.361 14.187-30.361 30.361 0 .328.014.642.04.944-.028.302-.04.589-.04.855v46.761c0 16.741 13.619 30.361 30.361 30.361 17.309 0 30.361-13.052 30.361-30.361v-22.852h-.001c43.209-13.137 72.839-52.576 72.839-98.099zm-83.085 83.618a8.326 8.326 0 0 0-6.411 8.105v29.226c0 7.939-5.763 13.703-13.703 13.703-7.556 0-13.703-6.147-13.703-13.703v-44.853a8.914 8.914 0 0 0 .45-2.807c0-.817-.12-1.622-.351-2.392.85-6.463 7.061-12.21 13.604-12.21 32.856 0 59.586-26.327 59.586-58.687 0-15.908-6.222-30.739-17.519-41.762-11.184-10.914-26.124-16.924-42.068-16.924-20.812 0-40.118 11.075-50.359 28.861-2.578 4.419-7.085 7.057-12.057 7.058-2.435 0-4.874-.665-7.059-1.923-6.577-4.048-8.604-12.105-4.705-18.788 15.262-26.285 43.686-42.614 74.18-42.614 47.719 0 86.542 38.621 86.542 86.092 0 39.981-27.316 74.366-66.427 83.618z" fill="#FFF"/></symbol><symbol id="icon-linkedin" viewBox="0 0 310 310"><g id="XMLID_801_"><path id="XMLID_802_" d="M72.16 99.73H9.927a5 5 0 0 0-5 5v199.928a5 5 0 0 0 5 5H72.16a5 5 0 0 0 5-5V104.73a5 5 0 0 0-5-5z"/><path id="XMLID_803_" d="M41.066.341C18.422.341 0 18.743 0 41.362 0 63.991 18.422 82.4 41.066 82.4c22.626 0 41.033-18.41 41.033-41.038C82.1 18.743 63.692.341 41.066.341z"/><path id="XMLID_804_" d="M230.454 94.761c-24.995 0-43.472 10.745-54.679 22.954V104.73a5 5 0 0 0-5-5h-59.599a5 5 0 0 0-5 5v199.928a5 5 0 0 0 5 5h62.097a5 5 0 0 0 5-5V205.74c0-33.333 9.054-46.319 32.29-46.319 25.306 0 27.317 20.818 27.317 48.034v97.204a5 5 0 0 0 5 5H305a5 5 0 0 0 5-5V194.995c0-49.565-9.451-100.234-79.546-100.234z"/></g></symbol><symbol id="icon-next" viewBox="0 0 477.175 477.175"><path d="M360.731 229.075l-225.1-225.1c-5.3-5.3-13.8-5.3-19.1 0s-5.3 13.8 0 19.1l215.5 215.5-215.5 215.5c-5.3 5.3-5.3 13.8 0 19.1 2.6 2.6 6.1 4 9.5 4 3.4 0 6.9-1.3 9.5-4l225.1-225.1c5.3-5.2 5.3-13.8.1-19z"/></symbol><symbol id="icon-skype" viewBox="0 0 300 300"><g id="XMLID_818_"><path id="XMLID_819_" d="M289.391 181.848a141.574 141.574 0 0 0 3.268-30.273c0-77.917-63.166-141.084-141.086-141.084-8.226 0-16.286.711-24.128 2.064C114.836 4.611 99.918 0 83.916 0 38.728 0 2.097 36.635 2.097 81.816a81.415 81.415 0 0 0 11.246 41.385 141.74 141.74 0 0 0-2.854 28.373c0 77.917 63.165 141.084 141.084 141.084 8.826 0 17.459-.817 25.834-2.367 11.518 6.19 24.688 9.709 38.678 9.709 45.189 0 81.818-36.631 81.818-81.816a81.432 81.432 0 0 0-8.512-36.336zm-65.459 37.15c-6.527 9.236-16.17 16.555-28.664 21.749-12.373 5.143-27.205 7.751-44.088 7.751-20.264 0-37.253-3.564-50.513-10.598-9.479-5.121-17.296-12.056-23.229-20.613-5.993-8.645-9.033-17.223-9.033-25.494 0-5.17 1.98-9.652 5.886-13.32 3.865-3.636 8.818-5.478 14.724-5.478 4.848 0 9.029 1.456 12.429 4.328 3.247 2.752 6.034 6.824 8.273 12.083 2.5 5.726 5.226 10.561 8.105 14.369 2.767 3.663 6.748 6.742 11.832 9.145 5.115 2.422 12.01 3.649 20.491 3.649 11.663 0 21.226-2.49 28.419-7.402 7.025-4.797 10.441-10.555 10.441-17.604 0-5.57-1.783-9.947-5.449-13.382-3.84-3.591-8.904-6.386-15.055-8.303-6.412-1.999-15.117-4.155-25.884-6.409-14.586-3.124-26.985-6.83-36.86-11.019a2.805 2.805 0 0 1-.115-.048c-10.117-4.303-18.271-10.27-24.236-17.736-6.059-7.582-9.129-17.094-9.129-28.275 0-10.658 3.223-20.265 9.58-28.552 6.309-8.229 15.523-14.624 27.385-19.012 11.709-4.33 25.637-6.524 41.396-6.524 12.6 0 23.678 1.455 32.924 4.33 9.299 2.896 17.139 6.807 23.299 11.619 6.205 4.848 10.82 10.035 13.719 15.422 2.928 5.441 4.412 10.856 4.412 16.094 0 5.041-1.947 9.622-5.787 13.615-3.863 4.016-8.738 6.055-14.49 6.055-5.225 0-9.314-1.275-12.152-3.789-2.641-2.334-5.379-5.973-8.42-11.209-3.518-6.684-7.775-11.953-12.66-15.666-4.74-3.606-12.666-5.437-23.555-5.437-10.113 0-18.338 2.03-24.445 6.034-5.885 3.858-8.744 8.282-8.744 13.523 0 3.215.92 5.901 2.813 8.213 2.005 2.449 4.833 4.6 8.408 6.388 3.708 1.864 7.529 3.345 11.357 4.402 3.921 1.088 10.5 2.7 19.522 4.784 9.506 2.041 18.359 4.289 26.418 6.695a258.5 258.5 0 0 1 4.771 1.468c9.395 3.007 17.514 6.716 24.135 11.022 6.758 4.401 12.109 10.053 15.906 16.8 3.807 6.771 5.736 15.132 5.736 24.844-.002 11.625-3.324 22.217-9.873 31.488z" fill="#fff"/></g></symbol><symbol id="icon-tap" viewBox="0 0 469.333 469.333"><path d="M438.827 186.347l-80.213-88.149c-15.872-15.872-41.728-15.893-57.749.128-5.077 5.077-8.533 11.157-10.325 17.643-15.957-12.224-38.976-11.008-53.675 3.691a40.64 40.64 0 0 0-10.347 17.621c-15.957-12.181-38.976-10.987-53.653 3.712-4.971 4.971-8.384 10.901-10.24 17.216l-37.803-37.803c-15.872-15.872-41.728-15.893-57.749.128-15.893 15.872-15.893 41.728 0 57.621L212.31 323.392l-86.144 13.525c-23.275 3.328-40.832 23.552-40.832 47.083 0 17.643 14.357 32 32 32h201.152c31.339 0 60.8-12.203 82.965-34.368l33.557-33.557c22.144-22.123 34.325-51.563 34.325-82.859 0-29.227-10.837-57.237-30.506-78.869zm-18.902 146.645l-33.557 33.557c-18.133 18.133-42.24 28.117-67.883 28.117H117.333c-5.888 0-10.667-4.779-10.667-10.667 0-12.971 9.685-24.128 22.677-25.984l106.987-16.811c3.968-.619 7.232-3.413 8.491-7.232 1.237-3.797.235-8-2.603-10.837L82.155 163.072c-7.573-7.573-7.573-19.904.107-27.605a19.436 19.436 0 0 1 13.739-5.675c4.971 0 9.941 1.899 13.739 5.696l106.731 106.731c4.16 4.16 10.923 4.16 15.083 0 2.069-2.091 3.115-4.821 3.115-7.552s-1.045-5.461-3.136-7.552l-43.584-43.584c-7.573-7.573-7.573-19.883.128-27.584 7.552-7.552 19.904-7.552 27.456 0l43.605 43.605c4.16 4.16 10.923 4.16 15.083 0a10.716 10.716 0 0 0 3.115-7.552c0-2.731-1.045-5.461-3.136-7.552l-22.251-22.251c-7.573-7.573-7.573-19.883.128-27.584 7.552-7.552 19.904-7.552 27.456 0l22.357 22.357c.043.021.021.021.021.021l.021.021.021.021.021.021h.021c.021 0 .021.021.021.021 4.181 3.968 10.795 3.883 14.869-.213 4.16-4.16 4.16-10.923 0-15.083l-.917-.917c-3.669-3.669-5.696-8.555-5.696-13.739s2.005-10.048 5.803-13.845c7.595-7.552 19.883-7.531 27.115-.363l79.872 87.787C439.125 218.389 448 241.301 448 265.216c0 25.6-9.963 49.664-28.075 67.776z"/><path d="M183.381 109.931C167.851 75.563 133.547 53.333 96 53.333c-52.928 0-96 43.072-96 96 0 37.547 22.229 71.851 56.597 87.403 1.429.64 2.923.939 4.395.939 4.053 0 7.936-2.347 9.728-6.272 2.411-5.376.021-11.691-5.333-14.123-26.752-12.096-44.053-38.763-44.053-67.947 0-41.173 33.493-74.667 74.667-74.667 29.184 0 55.851 17.301 67.947 44.053 2.411 5.376 8.747 7.787 14.101 5.333 5.375-2.431 7.764-8.745 5.332-14.121z"/></symbol><symbol id="icon-telegram" viewBox="0 0 300 300"><g id="XMLID_496_"><path id="XMLID_497_" d="M5.299 144.645l69.126 25.8 26.756 86.047c1.712 5.511 8.451 7.548 12.924 3.891l38.532-31.412a11.496 11.496 0 0 1 14.013-.391l69.498 50.457c4.785 3.478 11.564.856 12.764-4.926L299.823 29.22c1.31-6.316-4.896-11.585-10.91-9.259L5.218 129.402c-7.001 2.7-6.94 12.612.081 15.243zm91.57 12.066l135.098-83.207c2.428-1.491 4.926 1.792 2.841 3.726L123.313 180.87a23.112 23.112 0 0 0-7.163 13.829l-3.798 28.146c-.503 3.758-5.782 4.131-6.819.494l-14.607-51.325c-1.673-5.854.765-12.107 5.943-15.303z" fill="#fff"/></g></symbol><symbol id="icon-telephone" viewBox="0 0 446.081 446.081"><path d="M444.413 339.307c-1.034-2.006-25.84-49.156-94.512-65.815-4.773-1.246-9.697.03-13.376 3.192-21.675 18.452-51.618 38.243-64.538 40.218-86.639-42.346-134.974-123.604-136.798-139.017-1.064-8.664 18.787-39.094 41.617-63.839a15.171 15.171 0 0 0 3.952-11.643c-5.806-66.788-75.482-99.558-78.431-100.896A15.156 15.156 0 0 0 93.45.352C13.015 13.698.916 60.513.429 62.459a15.057 15.057 0 0 0 .304 8.208c95.941 297.672 295.331 352.847 360.903 371.056l12.312 3.557 4.682.669 6.293-1.368c2.006-.912 49.369-23.225 60.951-96.002.546-3.131-.001-6.415-1.461-9.272z" fill="#fff"/></symbol><symbol id="icon-vk" viewBox="0 0 304.36 304.36"><g id="XMLID_1_"><path id="XMLID_807_" d="M261.945 175.576c10.096 9.857 20.752 19.131 29.807 29.982 4 4.822 7.787 9.798 10.684 15.394 4.105 7.955.387 16.709-6.746 17.184l-44.34-.02c-11.436.949-20.559-3.655-28.23-11.474-6.139-6.253-11.824-12.908-17.727-19.372-2.42-2.642-4.953-5.128-7.979-7.093-6.053-3.929-11.307-2.726-14.766 3.587-3.523 6.421-4.322 13.531-4.668 20.687-.475 10.441-3.631 13.186-14.119 13.664-22.414 1.057-43.686-2.334-63.447-13.641-17.422-9.968-30.932-24.04-42.691-39.971-22.895-31.021-40.428-65.108-56.186-100.15C-2.01 76.458.584 72.22 9.295 72.07c14.465-.281 28.928-.261 43.41-.02 5.879.086 9.771 3.458 12.041 9.012 7.826 19.243 17.402 37.551 29.422 54.521 3.201 4.518 6.465 9.036 11.113 12.216 5.142 3.521 9.057 2.354 11.476-3.374 1.535-3.632 2.207-7.544 2.553-11.434 1.146-13.383 1.297-26.743-.713-40.079-1.234-8.323-5.922-13.711-14.227-15.286-4.238-.803-3.607-2.38-1.555-4.799 3.564-4.172 6.916-6.769 13.598-6.769h50.111c7.889 1.557 9.641 5.101 10.721 13.039l.043 55.663c-.086 3.073 1.535 12.192 7.07 14.226 4.43 1.448 7.35-2.096 10.008-4.905 11.998-12.734 20.561-27.783 28.211-43.366 3.395-6.852 6.314-13.968 9.143-21.078 2.096-5.276 5.385-7.872 11.328-7.757l48.229.043c1.43 0 2.877.021 4.262.258 8.127 1.385 10.354 4.881 7.844 12.817-3.955 12.451-11.65 22.827-19.174 33.251-8.043 11.129-16.645 21.877-24.621 33.072-7.328 10.223-6.746 15.376 2.357 24.255zm0 0" fill-rule="evenodd" clip-rule="evenodd"/></g></symbol><symbol id="icon-youtube" viewBox="0 0 310 310"><g id="XMLID_822_"><path id="XMLID_823_" d="M297.917 64.645c-11.19-13.302-31.85-18.728-71.306-18.728H83.386c-40.359 0-61.369 5.776-72.517 19.938C0 79.663 0 100.008 0 128.166v53.669c0 54.551 12.896 82.248 83.386 82.248h143.226c34.216 0 53.176-4.788 65.442-16.527C304.633 235.518 310 215.863 310 181.835v-53.669c0-29.695-.841-50.16-12.083-63.521zm-98.896 97.765l-65.038 33.991a9.997 9.997 0 0 1-14.632-8.863v-67.764a10 10 0 0 1 14.609-8.874l65.038 33.772a10 10 0 0 1 .023 17.738z"/></g></symbol></svg>