<svg id="Layer_1" xmlns="http://www.w3.org/2000/svg" viewBox="0 0 25 25"><style>.st0{fill:#0d0d0f}.st1{fill:#200132}.st2{fill:#595959}</style><path class="st0" d="M10.2 3.1l-.5 2.5 2.5-.6zm3.8-4l-1.4 7.4L20 5z"/><path class="st1" d="M10.2 1.7l4.9-1-1 4.9z"/><path class="st2" d="M12.7-1.7L12.2.8l2.4-.5z"/><path class="st0" d="M22.9-.2l.5-2.5-2.5.5zm-3.8 4l1.4-7.4-7.4 1.4z"/><path class="st1" d="M22.9 1.1l-4.9 1 1-4.9z"/><path class="st2" d="M20.4 4.5l.5-2.4-2.4.5z"/><path class="st0" d="M12.7 10.2l-.3 1.7 1.7-.4zm2.7-2.8l-1 5.2 5.2-1.1z"/><path class="st1" d="M12.7 9.2l3.4-.7-.6 3.4z"/><path class="st2" d="M14.4 6.8l-.3 1.8 1.7-.4z"/><path class="st0" d="M21.6 7.9l.4-1.7-1.8.3zm-2.7 2.8L20 5.5l-5.2 1z"/><path class="st1" d="M21.6 8.8l-3.4.7.7-3.4z"/><path class="st2" d="M19.9 11.2l.3-1.7-1.7.3z"/><path class="st0" d="M30.4 2.1l.3-1.7-1.7.4zm-2.7 2.8l1-5.2L23.5.8z"/><path class="st1" d="M30.4 3.1l-3.5.7.7-3.4z"/><path class="st2" d="M28.6 5.5l.4-1.8-1.7.4z"/><path class="st0" d="M21.5 4.4l-.4 1.7 1.8-.3zm2.6-2.8l-1 5.2 5.2-1z"/><path class="st1" d="M21.5 3.5l3.4-.7-.7 3.4z"/><path class="st2" d="M23.2 1.1l-.3 1.7 1.7-.3z"/><path class="st0" d="M20.4 11.3L20 13l1.7-.3zM23 8.5l-1 5.2 5.2-1z"/><path class="st1" d="M20.4 10.3l3.4-.6-.7 3.4z"/><path class="st2" d="M22.1 8l-.4 1.7 1.8-.4z"/><path class="st0" d="M29.3 9l.3-1.7-1.7.3zm-2.7 2.8l1-5.2-5.2 1z"/><path class="st1" d="M29.3 10l-3.5.6.7-3.4z"/><path class="st2" d="M27.5 12.3l.4-1.7-1.7.3z"/></svg>