<svg id="Layer_1" xmlns="http://www.w3.org/2000/svg" xmlns:xlink="http://www.w3.org/1999/xlink" viewBox="0 0 25 25"><defs><path id="SVGID_1_" d="M0 0h25v25H0z"/></defs><clipPath id="SVGID_2_"><use xlink:href="#SVGID_1_" overflow="visible"/></clipPath><g clip-path="url(#SVGID_2_)"><path fill="#595959" d="M10.2 3l-.5 2.5 2.5-.5zM14-.9l-1.4 7.4L20 5z"/><path fill="#0D0D0F" d="M10.2 1.7l4.9-1-1 4.9z"/><path fill="#200132" d="M12.7-1.7L12.2.8l2.4-.5z"/><path fill="#595959" d="M22.9-.2l.5-2.5-2.5.5zm-3.8 4l1.4-7.4-7.4 1.4z"/><path fill="#0D0D0F" d="M22.9 1.1l-4.9 1 1-4.9z"/><path fill="#200132" d="M20.4 4.5l.5-2.4-2.4.5z"/><path fill="#595959" d="M12.7 10.2l-.3 1.7 1.7-.4zm2.7-2.8l-1 5.2 5.2-1.1z"/><path fill="#0D0D0F" d="M12.7 9.2l3.4-.7-.6 3.4z"/><path fill="#200132" d="M14.4 6.8l-.3 1.8 1.7-.4z"/><path fill="#595959" d="M21.6 7.9l.4-1.7-1.8.3zm-2.7 2.8L20 5.5l-5.2 1z"/><path fill="#0D0D0F" d="M21.6 8.8l-3.4.7.7-3.4z"/><path fill="#200132" d="M19.9 11.2l.3-1.7-1.7.3z"/><path fill="#595959" d="M30.4 2.1l.3-1.7-1.7.4zm-2.7 2.8l1-5.2L23.5.8z"/><path fill="#0D0D0F" d="M30.4 3.1l-3.5.7.7-3.4z"/><path fill="#200132" d="M28.6 5.5l.4-1.8-1.7.4z"/><path fill="#595959" d="M21.5 4.4l-.4 1.7 1.8-.3zm2.6-2.8l-1 5.2 5.2-1z"/><path fill="#0D0D0F" d="M21.5 3.5l3.4-.7-.7 3.4z"/><path fill="#200132" d="M23.2 1.1l-.3 1.7 1.7-.3z"/><path fill="#595959" d="M20.4 11.3L20 13l1.7-.3zM23 8.5l-1 5.2 5.2-1z"/><path fill="#0D0D0F" d="M20.4 10.3l3.4-.6-.7 3.4z"/><path fill="#200132" d="M22.1 8l-.4 1.7 1.8-.4z"/><path fill="#595959" d="M29.3 9l.3-1.7-1.7.3zm-2.7 2.8l1-5.2-5.2 1z"/><path fill="#0D0D0F" d="M29.3 10l-3.5.6.7-3.4z"/><path fill="#200132" d="M27.5 12.3l.4-1.7-1.7.3z"/></g><g clip-path="url(#SVGID_2_)"><path fill="#595959" d="M-9 21.1l-.5 2.4 2.5-.4zm3.8-4l-1.4 7.4 7.4-1.4z"/><path fill="#0D0D0F" d="M-9 19.7l4.9-.9-1 4.8z"/><path fill="#200132" d="M-6.5 16.4l-.5 2.4 2.5-.5z"/><path fill="#595959" d="M3.7 17.8l.5-2.4-2.5.5zm-3.8 4l1.5-7.4-7.4 1.5z"/><path fill="#0D0D0F" d="M3.7 19.2l-4.9 1 1-4.9z"/><path fill="#200132" d="M1.3 22.6l.4-2.5-2.4.5z"/><path fill="#595959" d="M-6.5 28.2l-.3 1.7 1.7-.3zm2.7-2.8l-1 5.2 5.2-1z"/><path fill="#0D0D0F" d="M-6.5 27.3l3.4-.7-.6 3.4z"/><path fill="#200132" d="M-4.8 24.9l-.3 1.7 1.7-.3z"/><path fill="#595959" d="M2.4 25.9l.4-1.7-1.8.4zm-2.7 2.8l1.1-5.2-5.2 1.1z"/><path fill="#0D0D0F" d="M2.4 26.9l-3.4.7.7-3.5z"/><path fill="#200132" d="M.7 29.3l.3-1.8-1.7.4z"/><path fill="#595959" d="M11.2 20.2l.3-1.7-1.7.3zM8.5 23l1-5.2-5.2 1z"/><path fill="#0D0D0F" d="M11.2 21.2l-3.4.6.6-3.4z"/><path fill="#200132" d="M9.5 23.5l.3-1.7-1.7.3z"/><path fill="#595959" d="M2.3 22.5l-.4 1.7 1.8-.3zM5 19.7l-1.1 5.2 5.2-1z"/><path fill="#0D0D0F" d="M2.3 21.5l3.4-.6-.7 3.4z"/><path fill="#200132" d="M4 19.2l-.3 1.7 1.7-.4z"/><path fill="#595959" d="M1.2 29.3l-.4 1.8 1.8-.4zm2.6-2.8l-1 5.2 5.2-1z"/><path fill="#0D0D0F" d="M1.2 28.4l3.4-.7-.7 3.4z"/><path fill="#200132" d="M2.9 26l-.3 1.7 1.7-.3z"/><path fill="#595959" d="M10.1 27.1l.3-1.8-1.7.4zm-2.7 2.7l1-5.1-5.2 1z"/><path fill="#0D0D0F" d="M10.1 28l-3.4.7.6-3.4z"/><path fill="#200132" d="M8.3 30.4l.4-1.7L7 29z"/></g></svg>